%TF.GenerationSoftware,KiCad,Pcbnew,8.0.7-1.fc39*%
%TF.CreationDate,2025-01-27T15:10:01+03:00*%
%TF.ProjectId,rev.1_f,7265762e-315f-4662-9e6b-696361645f70,rev?*%
%TF.SameCoordinates,Original*%
%TF.FileFunction,Legend,Top*%
%TF.FilePolarity,Positive*%
%FSLAX46Y46*%
G04 Gerber Fmt 4.6, Leading zero omitted, Abs format (unit mm)*
G04 Created by KiCad (PCBNEW 8.0.7-1.fc39) date 2025-01-27 15:10:01*
%MOMM*%
%LPD*%
G01*
G04 APERTURE LIST*
%ADD10C,0.150000*%
%ADD11C,0.200000*%
%ADD12C,0.120000*%
%ADD13C,0.100000*%
%ADD14C,0.254000*%
%TA.AperFunction,Profile*%
%ADD15C,0.200000*%
%TD*%
%TA.AperFunction,Profile*%
%ADD16C,0.100000*%
%TD*%
G04 APERTURE END LIST*
D10*
X147403207Y-133974580D02*
X147355588Y-134022200D01*
X147355588Y-134022200D02*
X147212731Y-134069819D01*
X147212731Y-134069819D02*
X147117493Y-134069819D01*
X147117493Y-134069819D02*
X146974636Y-134022200D01*
X146974636Y-134022200D02*
X146879398Y-133926961D01*
X146879398Y-133926961D02*
X146831779Y-133831723D01*
X146831779Y-133831723D02*
X146784160Y-133641247D01*
X146784160Y-133641247D02*
X146784160Y-133498390D01*
X146784160Y-133498390D02*
X146831779Y-133307914D01*
X146831779Y-133307914D02*
X146879398Y-133212676D01*
X146879398Y-133212676D02*
X146974636Y-133117438D01*
X146974636Y-133117438D02*
X147117493Y-133069819D01*
X147117493Y-133069819D02*
X147212731Y-133069819D01*
X147212731Y-133069819D02*
X147355588Y-133117438D01*
X147355588Y-133117438D02*
X147403207Y-133165057D01*
X148307969Y-133069819D02*
X147831779Y-133069819D01*
X147831779Y-133069819D02*
X147831779Y-134069819D01*
X147831779Y-134069819D02*
X148117493Y-134069819D01*
X148117493Y-134069819D02*
X148260350Y-134022200D01*
X148260350Y-134022200D02*
X148355588Y-133926961D01*
X148355588Y-133926961D02*
X148403207Y-133831723D01*
X148403207Y-133831723D02*
X148403207Y-133688866D01*
X148403207Y-133688866D02*
X148355588Y-133593628D01*
X148355588Y-133593628D02*
X148260350Y-133498390D01*
X148260350Y-133498390D02*
X148117493Y-133450771D01*
X148117493Y-133450771D02*
X147831779Y-133450771D01*
X148831779Y-134069819D02*
X148831779Y-133069819D01*
X148831779Y-133069819D02*
X149212731Y-133069819D01*
X149212731Y-133069819D02*
X149307969Y-133117438D01*
X149307969Y-133117438D02*
X149355588Y-133165057D01*
X149355588Y-133165057D02*
X149403207Y-133260295D01*
X149403207Y-133260295D02*
X149403207Y-133403152D01*
X149403207Y-133403152D02*
X149355588Y-133498390D01*
X149355588Y-133498390D02*
X149307969Y-133546009D01*
X149307969Y-133546009D02*
X149212731Y-133593628D01*
X149212731Y-133593628D02*
X148831779Y-133593628D01*
X150022255Y-133069819D02*
X150212731Y-133069819D01*
X150212731Y-133069819D02*
X150307969Y-133117438D01*
X150307969Y-133117438D02*
X150403207Y-133212676D01*
X150403207Y-133212676D02*
X150450826Y-133403152D01*
X150450826Y-133403152D02*
X150450826Y-133736485D01*
X150450826Y-133736485D02*
X150403207Y-133926961D01*
X150403207Y-133926961D02*
X150307969Y-134022200D01*
X150307969Y-134022200D02*
X150212731Y-134069819D01*
X150212731Y-134069819D02*
X150022255Y-134069819D01*
X150022255Y-134069819D02*
X149927017Y-134022200D01*
X149927017Y-134022200D02*
X149831779Y-133926961D01*
X149831779Y-133926961D02*
X149784160Y-133736485D01*
X149784160Y-133736485D02*
X149784160Y-133403152D01*
X149784160Y-133403152D02*
X149831779Y-133212676D01*
X149831779Y-133212676D02*
X149927017Y-133117438D01*
X149927017Y-133117438D02*
X150022255Y-133069819D01*
X151450826Y-133974580D02*
X151403207Y-134022200D01*
X151403207Y-134022200D02*
X151260350Y-134069819D01*
X151260350Y-134069819D02*
X151165112Y-134069819D01*
X151165112Y-134069819D02*
X151022255Y-134022200D01*
X151022255Y-134022200D02*
X150927017Y-133926961D01*
X150927017Y-133926961D02*
X150879398Y-133831723D01*
X150879398Y-133831723D02*
X150831779Y-133641247D01*
X150831779Y-133641247D02*
X150831779Y-133498390D01*
X150831779Y-133498390D02*
X150879398Y-133307914D01*
X150879398Y-133307914D02*
X150927017Y-133212676D01*
X150927017Y-133212676D02*
X151022255Y-133117438D01*
X151022255Y-133117438D02*
X151165112Y-133069819D01*
X151165112Y-133069819D02*
X151260350Y-133069819D01*
X151260350Y-133069819D02*
X151403207Y-133117438D01*
X151403207Y-133117438D02*
X151450826Y-133165057D01*
X109216779Y-120109819D02*
X109216779Y-119109819D01*
X109216779Y-119109819D02*
X109597731Y-119109819D01*
X109597731Y-119109819D02*
X109692969Y-119157438D01*
X109692969Y-119157438D02*
X109740588Y-119205057D01*
X109740588Y-119205057D02*
X109788207Y-119300295D01*
X109788207Y-119300295D02*
X109788207Y-119443152D01*
X109788207Y-119443152D02*
X109740588Y-119538390D01*
X109740588Y-119538390D02*
X109692969Y-119586009D01*
X109692969Y-119586009D02*
X109597731Y-119633628D01*
X109597731Y-119633628D02*
X109216779Y-119633628D01*
X110169160Y-119824104D02*
X110645350Y-119824104D01*
X110073922Y-120109819D02*
X110407255Y-119109819D01*
X110407255Y-119109819D02*
X110740588Y-120109819D01*
X111169160Y-119586009D02*
X111359636Y-119586009D01*
X111026303Y-119157438D02*
X111121541Y-119109819D01*
X111121541Y-119109819D02*
X111359636Y-119109819D01*
X111359636Y-119109819D02*
X111454874Y-119157438D01*
X111454874Y-119157438D02*
X111502493Y-119205057D01*
X111502493Y-119205057D02*
X111550112Y-119300295D01*
X111550112Y-119300295D02*
X111550112Y-119395533D01*
X111550112Y-119395533D02*
X111502493Y-119490771D01*
X111502493Y-119490771D02*
X111454874Y-119538390D01*
X111454874Y-119538390D02*
X111359636Y-119586009D01*
X111359636Y-119586009D02*
X111502493Y-119633628D01*
X111502493Y-119633628D02*
X111550112Y-119681247D01*
X111550112Y-119681247D02*
X111597731Y-119776485D01*
X111597731Y-119776485D02*
X111597731Y-119919342D01*
X111597731Y-119919342D02*
X111550112Y-120014580D01*
X111550112Y-120014580D02*
X111502493Y-120062200D01*
X111502493Y-120062200D02*
X111407255Y-120109819D01*
X111407255Y-120109819D02*
X111121541Y-120109819D01*
X111121541Y-120109819D02*
X111026303Y-120062200D01*
X111883446Y-119109819D02*
X112121541Y-119109819D01*
X112121541Y-119109819D02*
X112121541Y-120109819D01*
X112121541Y-120109819D02*
X112407255Y-120109819D01*
X112407255Y-120109819D02*
X112550112Y-120062200D01*
X112550112Y-120062200D02*
X112645350Y-119966961D01*
X112645350Y-119966961D02*
X112692969Y-119871723D01*
X112692969Y-119871723D02*
X112692969Y-119728866D01*
X112692969Y-119728866D02*
X112645350Y-119633628D01*
X112645350Y-119633628D02*
X112550112Y-119538390D01*
X112550112Y-119538390D02*
X112407255Y-119490771D01*
X112407255Y-119490771D02*
X112121541Y-119490771D01*
X113121541Y-119586009D02*
X113454874Y-119586009D01*
X113597731Y-120109819D02*
X113121541Y-120109819D01*
X113121541Y-120109819D02*
X113121541Y-119109819D01*
X113121541Y-119109819D02*
X113597731Y-119109819D01*
X114026303Y-120109819D02*
X114026303Y-119109819D01*
X114026303Y-119109819D02*
X114359636Y-119824104D01*
X114359636Y-119824104D02*
X114692969Y-119109819D01*
X114692969Y-119109819D02*
X114692969Y-120109819D01*
X116692970Y-120347914D02*
X116692970Y-120109819D01*
X116692970Y-120109819D02*
X115835827Y-120109819D01*
X115835827Y-120109819D02*
X115835827Y-120347914D01*
X116502493Y-120109819D02*
X116502493Y-119109819D01*
X116502493Y-119109819D02*
X116264398Y-119109819D01*
X116264398Y-119109819D02*
X116169160Y-119157438D01*
X116169160Y-119157438D02*
X116121541Y-119205057D01*
X116121541Y-119205057D02*
X116073922Y-119300295D01*
X116073922Y-119300295D02*
X115978684Y-120109819D01*
X117645350Y-120109819D02*
X117645350Y-119109819D01*
X117645350Y-119109819D02*
X117502493Y-119109819D01*
X117502493Y-119109819D02*
X117359636Y-119157438D01*
X117359636Y-119157438D02*
X117264398Y-119252676D01*
X117264398Y-119252676D02*
X117216779Y-119395533D01*
X117216779Y-119395533D02*
X117121541Y-119966961D01*
X117121541Y-119966961D02*
X117073922Y-120062200D01*
X117073922Y-120062200D02*
X116978684Y-120109819D01*
X116978684Y-120109819D02*
X116931065Y-120109819D01*
X118407255Y-119633628D02*
X118073922Y-120109819D01*
X118645350Y-120109819D02*
X118645350Y-119109819D01*
X118645350Y-119109819D02*
X118264398Y-119109819D01*
X118264398Y-119109819D02*
X118169160Y-119157438D01*
X118169160Y-119157438D02*
X118121541Y-119205057D01*
X118121541Y-119205057D02*
X118073922Y-119300295D01*
X118073922Y-119300295D02*
X118073922Y-119443152D01*
X118073922Y-119443152D02*
X118121541Y-119538390D01*
X118121541Y-119538390D02*
X118169160Y-119586009D01*
X118169160Y-119586009D02*
X118264398Y-119633628D01*
X118264398Y-119633628D02*
X118645350Y-119633628D01*
X119883446Y-120109819D02*
X119883446Y-119109819D01*
X119883446Y-119109819D02*
X120216779Y-119824104D01*
X120216779Y-119824104D02*
X120550112Y-119109819D01*
X120550112Y-119109819D02*
X120550112Y-120109819D01*
X121216779Y-119109819D02*
X121407255Y-119109819D01*
X121407255Y-119109819D02*
X121502493Y-119157438D01*
X121502493Y-119157438D02*
X121597731Y-119252676D01*
X121597731Y-119252676D02*
X121645350Y-119443152D01*
X121645350Y-119443152D02*
X121645350Y-119776485D01*
X121645350Y-119776485D02*
X121597731Y-119966961D01*
X121597731Y-119966961D02*
X121502493Y-120062200D01*
X121502493Y-120062200D02*
X121407255Y-120109819D01*
X121407255Y-120109819D02*
X121216779Y-120109819D01*
X121216779Y-120109819D02*
X121121541Y-120062200D01*
X121121541Y-120062200D02*
X121026303Y-119966961D01*
X121026303Y-119966961D02*
X120978684Y-119776485D01*
X120978684Y-119776485D02*
X120978684Y-119443152D01*
X120978684Y-119443152D02*
X121026303Y-119252676D01*
X121026303Y-119252676D02*
X121121541Y-119157438D01*
X121121541Y-119157438D02*
X121216779Y-119109819D01*
X122835827Y-120347914D02*
X122835827Y-120109819D01*
X122835827Y-120109819D02*
X121978684Y-120109819D01*
X121978684Y-120109819D02*
X121978684Y-120347914D01*
X122645350Y-120109819D02*
X122645350Y-119109819D01*
X122645350Y-119109819D02*
X122407255Y-119109819D01*
X122407255Y-119109819D02*
X122312017Y-119157438D01*
X122312017Y-119157438D02*
X122264398Y-119205057D01*
X122264398Y-119205057D02*
X122216779Y-119300295D01*
X122216779Y-119300295D02*
X122121541Y-120109819D01*
X123169160Y-119109819D02*
X123502493Y-119776485D01*
X123835826Y-119109819D02*
X123407255Y-119966961D01*
X123407255Y-119966961D02*
X123312017Y-120062200D01*
X123312017Y-120062200D02*
X123216779Y-120109819D01*
X123216779Y-120109819D02*
X123169160Y-120109819D01*
X124740588Y-120109819D02*
X124740588Y-119109819D01*
X124740588Y-119109819D02*
X124597731Y-119109819D01*
X124597731Y-119109819D02*
X124454874Y-119157438D01*
X124454874Y-119157438D02*
X124359636Y-119252676D01*
X124359636Y-119252676D02*
X124312017Y-119395533D01*
X124312017Y-119395533D02*
X124216779Y-119966961D01*
X124216779Y-119966961D02*
X124169160Y-120062200D01*
X124169160Y-120062200D02*
X124073922Y-120109819D01*
X124073922Y-120109819D02*
X124026303Y-120109819D01*
X125216779Y-119586009D02*
X125550112Y-119586009D01*
X125692969Y-120109819D02*
X125216779Y-120109819D01*
X125216779Y-120109819D02*
X125216779Y-119109819D01*
X125216779Y-119109819D02*
X125692969Y-119109819D01*
X126121541Y-119109819D02*
X126121541Y-120109819D01*
X126121541Y-120109819D02*
X126692969Y-119109819D01*
X126692969Y-119109819D02*
X126692969Y-120109819D01*
X126216779Y-118728866D02*
X126264398Y-118824104D01*
X126264398Y-118824104D02*
X126359636Y-118871723D01*
X126359636Y-118871723D02*
X126454874Y-118871723D01*
X126454874Y-118871723D02*
X126550112Y-118824104D01*
X126550112Y-118824104D02*
X126597731Y-118728866D01*
X127931065Y-120109819D02*
X127931065Y-119109819D01*
X127931065Y-119109819D02*
X128502493Y-119109819D01*
X128502493Y-119109819D02*
X128502493Y-120109819D01*
X128931065Y-119824104D02*
X129407255Y-119824104D01*
X128835827Y-120109819D02*
X129169160Y-119109819D01*
X129169160Y-119109819D02*
X129502493Y-120109819D01*
X129835827Y-120109819D02*
X129835827Y-119109819D01*
X129835827Y-119109819D02*
X130169160Y-119824104D01*
X130169160Y-119824104D02*
X130502493Y-119109819D01*
X130502493Y-119109819D02*
X130502493Y-120109819D01*
X131264398Y-119633628D02*
X130931065Y-120109819D01*
X131502493Y-120109819D02*
X131502493Y-119109819D01*
X131502493Y-119109819D02*
X131121541Y-119109819D01*
X131121541Y-119109819D02*
X131026303Y-119157438D01*
X131026303Y-119157438D02*
X130978684Y-119205057D01*
X130978684Y-119205057D02*
X130931065Y-119300295D01*
X130931065Y-119300295D02*
X130931065Y-119443152D01*
X130931065Y-119443152D02*
X130978684Y-119538390D01*
X130978684Y-119538390D02*
X131026303Y-119586009D01*
X131026303Y-119586009D02*
X131121541Y-119633628D01*
X131121541Y-119633628D02*
X131502493Y-119633628D01*
X131835827Y-119109819D02*
X132407255Y-119109819D01*
X132121541Y-120109819D02*
X132121541Y-119109819D01*
X132740589Y-119109819D02*
X132740589Y-120109819D01*
X132740589Y-120109819D02*
X133312017Y-119109819D01*
X133312017Y-119109819D02*
X133312017Y-120109819D01*
X152597017Y-65446009D02*
X152787493Y-65446009D01*
X152454160Y-65017438D02*
X152549398Y-64969819D01*
X152549398Y-64969819D02*
X152787493Y-64969819D01*
X152787493Y-64969819D02*
X152882731Y-65017438D01*
X152882731Y-65017438D02*
X152930350Y-65065057D01*
X152930350Y-65065057D02*
X152977969Y-65160295D01*
X152977969Y-65160295D02*
X152977969Y-65255533D01*
X152977969Y-65255533D02*
X152930350Y-65350771D01*
X152930350Y-65350771D02*
X152882731Y-65398390D01*
X152882731Y-65398390D02*
X152787493Y-65446009D01*
X152787493Y-65446009D02*
X152930350Y-65493628D01*
X152930350Y-65493628D02*
X152977969Y-65541247D01*
X152977969Y-65541247D02*
X153025588Y-65636485D01*
X153025588Y-65636485D02*
X153025588Y-65779342D01*
X153025588Y-65779342D02*
X152977969Y-65874580D01*
X152977969Y-65874580D02*
X152930350Y-65922200D01*
X152930350Y-65922200D02*
X152835112Y-65969819D01*
X152835112Y-65969819D02*
X152549398Y-65969819D01*
X152549398Y-65969819D02*
X152454160Y-65922200D01*
X153787493Y-65446009D02*
X153930350Y-65493628D01*
X153930350Y-65493628D02*
X153977969Y-65541247D01*
X153977969Y-65541247D02*
X154025588Y-65636485D01*
X154025588Y-65636485D02*
X154025588Y-65779342D01*
X154025588Y-65779342D02*
X153977969Y-65874580D01*
X153977969Y-65874580D02*
X153930350Y-65922200D01*
X153930350Y-65922200D02*
X153835112Y-65969819D01*
X153835112Y-65969819D02*
X153454160Y-65969819D01*
X153454160Y-65969819D02*
X153454160Y-64969819D01*
X153454160Y-64969819D02*
X153787493Y-64969819D01*
X153787493Y-64969819D02*
X153882731Y-65017438D01*
X153882731Y-65017438D02*
X153930350Y-65065057D01*
X153930350Y-65065057D02*
X153977969Y-65160295D01*
X153977969Y-65160295D02*
X153977969Y-65255533D01*
X153977969Y-65255533D02*
X153930350Y-65350771D01*
X153930350Y-65350771D02*
X153882731Y-65398390D01*
X153882731Y-65398390D02*
X153787493Y-65446009D01*
X153787493Y-65446009D02*
X153454160Y-65446009D01*
X154406541Y-64969819D02*
X154739874Y-65636485D01*
X155073207Y-64969819D02*
X154644636Y-65826961D01*
X154644636Y-65826961D02*
X154549398Y-65922200D01*
X154549398Y-65922200D02*
X154454160Y-65969819D01*
X154454160Y-65969819D02*
X154406541Y-65969819D01*
X155406541Y-65969819D02*
X155406541Y-64969819D01*
X155977969Y-65969819D02*
X155549398Y-65398390D01*
X155977969Y-64969819D02*
X155406541Y-65541247D01*
X157739874Y-65969819D02*
X157739874Y-64969819D01*
X157739874Y-64969819D02*
X157597017Y-64969819D01*
X157597017Y-64969819D02*
X157454160Y-65017438D01*
X157454160Y-65017438D02*
X157358922Y-65112676D01*
X157358922Y-65112676D02*
X157311303Y-65255533D01*
X157311303Y-65255533D02*
X157216065Y-65826961D01*
X157216065Y-65826961D02*
X157168446Y-65922200D01*
X157168446Y-65922200D02*
X157073208Y-65969819D01*
X157073208Y-65969819D02*
X157025589Y-65969819D01*
X119601779Y-132679819D02*
X119601779Y-131679819D01*
X119601779Y-131679819D02*
X119935112Y-132394104D01*
X119935112Y-132394104D02*
X120268445Y-131679819D01*
X120268445Y-131679819D02*
X120268445Y-132679819D01*
X120697017Y-132394104D02*
X121173207Y-132394104D01*
X120601779Y-132679819D02*
X120935112Y-131679819D01*
X120935112Y-131679819D02*
X121268445Y-132679819D01*
X121601779Y-132679819D02*
X121601779Y-131679819D01*
X121601779Y-132156009D02*
X122173207Y-132156009D01*
X122173207Y-132679819D02*
X122173207Y-131679819D01*
X122649398Y-131679819D02*
X122649398Y-132679819D01*
X122649398Y-132679819D02*
X123220826Y-131679819D01*
X123220826Y-131679819D02*
X123220826Y-132679819D01*
X123697017Y-132679819D02*
X123697017Y-131679819D01*
X123697017Y-131679819D02*
X124268445Y-131679819D01*
X124268445Y-131679819D02*
X124268445Y-132679819D01*
X124697017Y-131679819D02*
X125030350Y-132346485D01*
X125363683Y-131679819D02*
X124935112Y-132536961D01*
X124935112Y-132536961D02*
X124839874Y-132632200D01*
X124839874Y-132632200D02*
X124744636Y-132679819D01*
X124744636Y-132679819D02*
X124697017Y-132679819D01*
X126268445Y-132679819D02*
X126268445Y-131679819D01*
X126268445Y-131679819D02*
X126125588Y-131679819D01*
X126125588Y-131679819D02*
X125982731Y-131727438D01*
X125982731Y-131727438D02*
X125887493Y-131822676D01*
X125887493Y-131822676D02*
X125839874Y-131965533D01*
X125839874Y-131965533D02*
X125744636Y-132536961D01*
X125744636Y-132536961D02*
X125697017Y-132632200D01*
X125697017Y-132632200D02*
X125601779Y-132679819D01*
X125601779Y-132679819D02*
X125554160Y-132679819D01*
X127030350Y-132203628D02*
X126697017Y-132679819D01*
X127268445Y-132679819D02*
X127268445Y-131679819D01*
X127268445Y-131679819D02*
X126887493Y-131679819D01*
X126887493Y-131679819D02*
X126792255Y-131727438D01*
X126792255Y-131727438D02*
X126744636Y-131775057D01*
X126744636Y-131775057D02*
X126697017Y-131870295D01*
X126697017Y-131870295D02*
X126697017Y-132013152D01*
X126697017Y-132013152D02*
X126744636Y-132108390D01*
X126744636Y-132108390D02*
X126792255Y-132156009D01*
X126792255Y-132156009D02*
X126887493Y-132203628D01*
X126887493Y-132203628D02*
X127268445Y-132203628D01*
X127601779Y-131679819D02*
X128173207Y-131679819D01*
X127887493Y-132679819D02*
X127887493Y-131679819D01*
X128697017Y-131679819D02*
X128887493Y-131679819D01*
X128887493Y-131679819D02*
X128982731Y-131727438D01*
X128982731Y-131727438D02*
X129077969Y-131822676D01*
X129077969Y-131822676D02*
X129125588Y-132013152D01*
X129125588Y-132013152D02*
X129125588Y-132346485D01*
X129125588Y-132346485D02*
X129077969Y-132536961D01*
X129077969Y-132536961D02*
X128982731Y-132632200D01*
X128982731Y-132632200D02*
X128887493Y-132679819D01*
X128887493Y-132679819D02*
X128697017Y-132679819D01*
X128697017Y-132679819D02*
X128601779Y-132632200D01*
X128601779Y-132632200D02*
X128506541Y-132536961D01*
X128506541Y-132536961D02*
X128458922Y-132346485D01*
X128458922Y-132346485D02*
X128458922Y-132013152D01*
X128458922Y-132013152D02*
X128506541Y-131822676D01*
X128506541Y-131822676D02*
X128601779Y-131727438D01*
X128601779Y-131727438D02*
X128697017Y-131679819D01*
X129554160Y-132679819D02*
X129554160Y-131679819D01*
X129554160Y-131679819D02*
X129935112Y-131679819D01*
X129935112Y-131679819D02*
X130030350Y-131727438D01*
X130030350Y-131727438D02*
X130077969Y-131775057D01*
X130077969Y-131775057D02*
X130125588Y-131870295D01*
X130125588Y-131870295D02*
X130125588Y-132013152D01*
X130125588Y-132013152D02*
X130077969Y-132108390D01*
X130077969Y-132108390D02*
X130030350Y-132156009D01*
X130030350Y-132156009D02*
X129935112Y-132203628D01*
X129935112Y-132203628D02*
X129554160Y-132203628D01*
X131839874Y-132679819D02*
X131268446Y-132679819D01*
X131554160Y-132679819D02*
X131554160Y-131679819D01*
X131554160Y-131679819D02*
X131458922Y-131822676D01*
X131458922Y-131822676D02*
X131363684Y-131917914D01*
X131363684Y-131917914D02*
X131268446Y-131965533D01*
X176725112Y-65246009D02*
X176867969Y-65293628D01*
X176867969Y-65293628D02*
X176915588Y-65341247D01*
X176915588Y-65341247D02*
X176963207Y-65436485D01*
X176963207Y-65436485D02*
X176963207Y-65579342D01*
X176963207Y-65579342D02*
X176915588Y-65674580D01*
X176915588Y-65674580D02*
X176867969Y-65722200D01*
X176867969Y-65722200D02*
X176772731Y-65769819D01*
X176772731Y-65769819D02*
X176391779Y-65769819D01*
X176391779Y-65769819D02*
X176391779Y-64769819D01*
X176391779Y-64769819D02*
X176725112Y-64769819D01*
X176725112Y-64769819D02*
X176820350Y-64817438D01*
X176820350Y-64817438D02*
X176867969Y-64865057D01*
X176867969Y-64865057D02*
X176915588Y-64960295D01*
X176915588Y-64960295D02*
X176915588Y-65055533D01*
X176915588Y-65055533D02*
X176867969Y-65150771D01*
X176867969Y-65150771D02*
X176820350Y-65198390D01*
X176820350Y-65198390D02*
X176725112Y-65246009D01*
X176725112Y-65246009D02*
X176391779Y-65246009D01*
X177391779Y-64769819D02*
X177391779Y-65769819D01*
X177391779Y-65769819D02*
X177963207Y-64769819D01*
X177963207Y-64769819D02*
X177963207Y-65769819D01*
X179201303Y-66007914D02*
X179201303Y-65769819D01*
X179201303Y-65769819D02*
X178344160Y-65769819D01*
X178344160Y-65769819D02*
X178344160Y-66007914D01*
X179010826Y-65769819D02*
X179010826Y-64769819D01*
X179010826Y-64769819D02*
X178772731Y-64769819D01*
X178772731Y-64769819D02*
X178677493Y-64817438D01*
X178677493Y-64817438D02*
X178629874Y-64865057D01*
X178629874Y-64865057D02*
X178582255Y-64960295D01*
X178582255Y-64960295D02*
X178487017Y-65769819D01*
X179582255Y-65246009D02*
X179915588Y-65246009D01*
X180058445Y-65769819D02*
X179582255Y-65769819D01*
X179582255Y-65769819D02*
X179582255Y-64769819D01*
X179582255Y-64769819D02*
X180058445Y-64769819D01*
X180677493Y-64769819D02*
X180867969Y-64769819D01*
X180867969Y-64769819D02*
X180963207Y-64817438D01*
X180963207Y-64817438D02*
X181058445Y-64912676D01*
X181058445Y-64912676D02*
X181106064Y-65103152D01*
X181106064Y-65103152D02*
X181106064Y-65436485D01*
X181106064Y-65436485D02*
X181058445Y-65626961D01*
X181058445Y-65626961D02*
X180963207Y-65722200D01*
X180963207Y-65722200D02*
X180867969Y-65769819D01*
X180867969Y-65769819D02*
X180677493Y-65769819D01*
X180677493Y-65769819D02*
X180582255Y-65722200D01*
X180582255Y-65722200D02*
X180487017Y-65626961D01*
X180487017Y-65626961D02*
X180439398Y-65436485D01*
X180439398Y-65436485D02*
X180439398Y-65103152D01*
X180439398Y-65103152D02*
X180487017Y-64912676D01*
X180487017Y-64912676D02*
X180582255Y-64817438D01*
X180582255Y-64817438D02*
X180677493Y-64769819D01*
X184271779Y-129769875D02*
X184271779Y-130769875D01*
X184271779Y-130769875D02*
X184843207Y-129769875D01*
X184843207Y-129769875D02*
X184843207Y-130769875D01*
X185319398Y-130769875D02*
X185319398Y-129769875D01*
X185319398Y-130246065D02*
X185890826Y-130246065D01*
X185890826Y-130769875D02*
X185890826Y-129769875D01*
X187128922Y-131007970D02*
X187128922Y-130769875D01*
X187128922Y-130769875D02*
X186271779Y-130769875D01*
X186271779Y-130769875D02*
X186271779Y-131007970D01*
X186938445Y-130769875D02*
X186938445Y-129769875D01*
X186938445Y-129769875D02*
X186700350Y-129769875D01*
X186700350Y-129769875D02*
X186605112Y-129817494D01*
X186605112Y-129817494D02*
X186557493Y-129865113D01*
X186557493Y-129865113D02*
X186509874Y-129960351D01*
X186509874Y-129960351D02*
X186414636Y-130769875D01*
X184271779Y-132379819D02*
X184271779Y-131379819D01*
X184271779Y-131379819D02*
X184843207Y-131379819D01*
X184843207Y-131379819D02*
X184843207Y-132379819D01*
X185319398Y-131379819D02*
X185319398Y-132379819D01*
X185319398Y-132379819D02*
X185890826Y-131379819D01*
X185890826Y-131379819D02*
X185890826Y-132379819D01*
X186224160Y-131379819D02*
X186795588Y-131379819D01*
X186509874Y-132379819D02*
X186509874Y-131379819D01*
X187081303Y-132094104D02*
X187557493Y-132094104D01*
X186986065Y-132379819D02*
X187319398Y-131379819D01*
X187319398Y-131379819D02*
X187652731Y-132379819D01*
X187986065Y-132379819D02*
X187986065Y-131379819D01*
X187986065Y-131856009D02*
X188557493Y-131856009D01*
X188557493Y-132379819D02*
X188557493Y-131379819D01*
X189033684Y-131379819D02*
X189033684Y-132379819D01*
X189033684Y-132379819D02*
X189605112Y-131379819D01*
X189605112Y-131379819D02*
X189605112Y-132379819D01*
X190367017Y-131903628D02*
X190033684Y-132379819D01*
X190605112Y-132379819D02*
X190605112Y-131379819D01*
X190605112Y-131379819D02*
X190224160Y-131379819D01*
X190224160Y-131379819D02*
X190128922Y-131427438D01*
X190128922Y-131427438D02*
X190081303Y-131475057D01*
X190081303Y-131475057D02*
X190033684Y-131570295D01*
X190033684Y-131570295D02*
X190033684Y-131713152D01*
X190033684Y-131713152D02*
X190081303Y-131808390D01*
X190081303Y-131808390D02*
X190128922Y-131856009D01*
X190128922Y-131856009D02*
X190224160Y-131903628D01*
X190224160Y-131903628D02*
X190605112Y-131903628D01*
X163007017Y-65256009D02*
X163197493Y-65256009D01*
X162864160Y-64827438D02*
X162959398Y-64779819D01*
X162959398Y-64779819D02*
X163197493Y-64779819D01*
X163197493Y-64779819D02*
X163292731Y-64827438D01*
X163292731Y-64827438D02*
X163340350Y-64875057D01*
X163340350Y-64875057D02*
X163387969Y-64970295D01*
X163387969Y-64970295D02*
X163387969Y-65065533D01*
X163387969Y-65065533D02*
X163340350Y-65160771D01*
X163340350Y-65160771D02*
X163292731Y-65208390D01*
X163292731Y-65208390D02*
X163197493Y-65256009D01*
X163197493Y-65256009D02*
X163340350Y-65303628D01*
X163340350Y-65303628D02*
X163387969Y-65351247D01*
X163387969Y-65351247D02*
X163435588Y-65446485D01*
X163435588Y-65446485D02*
X163435588Y-65589342D01*
X163435588Y-65589342D02*
X163387969Y-65684580D01*
X163387969Y-65684580D02*
X163340350Y-65732200D01*
X163340350Y-65732200D02*
X163245112Y-65779819D01*
X163245112Y-65779819D02*
X162959398Y-65779819D01*
X162959398Y-65779819D02*
X162864160Y-65732200D01*
X164197493Y-65256009D02*
X164340350Y-65303628D01*
X164340350Y-65303628D02*
X164387969Y-65351247D01*
X164387969Y-65351247D02*
X164435588Y-65446485D01*
X164435588Y-65446485D02*
X164435588Y-65589342D01*
X164435588Y-65589342D02*
X164387969Y-65684580D01*
X164387969Y-65684580D02*
X164340350Y-65732200D01*
X164340350Y-65732200D02*
X164245112Y-65779819D01*
X164245112Y-65779819D02*
X163864160Y-65779819D01*
X163864160Y-65779819D02*
X163864160Y-64779819D01*
X163864160Y-64779819D02*
X164197493Y-64779819D01*
X164197493Y-64779819D02*
X164292731Y-64827438D01*
X164292731Y-64827438D02*
X164340350Y-64875057D01*
X164340350Y-64875057D02*
X164387969Y-64970295D01*
X164387969Y-64970295D02*
X164387969Y-65065533D01*
X164387969Y-65065533D02*
X164340350Y-65160771D01*
X164340350Y-65160771D02*
X164292731Y-65208390D01*
X164292731Y-65208390D02*
X164197493Y-65256009D01*
X164197493Y-65256009D02*
X163864160Y-65256009D01*
X164816541Y-64779819D02*
X165149874Y-65446485D01*
X165483207Y-64779819D02*
X165054636Y-65636961D01*
X165054636Y-65636961D02*
X164959398Y-65732200D01*
X164959398Y-65732200D02*
X164864160Y-65779819D01*
X164864160Y-65779819D02*
X164816541Y-65779819D01*
X165816541Y-65779819D02*
X165816541Y-64779819D01*
X166387969Y-65779819D02*
X165959398Y-65208390D01*
X166387969Y-64779819D02*
X165816541Y-65351247D01*
X167578446Y-65779819D02*
X167578446Y-64779819D01*
X167578446Y-64779819D02*
X168149874Y-64779819D01*
X168149874Y-64779819D02*
X168149874Y-65779819D01*
X170681779Y-132319819D02*
X170681779Y-131319819D01*
X170681779Y-131319819D02*
X171015112Y-132034104D01*
X171015112Y-132034104D02*
X171348445Y-131319819D01*
X171348445Y-131319819D02*
X171348445Y-132319819D01*
X171777017Y-132034104D02*
X172253207Y-132034104D01*
X171681779Y-132319819D02*
X172015112Y-131319819D01*
X172015112Y-131319819D02*
X172348445Y-132319819D01*
X172681779Y-132319819D02*
X172681779Y-131319819D01*
X172681779Y-131796009D02*
X173253207Y-131796009D01*
X173253207Y-132319819D02*
X173253207Y-131319819D01*
X173729398Y-131319819D02*
X173729398Y-132319819D01*
X173729398Y-132319819D02*
X174300826Y-131319819D01*
X174300826Y-131319819D02*
X174300826Y-132319819D01*
X174777017Y-132319819D02*
X174777017Y-131319819D01*
X174777017Y-131319819D02*
X175348445Y-131319819D01*
X175348445Y-131319819D02*
X175348445Y-132319819D01*
X175777017Y-131319819D02*
X176110350Y-131986485D01*
X176443683Y-131319819D02*
X176015112Y-132176961D01*
X176015112Y-132176961D02*
X175919874Y-132272200D01*
X175919874Y-132272200D02*
X175824636Y-132319819D01*
X175824636Y-132319819D02*
X175777017Y-132319819D01*
X177348445Y-132319819D02*
X177348445Y-131319819D01*
X177348445Y-131319819D02*
X177205588Y-131319819D01*
X177205588Y-131319819D02*
X177062731Y-131367438D01*
X177062731Y-131367438D02*
X176967493Y-131462676D01*
X176967493Y-131462676D02*
X176919874Y-131605533D01*
X176919874Y-131605533D02*
X176824636Y-132176961D01*
X176824636Y-132176961D02*
X176777017Y-132272200D01*
X176777017Y-132272200D02*
X176681779Y-132319819D01*
X176681779Y-132319819D02*
X176634160Y-132319819D01*
X178110350Y-131843628D02*
X177777017Y-132319819D01*
X178348445Y-132319819D02*
X178348445Y-131319819D01*
X178348445Y-131319819D02*
X177967493Y-131319819D01*
X177967493Y-131319819D02*
X177872255Y-131367438D01*
X177872255Y-131367438D02*
X177824636Y-131415057D01*
X177824636Y-131415057D02*
X177777017Y-131510295D01*
X177777017Y-131510295D02*
X177777017Y-131653152D01*
X177777017Y-131653152D02*
X177824636Y-131748390D01*
X177824636Y-131748390D02*
X177872255Y-131796009D01*
X177872255Y-131796009D02*
X177967493Y-131843628D01*
X177967493Y-131843628D02*
X178348445Y-131843628D01*
X178681779Y-131319819D02*
X179253207Y-131319819D01*
X178967493Y-132319819D02*
X178967493Y-131319819D01*
X179777017Y-131319819D02*
X179967493Y-131319819D01*
X179967493Y-131319819D02*
X180062731Y-131367438D01*
X180062731Y-131367438D02*
X180157969Y-131462676D01*
X180157969Y-131462676D02*
X180205588Y-131653152D01*
X180205588Y-131653152D02*
X180205588Y-131986485D01*
X180205588Y-131986485D02*
X180157969Y-132176961D01*
X180157969Y-132176961D02*
X180062731Y-132272200D01*
X180062731Y-132272200D02*
X179967493Y-132319819D01*
X179967493Y-132319819D02*
X179777017Y-132319819D01*
X179777017Y-132319819D02*
X179681779Y-132272200D01*
X179681779Y-132272200D02*
X179586541Y-132176961D01*
X179586541Y-132176961D02*
X179538922Y-131986485D01*
X179538922Y-131986485D02*
X179538922Y-131653152D01*
X179538922Y-131653152D02*
X179586541Y-131462676D01*
X179586541Y-131462676D02*
X179681779Y-131367438D01*
X179681779Y-131367438D02*
X179777017Y-131319819D01*
X180634160Y-132319819D02*
X180634160Y-131319819D01*
X180634160Y-131319819D02*
X181015112Y-131319819D01*
X181015112Y-131319819D02*
X181110350Y-131367438D01*
X181110350Y-131367438D02*
X181157969Y-131415057D01*
X181157969Y-131415057D02*
X181205588Y-131510295D01*
X181205588Y-131510295D02*
X181205588Y-131653152D01*
X181205588Y-131653152D02*
X181157969Y-131748390D01*
X181157969Y-131748390D02*
X181110350Y-131796009D01*
X181110350Y-131796009D02*
X181015112Y-131843628D01*
X181015112Y-131843628D02*
X180634160Y-131843628D01*
X182348446Y-131415057D02*
X182396065Y-131367438D01*
X182396065Y-131367438D02*
X182491303Y-131319819D01*
X182491303Y-131319819D02*
X182729398Y-131319819D01*
X182729398Y-131319819D02*
X182824636Y-131367438D01*
X182824636Y-131367438D02*
X182872255Y-131415057D01*
X182872255Y-131415057D02*
X182919874Y-131510295D01*
X182919874Y-131510295D02*
X182919874Y-131605533D01*
X182919874Y-131605533D02*
X182872255Y-131748390D01*
X182872255Y-131748390D02*
X182300827Y-132319819D01*
X182300827Y-132319819D02*
X182919874Y-132319819D01*
D11*
G36*
X158431297Y-76620554D02*
G01*
X159083060Y-76620554D01*
X159083060Y-78519787D01*
X158184002Y-78519787D01*
X158184002Y-77535000D01*
X155104344Y-77535000D01*
X155104344Y-78519787D01*
X154205286Y-78519787D01*
X154205286Y-76620554D01*
X154551500Y-76620554D01*
X155955041Y-76620554D01*
X157240980Y-76620554D01*
X157240980Y-73806877D01*
X156241905Y-73806877D01*
X156241905Y-74088244D01*
X156240784Y-74329719D01*
X156237422Y-74560099D01*
X156228178Y-74884868D01*
X156213891Y-75184675D01*
X156194561Y-75459522D01*
X156170189Y-75709406D01*
X156140774Y-75934330D01*
X156093711Y-76195399D01*
X156037683Y-76412092D01*
X155955041Y-76620554D01*
X154551500Y-76620554D01*
X154730017Y-76476835D01*
X154873822Y-76296181D01*
X154962561Y-76091891D01*
X154997678Y-75872840D01*
X155017481Y-75617134D01*
X155030155Y-75353025D01*
X155037812Y-75120210D01*
X155043885Y-74857622D01*
X155048374Y-74565263D01*
X155051278Y-74243131D01*
X155052334Y-74011836D01*
X155052686Y-73767309D01*
X155052686Y-72892431D01*
X158431297Y-72892431D01*
X158431297Y-76620554D01*
G37*
G36*
X161873560Y-74029790D02*
G01*
X162104766Y-74065451D01*
X162319980Y-74124887D01*
X162557127Y-74227592D01*
X162771244Y-74364532D01*
X162932083Y-74504801D01*
X163098672Y-74698490D01*
X163230795Y-74915209D01*
X163328451Y-75154957D01*
X163383503Y-75372339D01*
X163414619Y-75605714D01*
X163422278Y-75803928D01*
X163422278Y-76128161D01*
X160835013Y-76128161D01*
X160879965Y-76351070D01*
X160974536Y-76552634D01*
X161116381Y-76708482D01*
X161323955Y-76826359D01*
X161538257Y-76883031D01*
X161763248Y-76901733D01*
X161790125Y-76901922D01*
X162010180Y-76891725D01*
X162233455Y-76861135D01*
X162459949Y-76810152D01*
X162505635Y-76797508D01*
X162736423Y-76721151D01*
X162947619Y-76634627D01*
X163162119Y-76531236D01*
X163258513Y-76479870D01*
X163258513Y-77323974D01*
X163037802Y-77397100D01*
X162817090Y-77459445D01*
X162596378Y-77511011D01*
X162473761Y-77535000D01*
X162252962Y-77569003D01*
X162031990Y-77591878D01*
X161810844Y-77603624D01*
X161687909Y-77605341D01*
X161459779Y-77597974D01*
X161192970Y-77568044D01*
X160946554Y-77515091D01*
X160720532Y-77439115D01*
X160514903Y-77340117D01*
X160329667Y-77218095D01*
X160228314Y-77133831D01*
X160051266Y-76943683D01*
X159910848Y-76726874D01*
X159821815Y-76525834D01*
X159758220Y-76306278D01*
X159720063Y-76068208D01*
X159707344Y-75811622D01*
X159719822Y-75559281D01*
X159741257Y-75424741D01*
X160847103Y-75424741D01*
X162284717Y-75424741D01*
X162258751Y-75204648D01*
X162162821Y-74991630D01*
X162100069Y-74914762D01*
X161917796Y-74782528D01*
X161692186Y-74724344D01*
X161619766Y-74721322D01*
X161395911Y-74746824D01*
X161191425Y-74832009D01*
X161097697Y-74902672D01*
X160959308Y-75076321D01*
X160876000Y-75283303D01*
X160847103Y-75424741D01*
X159741257Y-75424741D01*
X159757254Y-75324329D01*
X159819642Y-75106764D01*
X159927447Y-74868639D01*
X160071188Y-74655552D01*
X160218422Y-74497107D01*
X160423974Y-74334252D01*
X160615870Y-74224279D01*
X160826495Y-74137704D01*
X161055851Y-74074527D01*
X161303935Y-74034750D01*
X161570750Y-74018370D01*
X161626360Y-74017903D01*
X161873560Y-74029790D01*
G37*
G36*
X167720830Y-75456615D02*
G01*
X167720830Y-77535000D01*
X166607449Y-77535000D01*
X166607449Y-77196479D01*
X166607449Y-75943513D01*
X166605797Y-75716716D01*
X166598455Y-75481939D01*
X166586566Y-75334616D01*
X166534827Y-75120125D01*
X166517323Y-75087320D01*
X166355164Y-74928960D01*
X166341468Y-74921357D01*
X166123642Y-74862933D01*
X166088677Y-74862006D01*
X165868188Y-74893175D01*
X165667646Y-74998276D01*
X165544626Y-75125788D01*
X165431991Y-75331035D01*
X165370167Y-75559097D01*
X165347562Y-75798124D01*
X165346789Y-75855586D01*
X165346789Y-77535000D01*
X164240003Y-77535000D01*
X164240003Y-74088244D01*
X165346789Y-74088244D01*
X165346789Y-74580638D01*
X165506416Y-74414894D01*
X165688946Y-74267039D01*
X165878750Y-74155289D01*
X166097968Y-74071569D01*
X166333569Y-74026489D01*
X166499738Y-74017903D01*
X166748399Y-74035521D01*
X166969291Y-74088378D01*
X167187736Y-74191933D01*
X167369910Y-74341512D01*
X167409787Y-74386099D01*
X167545868Y-74591079D01*
X167633045Y-74804698D01*
X167690455Y-75050294D01*
X167715970Y-75286256D01*
X167720830Y-75456615D01*
G37*
G36*
X172191939Y-77535000D02*
G01*
X171079658Y-77535000D01*
X171079658Y-77042606D01*
X170932160Y-77209509D01*
X170759252Y-77358143D01*
X170575174Y-77470153D01*
X170356884Y-77552533D01*
X170135332Y-77594648D01*
X169938799Y-77605341D01*
X169706959Y-77587722D01*
X169491194Y-77534862D01*
X169259783Y-77428654D01*
X169078845Y-77299442D01*
X168913981Y-77134990D01*
X168888066Y-77104155D01*
X168748370Y-76905674D01*
X168637576Y-76686946D01*
X168555685Y-76447971D01*
X168502697Y-76188748D01*
X168480619Y-75957263D01*
X168477006Y-75811622D01*
X169623360Y-75811622D01*
X169635037Y-76045797D01*
X169676092Y-76273938D01*
X169756378Y-76483581D01*
X169810205Y-76571095D01*
X169973678Y-76729828D01*
X170183828Y-76815300D01*
X170349860Y-76831580D01*
X170574682Y-76800800D01*
X170774322Y-76697013D01*
X170892812Y-76571095D01*
X170999190Y-76363333D01*
X171057579Y-76125998D01*
X171078015Y-75902899D01*
X171079658Y-75811622D01*
X171067980Y-75577515D01*
X171026925Y-75349617D01*
X170946639Y-75140445D01*
X170892812Y-75053248D01*
X170728875Y-74893845D01*
X170517334Y-74808013D01*
X170349860Y-74791664D01*
X170126915Y-74822574D01*
X169928434Y-74926799D01*
X169810205Y-75053248D01*
X169703827Y-75260384D01*
X169645438Y-75497376D01*
X169625002Y-75720354D01*
X169623360Y-75811622D01*
X168477006Y-75811622D01*
X168487041Y-75571727D01*
X168517148Y-75345946D01*
X168579771Y-75093640D01*
X168671296Y-74861658D01*
X168791724Y-74650001D01*
X168888066Y-74520188D01*
X169050251Y-74349489D01*
X169228510Y-74214108D01*
X169456796Y-74100799D01*
X169669882Y-74041938D01*
X169899043Y-74018393D01*
X169938799Y-74017903D01*
X170175523Y-74034137D01*
X170393025Y-74082839D01*
X170574075Y-74155289D01*
X170775003Y-74278989D01*
X170947238Y-74430126D01*
X171079658Y-74580638D01*
X171079658Y-72751748D01*
X172191939Y-72751748D01*
X172191939Y-77535000D01*
G37*
G36*
X176602599Y-74088244D02*
G01*
X176602599Y-77535000D01*
X175495812Y-77535000D01*
X175495812Y-75700614D01*
X174380233Y-77535000D01*
X173230582Y-77535000D01*
X173230582Y-74088244D01*
X174337369Y-74088244D01*
X174337369Y-75922630D01*
X175452948Y-74088244D01*
X176602599Y-74088244D01*
G37*
D10*
X156841033Y-96810000D02*
X156507700Y-97043333D01*
X156841033Y-97210000D02*
X156141033Y-97210000D01*
X156141033Y-97210000D02*
X156141033Y-96943333D01*
X156141033Y-96943333D02*
X156174366Y-96876667D01*
X156174366Y-96876667D02*
X156207700Y-96843333D01*
X156207700Y-96843333D02*
X156274366Y-96810000D01*
X156274366Y-96810000D02*
X156374366Y-96810000D01*
X156374366Y-96810000D02*
X156441033Y-96843333D01*
X156441033Y-96843333D02*
X156474366Y-96876667D01*
X156474366Y-96876667D02*
X156507700Y-96943333D01*
X156507700Y-96943333D02*
X156507700Y-97210000D01*
X156841033Y-96143333D02*
X156841033Y-96543333D01*
X156841033Y-96343333D02*
X156141033Y-96343333D01*
X156141033Y-96343333D02*
X156241033Y-96410000D01*
X156241033Y-96410000D02*
X156307700Y-96476667D01*
X156307700Y-96476667D02*
X156341033Y-96543333D01*
X156141033Y-95510000D02*
X156141033Y-95843333D01*
X156141033Y-95843333D02*
X156474366Y-95876666D01*
X156474366Y-95876666D02*
X156441033Y-95843333D01*
X156441033Y-95843333D02*
X156407700Y-95776666D01*
X156407700Y-95776666D02*
X156407700Y-95610000D01*
X156407700Y-95610000D02*
X156441033Y-95543333D01*
X156441033Y-95543333D02*
X156474366Y-95510000D01*
X156474366Y-95510000D02*
X156541033Y-95476666D01*
X156541033Y-95476666D02*
X156707700Y-95476666D01*
X156707700Y-95476666D02*
X156774366Y-95510000D01*
X156774366Y-95510000D02*
X156807700Y-95543333D01*
X156807700Y-95543333D02*
X156841033Y-95610000D01*
X156841033Y-95610000D02*
X156841033Y-95776666D01*
X156841033Y-95776666D02*
X156807700Y-95843333D01*
X156807700Y-95843333D02*
X156774366Y-95876666D01*
X173138333Y-132616033D02*
X173604999Y-133316033D01*
X173604999Y-132616033D02*
X173138333Y-133316033D01*
X174205000Y-132616033D02*
X173871666Y-132616033D01*
X173871666Y-132616033D02*
X173838333Y-132949366D01*
X173838333Y-132949366D02*
X173871666Y-132916033D01*
X173871666Y-132916033D02*
X173938333Y-132882700D01*
X173938333Y-132882700D02*
X174105000Y-132882700D01*
X174105000Y-132882700D02*
X174171666Y-132916033D01*
X174171666Y-132916033D02*
X174205000Y-132949366D01*
X174205000Y-132949366D02*
X174238333Y-133016033D01*
X174238333Y-133016033D02*
X174238333Y-133182700D01*
X174238333Y-133182700D02*
X174205000Y-133249366D01*
X174205000Y-133249366D02*
X174171666Y-133282700D01*
X174171666Y-133282700D02*
X174105000Y-133316033D01*
X174105000Y-133316033D02*
X173938333Y-133316033D01*
X173938333Y-133316033D02*
X173871666Y-133282700D01*
X173871666Y-133282700D02*
X173838333Y-133249366D01*
X191234366Y-67560000D02*
X191267700Y-67593333D01*
X191267700Y-67593333D02*
X191301033Y-67693333D01*
X191301033Y-67693333D02*
X191301033Y-67760000D01*
X191301033Y-67760000D02*
X191267700Y-67860000D01*
X191267700Y-67860000D02*
X191201033Y-67926667D01*
X191201033Y-67926667D02*
X191134366Y-67960000D01*
X191134366Y-67960000D02*
X191001033Y-67993333D01*
X191001033Y-67993333D02*
X190901033Y-67993333D01*
X190901033Y-67993333D02*
X190767700Y-67960000D01*
X190767700Y-67960000D02*
X190701033Y-67926667D01*
X190701033Y-67926667D02*
X190634366Y-67860000D01*
X190634366Y-67860000D02*
X190601033Y-67760000D01*
X190601033Y-67760000D02*
X190601033Y-67693333D01*
X190601033Y-67693333D02*
X190634366Y-67593333D01*
X190634366Y-67593333D02*
X190667700Y-67560000D01*
X190834366Y-66960000D02*
X191301033Y-66960000D01*
X190567700Y-67126667D02*
X191067700Y-67293333D01*
X191067700Y-67293333D02*
X191067700Y-66860000D01*
X190601033Y-66660000D02*
X190601033Y-66226666D01*
X190601033Y-66226666D02*
X190867700Y-66460000D01*
X190867700Y-66460000D02*
X190867700Y-66360000D01*
X190867700Y-66360000D02*
X190901033Y-66293333D01*
X190901033Y-66293333D02*
X190934366Y-66260000D01*
X190934366Y-66260000D02*
X191001033Y-66226666D01*
X191001033Y-66226666D02*
X191167700Y-66226666D01*
X191167700Y-66226666D02*
X191234366Y-66260000D01*
X191234366Y-66260000D02*
X191267700Y-66293333D01*
X191267700Y-66293333D02*
X191301033Y-66360000D01*
X191301033Y-66360000D02*
X191301033Y-66560000D01*
X191301033Y-66560000D02*
X191267700Y-66626666D01*
X191267700Y-66626666D02*
X191234366Y-66660000D01*
X142524999Y-59246033D02*
X142291666Y-58912700D01*
X142124999Y-59246033D02*
X142124999Y-58546033D01*
X142124999Y-58546033D02*
X142391666Y-58546033D01*
X142391666Y-58546033D02*
X142458333Y-58579366D01*
X142458333Y-58579366D02*
X142491666Y-58612700D01*
X142491666Y-58612700D02*
X142524999Y-58679366D01*
X142524999Y-58679366D02*
X142524999Y-58779366D01*
X142524999Y-58779366D02*
X142491666Y-58846033D01*
X142491666Y-58846033D02*
X142458333Y-58879366D01*
X142458333Y-58879366D02*
X142391666Y-58912700D01*
X142391666Y-58912700D02*
X142124999Y-58912700D01*
X142758333Y-58546033D02*
X143191666Y-58546033D01*
X143191666Y-58546033D02*
X142958333Y-58812700D01*
X142958333Y-58812700D02*
X143058333Y-58812700D01*
X143058333Y-58812700D02*
X143124999Y-58846033D01*
X143124999Y-58846033D02*
X143158333Y-58879366D01*
X143158333Y-58879366D02*
X143191666Y-58946033D01*
X143191666Y-58946033D02*
X143191666Y-59112700D01*
X143191666Y-59112700D02*
X143158333Y-59179366D01*
X143158333Y-59179366D02*
X143124999Y-59212700D01*
X143124999Y-59212700D02*
X143058333Y-59246033D01*
X143058333Y-59246033D02*
X142858333Y-59246033D01*
X142858333Y-59246033D02*
X142791666Y-59212700D01*
X142791666Y-59212700D02*
X142758333Y-59179366D01*
X143791666Y-58779366D02*
X143791666Y-59246033D01*
X143625000Y-58512700D02*
X143458333Y-59012700D01*
X143458333Y-59012700D02*
X143891666Y-59012700D01*
X135968333Y-104596033D02*
X135634999Y-104596033D01*
X135634999Y-104596033D02*
X135634999Y-103896033D01*
X136535000Y-103896033D02*
X136201666Y-103896033D01*
X136201666Y-103896033D02*
X136168333Y-104229366D01*
X136168333Y-104229366D02*
X136201666Y-104196033D01*
X136201666Y-104196033D02*
X136268333Y-104162700D01*
X136268333Y-104162700D02*
X136435000Y-104162700D01*
X136435000Y-104162700D02*
X136501666Y-104196033D01*
X136501666Y-104196033D02*
X136535000Y-104229366D01*
X136535000Y-104229366D02*
X136568333Y-104296033D01*
X136568333Y-104296033D02*
X136568333Y-104462700D01*
X136568333Y-104462700D02*
X136535000Y-104529366D01*
X136535000Y-104529366D02*
X136501666Y-104562700D01*
X136501666Y-104562700D02*
X136435000Y-104596033D01*
X136435000Y-104596033D02*
X136268333Y-104596033D01*
X136268333Y-104596033D02*
X136201666Y-104562700D01*
X136201666Y-104562700D02*
X136168333Y-104529366D01*
X136688333Y-63746033D02*
X136688333Y-63046033D01*
X136688333Y-63046033D02*
X136855000Y-63046033D01*
X136855000Y-63046033D02*
X136955000Y-63079366D01*
X136955000Y-63079366D02*
X137021667Y-63146033D01*
X137021667Y-63146033D02*
X137055000Y-63212700D01*
X137055000Y-63212700D02*
X137088333Y-63346033D01*
X137088333Y-63346033D02*
X137088333Y-63446033D01*
X137088333Y-63446033D02*
X137055000Y-63579366D01*
X137055000Y-63579366D02*
X137021667Y-63646033D01*
X137021667Y-63646033D02*
X136955000Y-63712700D01*
X136955000Y-63712700D02*
X136855000Y-63746033D01*
X136855000Y-63746033D02*
X136688333Y-63746033D01*
X137355000Y-63546033D02*
X137688333Y-63546033D01*
X137288333Y-63746033D02*
X137521667Y-63046033D01*
X137521667Y-63046033D02*
X137755000Y-63746033D01*
X137955000Y-63112700D02*
X137988333Y-63079366D01*
X137988333Y-63079366D02*
X138055000Y-63046033D01*
X138055000Y-63046033D02*
X138221667Y-63046033D01*
X138221667Y-63046033D02*
X138288333Y-63079366D01*
X138288333Y-63079366D02*
X138321667Y-63112700D01*
X138321667Y-63112700D02*
X138355000Y-63179366D01*
X138355000Y-63179366D02*
X138355000Y-63246033D01*
X138355000Y-63246033D02*
X138321667Y-63346033D01*
X138321667Y-63346033D02*
X137921667Y-63746033D01*
X137921667Y-63746033D02*
X138355000Y-63746033D01*
X128171666Y-55352700D02*
X128271666Y-55386033D01*
X128271666Y-55386033D02*
X128438333Y-55386033D01*
X128438333Y-55386033D02*
X128504999Y-55352700D01*
X128504999Y-55352700D02*
X128538333Y-55319366D01*
X128538333Y-55319366D02*
X128571666Y-55252700D01*
X128571666Y-55252700D02*
X128571666Y-55186033D01*
X128571666Y-55186033D02*
X128538333Y-55119366D01*
X128538333Y-55119366D02*
X128504999Y-55086033D01*
X128504999Y-55086033D02*
X128438333Y-55052700D01*
X128438333Y-55052700D02*
X128304999Y-55019366D01*
X128304999Y-55019366D02*
X128238333Y-54986033D01*
X128238333Y-54986033D02*
X128204999Y-54952700D01*
X128204999Y-54952700D02*
X128171666Y-54886033D01*
X128171666Y-54886033D02*
X128171666Y-54819366D01*
X128171666Y-54819366D02*
X128204999Y-54752700D01*
X128204999Y-54752700D02*
X128238333Y-54719366D01*
X128238333Y-54719366D02*
X128304999Y-54686033D01*
X128304999Y-54686033D02*
X128471666Y-54686033D01*
X128471666Y-54686033D02*
X128571666Y-54719366D01*
X128805000Y-54686033D02*
X128971666Y-55386033D01*
X128971666Y-55386033D02*
X129105000Y-54886033D01*
X129105000Y-54886033D02*
X129238333Y-55386033D01*
X129238333Y-55386033D02*
X129405000Y-54686033D01*
X129638333Y-54752700D02*
X129671666Y-54719366D01*
X129671666Y-54719366D02*
X129738333Y-54686033D01*
X129738333Y-54686033D02*
X129905000Y-54686033D01*
X129905000Y-54686033D02*
X129971666Y-54719366D01*
X129971666Y-54719366D02*
X130005000Y-54752700D01*
X130005000Y-54752700D02*
X130038333Y-54819366D01*
X130038333Y-54819366D02*
X130038333Y-54886033D01*
X130038333Y-54886033D02*
X130005000Y-54986033D01*
X130005000Y-54986033D02*
X129605000Y-55386033D01*
X129605000Y-55386033D02*
X130038333Y-55386033D01*
X160278333Y-64946033D02*
X160744999Y-65646033D01*
X160744999Y-64946033D02*
X160278333Y-65646033D01*
X161311666Y-65179366D02*
X161311666Y-65646033D01*
X161145000Y-64912700D02*
X160978333Y-65412700D01*
X160978333Y-65412700D02*
X161411666Y-65412700D01*
X132704999Y-65529366D02*
X132671666Y-65562700D01*
X132671666Y-65562700D02*
X132571666Y-65596033D01*
X132571666Y-65596033D02*
X132504999Y-65596033D01*
X132504999Y-65596033D02*
X132404999Y-65562700D01*
X132404999Y-65562700D02*
X132338333Y-65496033D01*
X132338333Y-65496033D02*
X132304999Y-65429366D01*
X132304999Y-65429366D02*
X132271666Y-65296033D01*
X132271666Y-65296033D02*
X132271666Y-65196033D01*
X132271666Y-65196033D02*
X132304999Y-65062700D01*
X132304999Y-65062700D02*
X132338333Y-64996033D01*
X132338333Y-64996033D02*
X132404999Y-64929366D01*
X132404999Y-64929366D02*
X132504999Y-64896033D01*
X132504999Y-64896033D02*
X132571666Y-64896033D01*
X132571666Y-64896033D02*
X132671666Y-64929366D01*
X132671666Y-64929366D02*
X132704999Y-64962700D01*
X132971666Y-64962700D02*
X133004999Y-64929366D01*
X133004999Y-64929366D02*
X133071666Y-64896033D01*
X133071666Y-64896033D02*
X133238333Y-64896033D01*
X133238333Y-64896033D02*
X133304999Y-64929366D01*
X133304999Y-64929366D02*
X133338333Y-64962700D01*
X133338333Y-64962700D02*
X133371666Y-65029366D01*
X133371666Y-65029366D02*
X133371666Y-65096033D01*
X133371666Y-65096033D02*
X133338333Y-65196033D01*
X133338333Y-65196033D02*
X132938333Y-65596033D01*
X132938333Y-65596033D02*
X133371666Y-65596033D01*
X133605000Y-64896033D02*
X134071666Y-64896033D01*
X134071666Y-64896033D02*
X133771666Y-65596033D01*
X190794999Y-72659366D02*
X190761666Y-72692700D01*
X190761666Y-72692700D02*
X190661666Y-72726033D01*
X190661666Y-72726033D02*
X190594999Y-72726033D01*
X190594999Y-72726033D02*
X190494999Y-72692700D01*
X190494999Y-72692700D02*
X190428333Y-72626033D01*
X190428333Y-72626033D02*
X190394999Y-72559366D01*
X190394999Y-72559366D02*
X190361666Y-72426033D01*
X190361666Y-72426033D02*
X190361666Y-72326033D01*
X190361666Y-72326033D02*
X190394999Y-72192700D01*
X190394999Y-72192700D02*
X190428333Y-72126033D01*
X190428333Y-72126033D02*
X190494999Y-72059366D01*
X190494999Y-72059366D02*
X190594999Y-72026033D01*
X190594999Y-72026033D02*
X190661666Y-72026033D01*
X190661666Y-72026033D02*
X190761666Y-72059366D01*
X190761666Y-72059366D02*
X190794999Y-72092700D01*
X191028333Y-72026033D02*
X191461666Y-72026033D01*
X191461666Y-72026033D02*
X191228333Y-72292700D01*
X191228333Y-72292700D02*
X191328333Y-72292700D01*
X191328333Y-72292700D02*
X191394999Y-72326033D01*
X191394999Y-72326033D02*
X191428333Y-72359366D01*
X191428333Y-72359366D02*
X191461666Y-72426033D01*
X191461666Y-72426033D02*
X191461666Y-72592700D01*
X191461666Y-72592700D02*
X191428333Y-72659366D01*
X191428333Y-72659366D02*
X191394999Y-72692700D01*
X191394999Y-72692700D02*
X191328333Y-72726033D01*
X191328333Y-72726033D02*
X191128333Y-72726033D01*
X191128333Y-72726033D02*
X191061666Y-72692700D01*
X191061666Y-72692700D02*
X191028333Y-72659366D01*
X191895000Y-72026033D02*
X191961666Y-72026033D01*
X191961666Y-72026033D02*
X192028333Y-72059366D01*
X192028333Y-72059366D02*
X192061666Y-72092700D01*
X192061666Y-72092700D02*
X192095000Y-72159366D01*
X192095000Y-72159366D02*
X192128333Y-72292700D01*
X192128333Y-72292700D02*
X192128333Y-72459366D01*
X192128333Y-72459366D02*
X192095000Y-72592700D01*
X192095000Y-72592700D02*
X192061666Y-72659366D01*
X192061666Y-72659366D02*
X192028333Y-72692700D01*
X192028333Y-72692700D02*
X191961666Y-72726033D01*
X191961666Y-72726033D02*
X191895000Y-72726033D01*
X191895000Y-72726033D02*
X191828333Y-72692700D01*
X191828333Y-72692700D02*
X191795000Y-72659366D01*
X191795000Y-72659366D02*
X191761666Y-72592700D01*
X191761666Y-72592700D02*
X191728333Y-72459366D01*
X191728333Y-72459366D02*
X191728333Y-72292700D01*
X191728333Y-72292700D02*
X191761666Y-72159366D01*
X191761666Y-72159366D02*
X191795000Y-72092700D01*
X191795000Y-72092700D02*
X191828333Y-72059366D01*
X191828333Y-72059366D02*
X191895000Y-72026033D01*
X160161033Y-97460000D02*
X159827700Y-97693333D01*
X160161033Y-97860000D02*
X159461033Y-97860000D01*
X159461033Y-97860000D02*
X159461033Y-97593333D01*
X159461033Y-97593333D02*
X159494366Y-97526667D01*
X159494366Y-97526667D02*
X159527700Y-97493333D01*
X159527700Y-97493333D02*
X159594366Y-97460000D01*
X159594366Y-97460000D02*
X159694366Y-97460000D01*
X159694366Y-97460000D02*
X159761033Y-97493333D01*
X159761033Y-97493333D02*
X159794366Y-97526667D01*
X159794366Y-97526667D02*
X159827700Y-97593333D01*
X159827700Y-97593333D02*
X159827700Y-97860000D01*
X160161033Y-96793333D02*
X160161033Y-97193333D01*
X160161033Y-96993333D02*
X159461033Y-96993333D01*
X159461033Y-96993333D02*
X159561033Y-97060000D01*
X159561033Y-97060000D02*
X159627700Y-97126667D01*
X159627700Y-97126667D02*
X159661033Y-97193333D01*
X159694366Y-96193333D02*
X160161033Y-96193333D01*
X159427700Y-96360000D02*
X159927700Y-96526666D01*
X159927700Y-96526666D02*
X159927700Y-96093333D01*
X116578333Y-132476033D02*
X117044999Y-133176033D01*
X117044999Y-132476033D02*
X116578333Y-133176033D01*
X117278333Y-132542700D02*
X117311666Y-132509366D01*
X117311666Y-132509366D02*
X117378333Y-132476033D01*
X117378333Y-132476033D02*
X117545000Y-132476033D01*
X117545000Y-132476033D02*
X117611666Y-132509366D01*
X117611666Y-132509366D02*
X117645000Y-132542700D01*
X117645000Y-132542700D02*
X117678333Y-132609366D01*
X117678333Y-132609366D02*
X117678333Y-132676033D01*
X117678333Y-132676033D02*
X117645000Y-132776033D01*
X117645000Y-132776033D02*
X117245000Y-133176033D01*
X117245000Y-133176033D02*
X117678333Y-133176033D01*
X147734999Y-85359366D02*
X147701666Y-85392700D01*
X147701666Y-85392700D02*
X147601666Y-85426033D01*
X147601666Y-85426033D02*
X147534999Y-85426033D01*
X147534999Y-85426033D02*
X147434999Y-85392700D01*
X147434999Y-85392700D02*
X147368333Y-85326033D01*
X147368333Y-85326033D02*
X147334999Y-85259366D01*
X147334999Y-85259366D02*
X147301666Y-85126033D01*
X147301666Y-85126033D02*
X147301666Y-85026033D01*
X147301666Y-85026033D02*
X147334999Y-84892700D01*
X147334999Y-84892700D02*
X147368333Y-84826033D01*
X147368333Y-84826033D02*
X147434999Y-84759366D01*
X147434999Y-84759366D02*
X147534999Y-84726033D01*
X147534999Y-84726033D02*
X147601666Y-84726033D01*
X147601666Y-84726033D02*
X147701666Y-84759366D01*
X147701666Y-84759366D02*
X147734999Y-84792700D01*
X148001666Y-84792700D02*
X148034999Y-84759366D01*
X148034999Y-84759366D02*
X148101666Y-84726033D01*
X148101666Y-84726033D02*
X148268333Y-84726033D01*
X148268333Y-84726033D02*
X148334999Y-84759366D01*
X148334999Y-84759366D02*
X148368333Y-84792700D01*
X148368333Y-84792700D02*
X148401666Y-84859366D01*
X148401666Y-84859366D02*
X148401666Y-84926033D01*
X148401666Y-84926033D02*
X148368333Y-85026033D01*
X148368333Y-85026033D02*
X147968333Y-85426033D01*
X147968333Y-85426033D02*
X148401666Y-85426033D01*
X148635000Y-84726033D02*
X149068333Y-84726033D01*
X149068333Y-84726033D02*
X148835000Y-84992700D01*
X148835000Y-84992700D02*
X148935000Y-84992700D01*
X148935000Y-84992700D02*
X149001666Y-85026033D01*
X149001666Y-85026033D02*
X149035000Y-85059366D01*
X149035000Y-85059366D02*
X149068333Y-85126033D01*
X149068333Y-85126033D02*
X149068333Y-85292700D01*
X149068333Y-85292700D02*
X149035000Y-85359366D01*
X149035000Y-85359366D02*
X149001666Y-85392700D01*
X149001666Y-85392700D02*
X148935000Y-85426033D01*
X148935000Y-85426033D02*
X148735000Y-85426033D01*
X148735000Y-85426033D02*
X148668333Y-85392700D01*
X148668333Y-85392700D02*
X148635000Y-85359366D01*
X149071033Y-96780000D02*
X148737700Y-97013333D01*
X149071033Y-97180000D02*
X148371033Y-97180000D01*
X148371033Y-97180000D02*
X148371033Y-96913333D01*
X148371033Y-96913333D02*
X148404366Y-96846667D01*
X148404366Y-96846667D02*
X148437700Y-96813333D01*
X148437700Y-96813333D02*
X148504366Y-96780000D01*
X148504366Y-96780000D02*
X148604366Y-96780000D01*
X148604366Y-96780000D02*
X148671033Y-96813333D01*
X148671033Y-96813333D02*
X148704366Y-96846667D01*
X148704366Y-96846667D02*
X148737700Y-96913333D01*
X148737700Y-96913333D02*
X148737700Y-97180000D01*
X149071033Y-96113333D02*
X149071033Y-96513333D01*
X149071033Y-96313333D02*
X148371033Y-96313333D01*
X148371033Y-96313333D02*
X148471033Y-96380000D01*
X148471033Y-96380000D02*
X148537700Y-96446667D01*
X148537700Y-96446667D02*
X148571033Y-96513333D01*
X148371033Y-95880000D02*
X148371033Y-95413333D01*
X148371033Y-95413333D02*
X149071033Y-95713333D01*
X116761905Y-97769819D02*
X116761905Y-96769819D01*
X116761905Y-96769819D02*
X117000000Y-96769819D01*
X117000000Y-96769819D02*
X117142857Y-96817438D01*
X117142857Y-96817438D02*
X117238095Y-96912676D01*
X117238095Y-96912676D02*
X117285714Y-97007914D01*
X117285714Y-97007914D02*
X117333333Y-97198390D01*
X117333333Y-97198390D02*
X117333333Y-97341247D01*
X117333333Y-97341247D02*
X117285714Y-97531723D01*
X117285714Y-97531723D02*
X117238095Y-97626961D01*
X117238095Y-97626961D02*
X117142857Y-97722200D01*
X117142857Y-97722200D02*
X117000000Y-97769819D01*
X117000000Y-97769819D02*
X116761905Y-97769819D01*
X117761905Y-97769819D02*
X117761905Y-96769819D01*
X117761905Y-96769819D02*
X118000000Y-96769819D01*
X118000000Y-96769819D02*
X118142857Y-96817438D01*
X118142857Y-96817438D02*
X118238095Y-96912676D01*
X118238095Y-96912676D02*
X118285714Y-97007914D01*
X118285714Y-97007914D02*
X118333333Y-97198390D01*
X118333333Y-97198390D02*
X118333333Y-97341247D01*
X118333333Y-97341247D02*
X118285714Y-97531723D01*
X118285714Y-97531723D02*
X118238095Y-97626961D01*
X118238095Y-97626961D02*
X118142857Y-97722200D01*
X118142857Y-97722200D02*
X118000000Y-97769819D01*
X118000000Y-97769819D02*
X117761905Y-97769819D01*
X119190476Y-96769819D02*
X119000000Y-96769819D01*
X119000000Y-96769819D02*
X118904762Y-96817438D01*
X118904762Y-96817438D02*
X118857143Y-96865057D01*
X118857143Y-96865057D02*
X118761905Y-97007914D01*
X118761905Y-97007914D02*
X118714286Y-97198390D01*
X118714286Y-97198390D02*
X118714286Y-97579342D01*
X118714286Y-97579342D02*
X118761905Y-97674580D01*
X118761905Y-97674580D02*
X118809524Y-97722200D01*
X118809524Y-97722200D02*
X118904762Y-97769819D01*
X118904762Y-97769819D02*
X119095238Y-97769819D01*
X119095238Y-97769819D02*
X119190476Y-97722200D01*
X119190476Y-97722200D02*
X119238095Y-97674580D01*
X119238095Y-97674580D02*
X119285714Y-97579342D01*
X119285714Y-97579342D02*
X119285714Y-97341247D01*
X119285714Y-97341247D02*
X119238095Y-97246009D01*
X119238095Y-97246009D02*
X119190476Y-97198390D01*
X119190476Y-97198390D02*
X119095238Y-97150771D01*
X119095238Y-97150771D02*
X118904762Y-97150771D01*
X118904762Y-97150771D02*
X118809524Y-97198390D01*
X118809524Y-97198390D02*
X118761905Y-97246009D01*
X118761905Y-97246009D02*
X118714286Y-97341247D01*
X105778333Y-62606033D02*
X106244999Y-63306033D01*
X106244999Y-62606033D02*
X105778333Y-63306033D01*
X106878333Y-63306033D02*
X106478333Y-63306033D01*
X106678333Y-63306033D02*
X106678333Y-62606033D01*
X106678333Y-62606033D02*
X106611666Y-62706033D01*
X106611666Y-62706033D02*
X106545000Y-62772700D01*
X106545000Y-62772700D02*
X106478333Y-62806033D01*
X160558333Y-119316033D02*
X160325000Y-118982700D01*
X160158333Y-119316033D02*
X160158333Y-118616033D01*
X160158333Y-118616033D02*
X160425000Y-118616033D01*
X160425000Y-118616033D02*
X160491667Y-118649366D01*
X160491667Y-118649366D02*
X160525000Y-118682700D01*
X160525000Y-118682700D02*
X160558333Y-118749366D01*
X160558333Y-118749366D02*
X160558333Y-118849366D01*
X160558333Y-118849366D02*
X160525000Y-118916033D01*
X160525000Y-118916033D02*
X160491667Y-118949366D01*
X160491667Y-118949366D02*
X160425000Y-118982700D01*
X160425000Y-118982700D02*
X160158333Y-118982700D01*
X160825000Y-118682700D02*
X160858333Y-118649366D01*
X160858333Y-118649366D02*
X160925000Y-118616033D01*
X160925000Y-118616033D02*
X161091667Y-118616033D01*
X161091667Y-118616033D02*
X161158333Y-118649366D01*
X161158333Y-118649366D02*
X161191667Y-118682700D01*
X161191667Y-118682700D02*
X161225000Y-118749366D01*
X161225000Y-118749366D02*
X161225000Y-118816033D01*
X161225000Y-118816033D02*
X161191667Y-118916033D01*
X161191667Y-118916033D02*
X160791667Y-119316033D01*
X160791667Y-119316033D02*
X161225000Y-119316033D01*
X136428333Y-102859366D02*
X136395000Y-102892700D01*
X136395000Y-102892700D02*
X136295000Y-102926033D01*
X136295000Y-102926033D02*
X136228333Y-102926033D01*
X136228333Y-102926033D02*
X136128333Y-102892700D01*
X136128333Y-102892700D02*
X136061667Y-102826033D01*
X136061667Y-102826033D02*
X136028333Y-102759366D01*
X136028333Y-102759366D02*
X135995000Y-102626033D01*
X135995000Y-102626033D02*
X135995000Y-102526033D01*
X135995000Y-102526033D02*
X136028333Y-102392700D01*
X136028333Y-102392700D02*
X136061667Y-102326033D01*
X136061667Y-102326033D02*
X136128333Y-102259366D01*
X136128333Y-102259366D02*
X136228333Y-102226033D01*
X136228333Y-102226033D02*
X136295000Y-102226033D01*
X136295000Y-102226033D02*
X136395000Y-102259366D01*
X136395000Y-102259366D02*
X136428333Y-102292700D01*
X136828333Y-102526033D02*
X136761667Y-102492700D01*
X136761667Y-102492700D02*
X136728333Y-102459366D01*
X136728333Y-102459366D02*
X136695000Y-102392700D01*
X136695000Y-102392700D02*
X136695000Y-102359366D01*
X136695000Y-102359366D02*
X136728333Y-102292700D01*
X136728333Y-102292700D02*
X136761667Y-102259366D01*
X136761667Y-102259366D02*
X136828333Y-102226033D01*
X136828333Y-102226033D02*
X136961667Y-102226033D01*
X136961667Y-102226033D02*
X137028333Y-102259366D01*
X137028333Y-102259366D02*
X137061667Y-102292700D01*
X137061667Y-102292700D02*
X137095000Y-102359366D01*
X137095000Y-102359366D02*
X137095000Y-102392700D01*
X137095000Y-102392700D02*
X137061667Y-102459366D01*
X137061667Y-102459366D02*
X137028333Y-102492700D01*
X137028333Y-102492700D02*
X136961667Y-102526033D01*
X136961667Y-102526033D02*
X136828333Y-102526033D01*
X136828333Y-102526033D02*
X136761667Y-102559366D01*
X136761667Y-102559366D02*
X136728333Y-102592700D01*
X136728333Y-102592700D02*
X136695000Y-102659366D01*
X136695000Y-102659366D02*
X136695000Y-102792700D01*
X136695000Y-102792700D02*
X136728333Y-102859366D01*
X136728333Y-102859366D02*
X136761667Y-102892700D01*
X136761667Y-102892700D02*
X136828333Y-102926033D01*
X136828333Y-102926033D02*
X136961667Y-102926033D01*
X136961667Y-102926033D02*
X137028333Y-102892700D01*
X137028333Y-102892700D02*
X137061667Y-102859366D01*
X137061667Y-102859366D02*
X137095000Y-102792700D01*
X137095000Y-102792700D02*
X137095000Y-102659366D01*
X137095000Y-102659366D02*
X137061667Y-102592700D01*
X137061667Y-102592700D02*
X137028333Y-102559366D01*
X137028333Y-102559366D02*
X136961667Y-102526033D01*
X191981033Y-75285000D02*
X191647700Y-75518333D01*
X191981033Y-75685000D02*
X191281033Y-75685000D01*
X191281033Y-75685000D02*
X191281033Y-75418333D01*
X191281033Y-75418333D02*
X191314366Y-75351667D01*
X191314366Y-75351667D02*
X191347700Y-75318333D01*
X191347700Y-75318333D02*
X191414366Y-75285000D01*
X191414366Y-75285000D02*
X191514366Y-75285000D01*
X191514366Y-75285000D02*
X191581033Y-75318333D01*
X191581033Y-75318333D02*
X191614366Y-75351667D01*
X191614366Y-75351667D02*
X191647700Y-75418333D01*
X191647700Y-75418333D02*
X191647700Y-75685000D01*
X191281033Y-75051667D02*
X191281033Y-74618333D01*
X191281033Y-74618333D02*
X191547700Y-74851667D01*
X191547700Y-74851667D02*
X191547700Y-74751667D01*
X191547700Y-74751667D02*
X191581033Y-74685000D01*
X191581033Y-74685000D02*
X191614366Y-74651667D01*
X191614366Y-74651667D02*
X191681033Y-74618333D01*
X191681033Y-74618333D02*
X191847700Y-74618333D01*
X191847700Y-74618333D02*
X191914366Y-74651667D01*
X191914366Y-74651667D02*
X191947700Y-74685000D01*
X191947700Y-74685000D02*
X191981033Y-74751667D01*
X191981033Y-74751667D02*
X191981033Y-74951667D01*
X191981033Y-74951667D02*
X191947700Y-75018333D01*
X191947700Y-75018333D02*
X191914366Y-75051667D01*
X191281033Y-74385000D02*
X191281033Y-73918333D01*
X191281033Y-73918333D02*
X191981033Y-74218333D01*
X188049999Y-80249366D02*
X188016666Y-80282700D01*
X188016666Y-80282700D02*
X187916666Y-80316033D01*
X187916666Y-80316033D02*
X187849999Y-80316033D01*
X187849999Y-80316033D02*
X187749999Y-80282700D01*
X187749999Y-80282700D02*
X187683333Y-80216033D01*
X187683333Y-80216033D02*
X187649999Y-80149366D01*
X187649999Y-80149366D02*
X187616666Y-80016033D01*
X187616666Y-80016033D02*
X187616666Y-79916033D01*
X187616666Y-79916033D02*
X187649999Y-79782700D01*
X187649999Y-79782700D02*
X187683333Y-79716033D01*
X187683333Y-79716033D02*
X187749999Y-79649366D01*
X187749999Y-79649366D02*
X187849999Y-79616033D01*
X187849999Y-79616033D02*
X187916666Y-79616033D01*
X187916666Y-79616033D02*
X188016666Y-79649366D01*
X188016666Y-79649366D02*
X188049999Y-79682700D01*
X188283333Y-79616033D02*
X188716666Y-79616033D01*
X188716666Y-79616033D02*
X188483333Y-79882700D01*
X188483333Y-79882700D02*
X188583333Y-79882700D01*
X188583333Y-79882700D02*
X188649999Y-79916033D01*
X188649999Y-79916033D02*
X188683333Y-79949366D01*
X188683333Y-79949366D02*
X188716666Y-80016033D01*
X188716666Y-80016033D02*
X188716666Y-80182700D01*
X188716666Y-80182700D02*
X188683333Y-80249366D01*
X188683333Y-80249366D02*
X188649999Y-80282700D01*
X188649999Y-80282700D02*
X188583333Y-80316033D01*
X188583333Y-80316033D02*
X188383333Y-80316033D01*
X188383333Y-80316033D02*
X188316666Y-80282700D01*
X188316666Y-80282700D02*
X188283333Y-80249366D01*
X189383333Y-80316033D02*
X188983333Y-80316033D01*
X189183333Y-80316033D02*
X189183333Y-79616033D01*
X189183333Y-79616033D02*
X189116666Y-79716033D01*
X189116666Y-79716033D02*
X189050000Y-79782700D01*
X189050000Y-79782700D02*
X188983333Y-79816033D01*
X154771033Y-93880000D02*
X154437700Y-94113333D01*
X154771033Y-94280000D02*
X154071033Y-94280000D01*
X154071033Y-94280000D02*
X154071033Y-94013333D01*
X154071033Y-94013333D02*
X154104366Y-93946667D01*
X154104366Y-93946667D02*
X154137700Y-93913333D01*
X154137700Y-93913333D02*
X154204366Y-93880000D01*
X154204366Y-93880000D02*
X154304366Y-93880000D01*
X154304366Y-93880000D02*
X154371033Y-93913333D01*
X154371033Y-93913333D02*
X154404366Y-93946667D01*
X154404366Y-93946667D02*
X154437700Y-94013333D01*
X154437700Y-94013333D02*
X154437700Y-94280000D01*
X154771033Y-93213333D02*
X154771033Y-93613333D01*
X154771033Y-93413333D02*
X154071033Y-93413333D01*
X154071033Y-93413333D02*
X154171033Y-93480000D01*
X154171033Y-93480000D02*
X154237700Y-93546667D01*
X154237700Y-93546667D02*
X154271033Y-93613333D01*
X154371033Y-92813333D02*
X154337700Y-92880000D01*
X154337700Y-92880000D02*
X154304366Y-92913333D01*
X154304366Y-92913333D02*
X154237700Y-92946666D01*
X154237700Y-92946666D02*
X154204366Y-92946666D01*
X154204366Y-92946666D02*
X154137700Y-92913333D01*
X154137700Y-92913333D02*
X154104366Y-92880000D01*
X154104366Y-92880000D02*
X154071033Y-92813333D01*
X154071033Y-92813333D02*
X154071033Y-92680000D01*
X154071033Y-92680000D02*
X154104366Y-92613333D01*
X154104366Y-92613333D02*
X154137700Y-92580000D01*
X154137700Y-92580000D02*
X154204366Y-92546666D01*
X154204366Y-92546666D02*
X154237700Y-92546666D01*
X154237700Y-92546666D02*
X154304366Y-92580000D01*
X154304366Y-92580000D02*
X154337700Y-92613333D01*
X154337700Y-92613333D02*
X154371033Y-92680000D01*
X154371033Y-92680000D02*
X154371033Y-92813333D01*
X154371033Y-92813333D02*
X154404366Y-92880000D01*
X154404366Y-92880000D02*
X154437700Y-92913333D01*
X154437700Y-92913333D02*
X154504366Y-92946666D01*
X154504366Y-92946666D02*
X154637700Y-92946666D01*
X154637700Y-92946666D02*
X154704366Y-92913333D01*
X154704366Y-92913333D02*
X154737700Y-92880000D01*
X154737700Y-92880000D02*
X154771033Y-92813333D01*
X154771033Y-92813333D02*
X154771033Y-92680000D01*
X154771033Y-92680000D02*
X154737700Y-92613333D01*
X154737700Y-92613333D02*
X154704366Y-92580000D01*
X154704366Y-92580000D02*
X154637700Y-92546666D01*
X154637700Y-92546666D02*
X154504366Y-92546666D01*
X154504366Y-92546666D02*
X154437700Y-92580000D01*
X154437700Y-92580000D02*
X154404366Y-92613333D01*
X154404366Y-92613333D02*
X154371033Y-92680000D01*
X107398333Y-72606033D02*
X107064999Y-72606033D01*
X107064999Y-72606033D02*
X107064999Y-71906033D01*
X107931666Y-72139366D02*
X107931666Y-72606033D01*
X107765000Y-71872700D02*
X107598333Y-72372700D01*
X107598333Y-72372700D02*
X108031666Y-72372700D01*
X153941666Y-127592700D02*
X154041666Y-127626033D01*
X154041666Y-127626033D02*
X154208333Y-127626033D01*
X154208333Y-127626033D02*
X154274999Y-127592700D01*
X154274999Y-127592700D02*
X154308333Y-127559366D01*
X154308333Y-127559366D02*
X154341666Y-127492700D01*
X154341666Y-127492700D02*
X154341666Y-127426033D01*
X154341666Y-127426033D02*
X154308333Y-127359366D01*
X154308333Y-127359366D02*
X154274999Y-127326033D01*
X154274999Y-127326033D02*
X154208333Y-127292700D01*
X154208333Y-127292700D02*
X154074999Y-127259366D01*
X154074999Y-127259366D02*
X154008333Y-127226033D01*
X154008333Y-127226033D02*
X153974999Y-127192700D01*
X153974999Y-127192700D02*
X153941666Y-127126033D01*
X153941666Y-127126033D02*
X153941666Y-127059366D01*
X153941666Y-127059366D02*
X153974999Y-126992700D01*
X153974999Y-126992700D02*
X154008333Y-126959366D01*
X154008333Y-126959366D02*
X154074999Y-126926033D01*
X154074999Y-126926033D02*
X154241666Y-126926033D01*
X154241666Y-126926033D02*
X154341666Y-126959366D01*
X154575000Y-126926033D02*
X154741666Y-127626033D01*
X154741666Y-127626033D02*
X154875000Y-127126033D01*
X154875000Y-127126033D02*
X155008333Y-127626033D01*
X155008333Y-127626033D02*
X155175000Y-126926033D01*
X155808333Y-127626033D02*
X155408333Y-127626033D01*
X155608333Y-127626033D02*
X155608333Y-126926033D01*
X155608333Y-126926033D02*
X155541666Y-127026033D01*
X155541666Y-127026033D02*
X155475000Y-127092700D01*
X155475000Y-127092700D02*
X155408333Y-127126033D01*
X182158333Y-64566033D02*
X182624999Y-65266033D01*
X182624999Y-64566033D02*
X182158333Y-65266033D01*
X183191666Y-64566033D02*
X183058333Y-64566033D01*
X183058333Y-64566033D02*
X182991666Y-64599366D01*
X182991666Y-64599366D02*
X182958333Y-64632700D01*
X182958333Y-64632700D02*
X182891666Y-64732700D01*
X182891666Y-64732700D02*
X182858333Y-64866033D01*
X182858333Y-64866033D02*
X182858333Y-65132700D01*
X182858333Y-65132700D02*
X182891666Y-65199366D01*
X182891666Y-65199366D02*
X182925000Y-65232700D01*
X182925000Y-65232700D02*
X182991666Y-65266033D01*
X182991666Y-65266033D02*
X183125000Y-65266033D01*
X183125000Y-65266033D02*
X183191666Y-65232700D01*
X183191666Y-65232700D02*
X183225000Y-65199366D01*
X183225000Y-65199366D02*
X183258333Y-65132700D01*
X183258333Y-65132700D02*
X183258333Y-64966033D01*
X183258333Y-64966033D02*
X183225000Y-64899366D01*
X183225000Y-64899366D02*
X183191666Y-64866033D01*
X183191666Y-64866033D02*
X183125000Y-64832700D01*
X183125000Y-64832700D02*
X182991666Y-64832700D01*
X182991666Y-64832700D02*
X182925000Y-64866033D01*
X182925000Y-64866033D02*
X182891666Y-64899366D01*
X182891666Y-64899366D02*
X182858333Y-64966033D01*
X120883333Y-74999366D02*
X120850000Y-75032700D01*
X120850000Y-75032700D02*
X120750000Y-75066033D01*
X120750000Y-75066033D02*
X120683333Y-75066033D01*
X120683333Y-75066033D02*
X120583333Y-75032700D01*
X120583333Y-75032700D02*
X120516667Y-74966033D01*
X120516667Y-74966033D02*
X120483333Y-74899366D01*
X120483333Y-74899366D02*
X120450000Y-74766033D01*
X120450000Y-74766033D02*
X120450000Y-74666033D01*
X120450000Y-74666033D02*
X120483333Y-74532700D01*
X120483333Y-74532700D02*
X120516667Y-74466033D01*
X120516667Y-74466033D02*
X120583333Y-74399366D01*
X120583333Y-74399366D02*
X120683333Y-74366033D01*
X120683333Y-74366033D02*
X120750000Y-74366033D01*
X120750000Y-74366033D02*
X120850000Y-74399366D01*
X120850000Y-74399366D02*
X120883333Y-74432700D01*
X121116667Y-74366033D02*
X121550000Y-74366033D01*
X121550000Y-74366033D02*
X121316667Y-74632700D01*
X121316667Y-74632700D02*
X121416667Y-74632700D01*
X121416667Y-74632700D02*
X121483333Y-74666033D01*
X121483333Y-74666033D02*
X121516667Y-74699366D01*
X121516667Y-74699366D02*
X121550000Y-74766033D01*
X121550000Y-74766033D02*
X121550000Y-74932700D01*
X121550000Y-74932700D02*
X121516667Y-74999366D01*
X121516667Y-74999366D02*
X121483333Y-75032700D01*
X121483333Y-75032700D02*
X121416667Y-75066033D01*
X121416667Y-75066033D02*
X121216667Y-75066033D01*
X121216667Y-75066033D02*
X121150000Y-75032700D01*
X121150000Y-75032700D02*
X121116667Y-74999366D01*
X158421033Y-97410000D02*
X158087700Y-97643333D01*
X158421033Y-97810000D02*
X157721033Y-97810000D01*
X157721033Y-97810000D02*
X157721033Y-97543333D01*
X157721033Y-97543333D02*
X157754366Y-97476667D01*
X157754366Y-97476667D02*
X157787700Y-97443333D01*
X157787700Y-97443333D02*
X157854366Y-97410000D01*
X157854366Y-97410000D02*
X157954366Y-97410000D01*
X157954366Y-97410000D02*
X158021033Y-97443333D01*
X158021033Y-97443333D02*
X158054366Y-97476667D01*
X158054366Y-97476667D02*
X158087700Y-97543333D01*
X158087700Y-97543333D02*
X158087700Y-97810000D01*
X158421033Y-96743333D02*
X158421033Y-97143333D01*
X158421033Y-96943333D02*
X157721033Y-96943333D01*
X157721033Y-96943333D02*
X157821033Y-97010000D01*
X157821033Y-97010000D02*
X157887700Y-97076667D01*
X157887700Y-97076667D02*
X157921033Y-97143333D01*
X157721033Y-96510000D02*
X157721033Y-96076666D01*
X157721033Y-96076666D02*
X157987700Y-96310000D01*
X157987700Y-96310000D02*
X157987700Y-96210000D01*
X157987700Y-96210000D02*
X158021033Y-96143333D01*
X158021033Y-96143333D02*
X158054366Y-96110000D01*
X158054366Y-96110000D02*
X158121033Y-96076666D01*
X158121033Y-96076666D02*
X158287700Y-96076666D01*
X158287700Y-96076666D02*
X158354366Y-96110000D01*
X158354366Y-96110000D02*
X158387700Y-96143333D01*
X158387700Y-96143333D02*
X158421033Y-96210000D01*
X158421033Y-96210000D02*
X158421033Y-96410000D01*
X158421033Y-96410000D02*
X158387700Y-96476666D01*
X158387700Y-96476666D02*
X158354366Y-96510000D01*
X186391033Y-67660000D02*
X186391033Y-67993333D01*
X186391033Y-67993333D02*
X185691033Y-67993333D01*
X186391033Y-67059999D02*
X186391033Y-67459999D01*
X186391033Y-67259999D02*
X185691033Y-67259999D01*
X185691033Y-67259999D02*
X185791033Y-67326666D01*
X185791033Y-67326666D02*
X185857700Y-67393333D01*
X185857700Y-67393333D02*
X185891033Y-67459999D01*
X185691033Y-66426666D02*
X185691033Y-66759999D01*
X185691033Y-66759999D02*
X186024366Y-66793332D01*
X186024366Y-66793332D02*
X185991033Y-66759999D01*
X185991033Y-66759999D02*
X185957700Y-66693332D01*
X185957700Y-66693332D02*
X185957700Y-66526666D01*
X185957700Y-66526666D02*
X185991033Y-66459999D01*
X185991033Y-66459999D02*
X186024366Y-66426666D01*
X186024366Y-66426666D02*
X186091033Y-66393332D01*
X186091033Y-66393332D02*
X186257700Y-66393332D01*
X186257700Y-66393332D02*
X186324366Y-66426666D01*
X186324366Y-66426666D02*
X186357700Y-66459999D01*
X186357700Y-66459999D02*
X186391033Y-66526666D01*
X186391033Y-66526666D02*
X186391033Y-66693332D01*
X186391033Y-66693332D02*
X186357700Y-66759999D01*
X186357700Y-66759999D02*
X186324366Y-66793332D01*
X192724999Y-65399366D02*
X192691666Y-65432700D01*
X192691666Y-65432700D02*
X192591666Y-65466033D01*
X192591666Y-65466033D02*
X192524999Y-65466033D01*
X192524999Y-65466033D02*
X192424999Y-65432700D01*
X192424999Y-65432700D02*
X192358333Y-65366033D01*
X192358333Y-65366033D02*
X192324999Y-65299366D01*
X192324999Y-65299366D02*
X192291666Y-65166033D01*
X192291666Y-65166033D02*
X192291666Y-65066033D01*
X192291666Y-65066033D02*
X192324999Y-64932700D01*
X192324999Y-64932700D02*
X192358333Y-64866033D01*
X192358333Y-64866033D02*
X192424999Y-64799366D01*
X192424999Y-64799366D02*
X192524999Y-64766033D01*
X192524999Y-64766033D02*
X192591666Y-64766033D01*
X192591666Y-64766033D02*
X192691666Y-64799366D01*
X192691666Y-64799366D02*
X192724999Y-64832700D01*
X193324999Y-64999366D02*
X193324999Y-65466033D01*
X193158333Y-64732700D02*
X192991666Y-65232700D01*
X192991666Y-65232700D02*
X193424999Y-65232700D01*
X194058333Y-65466033D02*
X193658333Y-65466033D01*
X193858333Y-65466033D02*
X193858333Y-64766033D01*
X193858333Y-64766033D02*
X193791666Y-64866033D01*
X193791666Y-64866033D02*
X193725000Y-64932700D01*
X193725000Y-64932700D02*
X193658333Y-64966033D01*
X192238333Y-133716033D02*
X192238333Y-133016033D01*
X192238333Y-133016033D02*
X192405000Y-133016033D01*
X192405000Y-133016033D02*
X192505000Y-133049366D01*
X192505000Y-133049366D02*
X192571667Y-133116033D01*
X192571667Y-133116033D02*
X192605000Y-133182700D01*
X192605000Y-133182700D02*
X192638333Y-133316033D01*
X192638333Y-133316033D02*
X192638333Y-133416033D01*
X192638333Y-133416033D02*
X192605000Y-133549366D01*
X192605000Y-133549366D02*
X192571667Y-133616033D01*
X192571667Y-133616033D02*
X192505000Y-133682700D01*
X192505000Y-133682700D02*
X192405000Y-133716033D01*
X192405000Y-133716033D02*
X192238333Y-133716033D01*
X192871667Y-133016033D02*
X193305000Y-133016033D01*
X193305000Y-133016033D02*
X193071667Y-133282700D01*
X193071667Y-133282700D02*
X193171667Y-133282700D01*
X193171667Y-133282700D02*
X193238333Y-133316033D01*
X193238333Y-133316033D02*
X193271667Y-133349366D01*
X193271667Y-133349366D02*
X193305000Y-133416033D01*
X193305000Y-133416033D02*
X193305000Y-133582700D01*
X193305000Y-133582700D02*
X193271667Y-133649366D01*
X193271667Y-133649366D02*
X193238333Y-133682700D01*
X193238333Y-133682700D02*
X193171667Y-133716033D01*
X193171667Y-133716033D02*
X192971667Y-133716033D01*
X192971667Y-133716033D02*
X192905000Y-133682700D01*
X192905000Y-133682700D02*
X192871667Y-133649366D01*
X128574999Y-58299366D02*
X128541666Y-58332700D01*
X128541666Y-58332700D02*
X128441666Y-58366033D01*
X128441666Y-58366033D02*
X128374999Y-58366033D01*
X128374999Y-58366033D02*
X128274999Y-58332700D01*
X128274999Y-58332700D02*
X128208333Y-58266033D01*
X128208333Y-58266033D02*
X128174999Y-58199366D01*
X128174999Y-58199366D02*
X128141666Y-58066033D01*
X128141666Y-58066033D02*
X128141666Y-57966033D01*
X128141666Y-57966033D02*
X128174999Y-57832700D01*
X128174999Y-57832700D02*
X128208333Y-57766033D01*
X128208333Y-57766033D02*
X128274999Y-57699366D01*
X128274999Y-57699366D02*
X128374999Y-57666033D01*
X128374999Y-57666033D02*
X128441666Y-57666033D01*
X128441666Y-57666033D02*
X128541666Y-57699366D01*
X128541666Y-57699366D02*
X128574999Y-57732700D01*
X128841666Y-57732700D02*
X128874999Y-57699366D01*
X128874999Y-57699366D02*
X128941666Y-57666033D01*
X128941666Y-57666033D02*
X129108333Y-57666033D01*
X129108333Y-57666033D02*
X129174999Y-57699366D01*
X129174999Y-57699366D02*
X129208333Y-57732700D01*
X129208333Y-57732700D02*
X129241666Y-57799366D01*
X129241666Y-57799366D02*
X129241666Y-57866033D01*
X129241666Y-57866033D02*
X129208333Y-57966033D01*
X129208333Y-57966033D02*
X128808333Y-58366033D01*
X128808333Y-58366033D02*
X129241666Y-58366033D01*
X129641666Y-57966033D02*
X129575000Y-57932700D01*
X129575000Y-57932700D02*
X129541666Y-57899366D01*
X129541666Y-57899366D02*
X129508333Y-57832700D01*
X129508333Y-57832700D02*
X129508333Y-57799366D01*
X129508333Y-57799366D02*
X129541666Y-57732700D01*
X129541666Y-57732700D02*
X129575000Y-57699366D01*
X129575000Y-57699366D02*
X129641666Y-57666033D01*
X129641666Y-57666033D02*
X129775000Y-57666033D01*
X129775000Y-57666033D02*
X129841666Y-57699366D01*
X129841666Y-57699366D02*
X129875000Y-57732700D01*
X129875000Y-57732700D02*
X129908333Y-57799366D01*
X129908333Y-57799366D02*
X129908333Y-57832700D01*
X129908333Y-57832700D02*
X129875000Y-57899366D01*
X129875000Y-57899366D02*
X129841666Y-57932700D01*
X129841666Y-57932700D02*
X129775000Y-57966033D01*
X129775000Y-57966033D02*
X129641666Y-57966033D01*
X129641666Y-57966033D02*
X129575000Y-57999366D01*
X129575000Y-57999366D02*
X129541666Y-58032700D01*
X129541666Y-58032700D02*
X129508333Y-58099366D01*
X129508333Y-58099366D02*
X129508333Y-58232700D01*
X129508333Y-58232700D02*
X129541666Y-58299366D01*
X129541666Y-58299366D02*
X129575000Y-58332700D01*
X129575000Y-58332700D02*
X129641666Y-58366033D01*
X129641666Y-58366033D02*
X129775000Y-58366033D01*
X129775000Y-58366033D02*
X129841666Y-58332700D01*
X129841666Y-58332700D02*
X129875000Y-58299366D01*
X129875000Y-58299366D02*
X129908333Y-58232700D01*
X129908333Y-58232700D02*
X129908333Y-58099366D01*
X129908333Y-58099366D02*
X129875000Y-58032700D01*
X129875000Y-58032700D02*
X129841666Y-57999366D01*
X129841666Y-57999366D02*
X129775000Y-57966033D01*
X152091033Y-96710000D02*
X151757700Y-96943333D01*
X152091033Y-97110000D02*
X151391033Y-97110000D01*
X151391033Y-97110000D02*
X151391033Y-96843333D01*
X151391033Y-96843333D02*
X151424366Y-96776667D01*
X151424366Y-96776667D02*
X151457700Y-96743333D01*
X151457700Y-96743333D02*
X151524366Y-96710000D01*
X151524366Y-96710000D02*
X151624366Y-96710000D01*
X151624366Y-96710000D02*
X151691033Y-96743333D01*
X151691033Y-96743333D02*
X151724366Y-96776667D01*
X151724366Y-96776667D02*
X151757700Y-96843333D01*
X151757700Y-96843333D02*
X151757700Y-97110000D01*
X152091033Y-96043333D02*
X152091033Y-96443333D01*
X152091033Y-96243333D02*
X151391033Y-96243333D01*
X151391033Y-96243333D02*
X151491033Y-96310000D01*
X151491033Y-96310000D02*
X151557700Y-96376667D01*
X151557700Y-96376667D02*
X151591033Y-96443333D01*
X151391033Y-95443333D02*
X151391033Y-95576666D01*
X151391033Y-95576666D02*
X151424366Y-95643333D01*
X151424366Y-95643333D02*
X151457700Y-95676666D01*
X151457700Y-95676666D02*
X151557700Y-95743333D01*
X151557700Y-95743333D02*
X151691033Y-95776666D01*
X151691033Y-95776666D02*
X151957700Y-95776666D01*
X151957700Y-95776666D02*
X152024366Y-95743333D01*
X152024366Y-95743333D02*
X152057700Y-95710000D01*
X152057700Y-95710000D02*
X152091033Y-95643333D01*
X152091033Y-95643333D02*
X152091033Y-95510000D01*
X152091033Y-95510000D02*
X152057700Y-95443333D01*
X152057700Y-95443333D02*
X152024366Y-95410000D01*
X152024366Y-95410000D02*
X151957700Y-95376666D01*
X151957700Y-95376666D02*
X151791033Y-95376666D01*
X151791033Y-95376666D02*
X151724366Y-95410000D01*
X151724366Y-95410000D02*
X151691033Y-95443333D01*
X151691033Y-95443333D02*
X151657700Y-95510000D01*
X151657700Y-95510000D02*
X151657700Y-95643333D01*
X151657700Y-95643333D02*
X151691033Y-95710000D01*
X151691033Y-95710000D02*
X151724366Y-95743333D01*
X151724366Y-95743333D02*
X151791033Y-95776666D01*
X117262982Y-106056033D02*
X117729648Y-106756033D01*
X117729648Y-106056033D02*
X117262982Y-106756033D01*
X117996315Y-106756033D02*
X117996315Y-106056033D01*
X117996315Y-106056033D02*
X118262982Y-106056033D01*
X118262982Y-106056033D02*
X118329649Y-106089366D01*
X118329649Y-106089366D02*
X118362982Y-106122700D01*
X118362982Y-106122700D02*
X118396315Y-106189366D01*
X118396315Y-106189366D02*
X118396315Y-106289366D01*
X118396315Y-106289366D02*
X118362982Y-106356033D01*
X118362982Y-106356033D02*
X118329649Y-106389366D01*
X118329649Y-106389366D02*
X118262982Y-106422700D01*
X118262982Y-106422700D02*
X117996315Y-106422700D01*
X119062982Y-106756033D02*
X118662982Y-106756033D01*
X118862982Y-106756033D02*
X118862982Y-106056033D01*
X118862982Y-106056033D02*
X118796315Y-106156033D01*
X118796315Y-106156033D02*
X118729649Y-106222700D01*
X118729649Y-106222700D02*
X118662982Y-106256033D01*
X179601033Y-75676666D02*
X178901033Y-75676666D01*
X178901033Y-75676666D02*
X178901033Y-75509999D01*
X178901033Y-75509999D02*
X178934366Y-75409999D01*
X178934366Y-75409999D02*
X179001033Y-75343333D01*
X179001033Y-75343333D02*
X179067700Y-75309999D01*
X179067700Y-75309999D02*
X179201033Y-75276666D01*
X179201033Y-75276666D02*
X179301033Y-75276666D01*
X179301033Y-75276666D02*
X179434366Y-75309999D01*
X179434366Y-75309999D02*
X179501033Y-75343333D01*
X179501033Y-75343333D02*
X179567700Y-75409999D01*
X179567700Y-75409999D02*
X179601033Y-75509999D01*
X179601033Y-75509999D02*
X179601033Y-75676666D01*
X179601033Y-74976666D02*
X178901033Y-74976666D01*
X178901033Y-74976666D02*
X178901033Y-74809999D01*
X178901033Y-74809999D02*
X178934366Y-74709999D01*
X178934366Y-74709999D02*
X179001033Y-74643333D01*
X179001033Y-74643333D02*
X179067700Y-74609999D01*
X179067700Y-74609999D02*
X179201033Y-74576666D01*
X179201033Y-74576666D02*
X179301033Y-74576666D01*
X179301033Y-74576666D02*
X179434366Y-74609999D01*
X179434366Y-74609999D02*
X179501033Y-74643333D01*
X179501033Y-74643333D02*
X179567700Y-74709999D01*
X179567700Y-74709999D02*
X179601033Y-74809999D01*
X179601033Y-74809999D02*
X179601033Y-74976666D01*
X179601033Y-74243333D02*
X179601033Y-74109999D01*
X179601033Y-74109999D02*
X179567700Y-74043333D01*
X179567700Y-74043333D02*
X179534366Y-74009999D01*
X179534366Y-74009999D02*
X179434366Y-73943333D01*
X179434366Y-73943333D02*
X179301033Y-73909999D01*
X179301033Y-73909999D02*
X179034366Y-73909999D01*
X179034366Y-73909999D02*
X178967700Y-73943333D01*
X178967700Y-73943333D02*
X178934366Y-73976666D01*
X178934366Y-73976666D02*
X178901033Y-74043333D01*
X178901033Y-74043333D02*
X178901033Y-74176666D01*
X178901033Y-74176666D02*
X178934366Y-74243333D01*
X178934366Y-74243333D02*
X178967700Y-74276666D01*
X178967700Y-74276666D02*
X179034366Y-74309999D01*
X179034366Y-74309999D02*
X179201033Y-74309999D01*
X179201033Y-74309999D02*
X179267700Y-74276666D01*
X179267700Y-74276666D02*
X179301033Y-74243333D01*
X179301033Y-74243333D02*
X179334366Y-74176666D01*
X179334366Y-74176666D02*
X179334366Y-74043333D01*
X179334366Y-74043333D02*
X179301033Y-73976666D01*
X179301033Y-73976666D02*
X179267700Y-73943333D01*
X179267700Y-73943333D02*
X179201033Y-73909999D01*
X123268333Y-75029366D02*
X123235000Y-75062700D01*
X123235000Y-75062700D02*
X123135000Y-75096033D01*
X123135000Y-75096033D02*
X123068333Y-75096033D01*
X123068333Y-75096033D02*
X122968333Y-75062700D01*
X122968333Y-75062700D02*
X122901667Y-74996033D01*
X122901667Y-74996033D02*
X122868333Y-74929366D01*
X122868333Y-74929366D02*
X122835000Y-74796033D01*
X122835000Y-74796033D02*
X122835000Y-74696033D01*
X122835000Y-74696033D02*
X122868333Y-74562700D01*
X122868333Y-74562700D02*
X122901667Y-74496033D01*
X122901667Y-74496033D02*
X122968333Y-74429366D01*
X122968333Y-74429366D02*
X123068333Y-74396033D01*
X123068333Y-74396033D02*
X123135000Y-74396033D01*
X123135000Y-74396033D02*
X123235000Y-74429366D01*
X123235000Y-74429366D02*
X123268333Y-74462700D01*
X123601667Y-75096033D02*
X123735000Y-75096033D01*
X123735000Y-75096033D02*
X123801667Y-75062700D01*
X123801667Y-75062700D02*
X123835000Y-75029366D01*
X123835000Y-75029366D02*
X123901667Y-74929366D01*
X123901667Y-74929366D02*
X123935000Y-74796033D01*
X123935000Y-74796033D02*
X123935000Y-74529366D01*
X123935000Y-74529366D02*
X123901667Y-74462700D01*
X123901667Y-74462700D02*
X123868333Y-74429366D01*
X123868333Y-74429366D02*
X123801667Y-74396033D01*
X123801667Y-74396033D02*
X123668333Y-74396033D01*
X123668333Y-74396033D02*
X123601667Y-74429366D01*
X123601667Y-74429366D02*
X123568333Y-74462700D01*
X123568333Y-74462700D02*
X123535000Y-74529366D01*
X123535000Y-74529366D02*
X123535000Y-74696033D01*
X123535000Y-74696033D02*
X123568333Y-74762700D01*
X123568333Y-74762700D02*
X123601667Y-74796033D01*
X123601667Y-74796033D02*
X123668333Y-74829366D01*
X123668333Y-74829366D02*
X123801667Y-74829366D01*
X123801667Y-74829366D02*
X123868333Y-74796033D01*
X123868333Y-74796033D02*
X123901667Y-74762700D01*
X123901667Y-74762700D02*
X123935000Y-74696033D01*
X140754999Y-91189366D02*
X140721666Y-91222700D01*
X140721666Y-91222700D02*
X140621666Y-91256033D01*
X140621666Y-91256033D02*
X140554999Y-91256033D01*
X140554999Y-91256033D02*
X140454999Y-91222700D01*
X140454999Y-91222700D02*
X140388333Y-91156033D01*
X140388333Y-91156033D02*
X140354999Y-91089366D01*
X140354999Y-91089366D02*
X140321666Y-90956033D01*
X140321666Y-90956033D02*
X140321666Y-90856033D01*
X140321666Y-90856033D02*
X140354999Y-90722700D01*
X140354999Y-90722700D02*
X140388333Y-90656033D01*
X140388333Y-90656033D02*
X140454999Y-90589366D01*
X140454999Y-90589366D02*
X140554999Y-90556033D01*
X140554999Y-90556033D02*
X140621666Y-90556033D01*
X140621666Y-90556033D02*
X140721666Y-90589366D01*
X140721666Y-90589366D02*
X140754999Y-90622700D01*
X141021666Y-90622700D02*
X141054999Y-90589366D01*
X141054999Y-90589366D02*
X141121666Y-90556033D01*
X141121666Y-90556033D02*
X141288333Y-90556033D01*
X141288333Y-90556033D02*
X141354999Y-90589366D01*
X141354999Y-90589366D02*
X141388333Y-90622700D01*
X141388333Y-90622700D02*
X141421666Y-90689366D01*
X141421666Y-90689366D02*
X141421666Y-90756033D01*
X141421666Y-90756033D02*
X141388333Y-90856033D01*
X141388333Y-90856033D02*
X140988333Y-91256033D01*
X140988333Y-91256033D02*
X141421666Y-91256033D01*
X142021666Y-90789366D02*
X142021666Y-91256033D01*
X141855000Y-90522700D02*
X141688333Y-91022700D01*
X141688333Y-91022700D02*
X142121666Y-91022700D01*
X144844999Y-65659366D02*
X144811666Y-65692700D01*
X144811666Y-65692700D02*
X144711666Y-65726033D01*
X144711666Y-65726033D02*
X144644999Y-65726033D01*
X144644999Y-65726033D02*
X144544999Y-65692700D01*
X144544999Y-65692700D02*
X144478333Y-65626033D01*
X144478333Y-65626033D02*
X144444999Y-65559366D01*
X144444999Y-65559366D02*
X144411666Y-65426033D01*
X144411666Y-65426033D02*
X144411666Y-65326033D01*
X144411666Y-65326033D02*
X144444999Y-65192700D01*
X144444999Y-65192700D02*
X144478333Y-65126033D01*
X144478333Y-65126033D02*
X144544999Y-65059366D01*
X144544999Y-65059366D02*
X144644999Y-65026033D01*
X144644999Y-65026033D02*
X144711666Y-65026033D01*
X144711666Y-65026033D02*
X144811666Y-65059366D01*
X144811666Y-65059366D02*
X144844999Y-65092700D01*
X145078333Y-65026033D02*
X145511666Y-65026033D01*
X145511666Y-65026033D02*
X145278333Y-65292700D01*
X145278333Y-65292700D02*
X145378333Y-65292700D01*
X145378333Y-65292700D02*
X145444999Y-65326033D01*
X145444999Y-65326033D02*
X145478333Y-65359366D01*
X145478333Y-65359366D02*
X145511666Y-65426033D01*
X145511666Y-65426033D02*
X145511666Y-65592700D01*
X145511666Y-65592700D02*
X145478333Y-65659366D01*
X145478333Y-65659366D02*
X145444999Y-65692700D01*
X145444999Y-65692700D02*
X145378333Y-65726033D01*
X145378333Y-65726033D02*
X145178333Y-65726033D01*
X145178333Y-65726033D02*
X145111666Y-65692700D01*
X145111666Y-65692700D02*
X145078333Y-65659366D01*
X145745000Y-65026033D02*
X146211666Y-65026033D01*
X146211666Y-65026033D02*
X145911666Y-65726033D01*
X169458333Y-64986033D02*
X169924999Y-65686033D01*
X169924999Y-64986033D02*
X169458333Y-65686033D01*
X170125000Y-64986033D02*
X170558333Y-64986033D01*
X170558333Y-64986033D02*
X170325000Y-65252700D01*
X170325000Y-65252700D02*
X170425000Y-65252700D01*
X170425000Y-65252700D02*
X170491666Y-65286033D01*
X170491666Y-65286033D02*
X170525000Y-65319366D01*
X170525000Y-65319366D02*
X170558333Y-65386033D01*
X170558333Y-65386033D02*
X170558333Y-65552700D01*
X170558333Y-65552700D02*
X170525000Y-65619366D01*
X170525000Y-65619366D02*
X170491666Y-65652700D01*
X170491666Y-65652700D02*
X170425000Y-65686033D01*
X170425000Y-65686033D02*
X170225000Y-65686033D01*
X170225000Y-65686033D02*
X170158333Y-65652700D01*
X170158333Y-65652700D02*
X170125000Y-65619366D01*
X142111033Y-65010000D02*
X141777700Y-65243333D01*
X142111033Y-65410000D02*
X141411033Y-65410000D01*
X141411033Y-65410000D02*
X141411033Y-65143333D01*
X141411033Y-65143333D02*
X141444366Y-65076667D01*
X141444366Y-65076667D02*
X141477700Y-65043333D01*
X141477700Y-65043333D02*
X141544366Y-65010000D01*
X141544366Y-65010000D02*
X141644366Y-65010000D01*
X141644366Y-65010000D02*
X141711033Y-65043333D01*
X141711033Y-65043333D02*
X141744366Y-65076667D01*
X141744366Y-65076667D02*
X141777700Y-65143333D01*
X141777700Y-65143333D02*
X141777700Y-65410000D01*
X141411033Y-64776667D02*
X141411033Y-64343333D01*
X141411033Y-64343333D02*
X141677700Y-64576667D01*
X141677700Y-64576667D02*
X141677700Y-64476667D01*
X141677700Y-64476667D02*
X141711033Y-64410000D01*
X141711033Y-64410000D02*
X141744366Y-64376667D01*
X141744366Y-64376667D02*
X141811033Y-64343333D01*
X141811033Y-64343333D02*
X141977700Y-64343333D01*
X141977700Y-64343333D02*
X142044366Y-64376667D01*
X142044366Y-64376667D02*
X142077700Y-64410000D01*
X142077700Y-64410000D02*
X142111033Y-64476667D01*
X142111033Y-64476667D02*
X142111033Y-64676667D01*
X142111033Y-64676667D02*
X142077700Y-64743333D01*
X142077700Y-64743333D02*
X142044366Y-64776667D01*
X141411033Y-63710000D02*
X141411033Y-64043333D01*
X141411033Y-64043333D02*
X141744366Y-64076666D01*
X141744366Y-64076666D02*
X141711033Y-64043333D01*
X141711033Y-64043333D02*
X141677700Y-63976666D01*
X141677700Y-63976666D02*
X141677700Y-63810000D01*
X141677700Y-63810000D02*
X141711033Y-63743333D01*
X141711033Y-63743333D02*
X141744366Y-63710000D01*
X141744366Y-63710000D02*
X141811033Y-63676666D01*
X141811033Y-63676666D02*
X141977700Y-63676666D01*
X141977700Y-63676666D02*
X142044366Y-63710000D01*
X142044366Y-63710000D02*
X142077700Y-63743333D01*
X142077700Y-63743333D02*
X142111033Y-63810000D01*
X142111033Y-63810000D02*
X142111033Y-63976666D01*
X142111033Y-63976666D02*
X142077700Y-64043333D01*
X142077700Y-64043333D02*
X142044366Y-64076666D01*
X143491033Y-101140000D02*
X143157700Y-101373333D01*
X143491033Y-101540000D02*
X142791033Y-101540000D01*
X142791033Y-101540000D02*
X142791033Y-101273333D01*
X142791033Y-101273333D02*
X142824366Y-101206667D01*
X142824366Y-101206667D02*
X142857700Y-101173333D01*
X142857700Y-101173333D02*
X142924366Y-101140000D01*
X142924366Y-101140000D02*
X143024366Y-101140000D01*
X143024366Y-101140000D02*
X143091033Y-101173333D01*
X143091033Y-101173333D02*
X143124366Y-101206667D01*
X143124366Y-101206667D02*
X143157700Y-101273333D01*
X143157700Y-101273333D02*
X143157700Y-101540000D01*
X143491033Y-100473333D02*
X143491033Y-100873333D01*
X143491033Y-100673333D02*
X142791033Y-100673333D01*
X142791033Y-100673333D02*
X142891033Y-100740000D01*
X142891033Y-100740000D02*
X142957700Y-100806667D01*
X142957700Y-100806667D02*
X142991033Y-100873333D01*
X142791033Y-100040000D02*
X142791033Y-99973333D01*
X142791033Y-99973333D02*
X142824366Y-99906666D01*
X142824366Y-99906666D02*
X142857700Y-99873333D01*
X142857700Y-99873333D02*
X142924366Y-99840000D01*
X142924366Y-99840000D02*
X143057700Y-99806666D01*
X143057700Y-99806666D02*
X143224366Y-99806666D01*
X143224366Y-99806666D02*
X143357700Y-99840000D01*
X143357700Y-99840000D02*
X143424366Y-99873333D01*
X143424366Y-99873333D02*
X143457700Y-99906666D01*
X143457700Y-99906666D02*
X143491033Y-99973333D01*
X143491033Y-99973333D02*
X143491033Y-100040000D01*
X143491033Y-100040000D02*
X143457700Y-100106666D01*
X143457700Y-100106666D02*
X143424366Y-100140000D01*
X143424366Y-100140000D02*
X143357700Y-100173333D01*
X143357700Y-100173333D02*
X143224366Y-100206666D01*
X143224366Y-100206666D02*
X143057700Y-100206666D01*
X143057700Y-100206666D02*
X142924366Y-100173333D01*
X142924366Y-100173333D02*
X142857700Y-100140000D01*
X142857700Y-100140000D02*
X142824366Y-100106666D01*
X142824366Y-100106666D02*
X142791033Y-100040000D01*
X148141033Y-100606666D02*
X147807700Y-100839999D01*
X148141033Y-101006666D02*
X147441033Y-101006666D01*
X147441033Y-101006666D02*
X147441033Y-100739999D01*
X147441033Y-100739999D02*
X147474366Y-100673333D01*
X147474366Y-100673333D02*
X147507700Y-100639999D01*
X147507700Y-100639999D02*
X147574366Y-100606666D01*
X147574366Y-100606666D02*
X147674366Y-100606666D01*
X147674366Y-100606666D02*
X147741033Y-100639999D01*
X147741033Y-100639999D02*
X147774366Y-100673333D01*
X147774366Y-100673333D02*
X147807700Y-100739999D01*
X147807700Y-100739999D02*
X147807700Y-101006666D01*
X148141033Y-100273333D02*
X148141033Y-100139999D01*
X148141033Y-100139999D02*
X148107700Y-100073333D01*
X148107700Y-100073333D02*
X148074366Y-100039999D01*
X148074366Y-100039999D02*
X147974366Y-99973333D01*
X147974366Y-99973333D02*
X147841033Y-99939999D01*
X147841033Y-99939999D02*
X147574366Y-99939999D01*
X147574366Y-99939999D02*
X147507700Y-99973333D01*
X147507700Y-99973333D02*
X147474366Y-100006666D01*
X147474366Y-100006666D02*
X147441033Y-100073333D01*
X147441033Y-100073333D02*
X147441033Y-100206666D01*
X147441033Y-100206666D02*
X147474366Y-100273333D01*
X147474366Y-100273333D02*
X147507700Y-100306666D01*
X147507700Y-100306666D02*
X147574366Y-100339999D01*
X147574366Y-100339999D02*
X147741033Y-100339999D01*
X147741033Y-100339999D02*
X147807700Y-100306666D01*
X147807700Y-100306666D02*
X147841033Y-100273333D01*
X147841033Y-100273333D02*
X147874366Y-100206666D01*
X147874366Y-100206666D02*
X147874366Y-100073333D01*
X147874366Y-100073333D02*
X147841033Y-100006666D01*
X147841033Y-100006666D02*
X147807700Y-99973333D01*
X147807700Y-99973333D02*
X147741033Y-99939999D01*
X150284366Y-59990000D02*
X150317700Y-60023333D01*
X150317700Y-60023333D02*
X150351033Y-60123333D01*
X150351033Y-60123333D02*
X150351033Y-60190000D01*
X150351033Y-60190000D02*
X150317700Y-60290000D01*
X150317700Y-60290000D02*
X150251033Y-60356667D01*
X150251033Y-60356667D02*
X150184366Y-60390000D01*
X150184366Y-60390000D02*
X150051033Y-60423333D01*
X150051033Y-60423333D02*
X149951033Y-60423333D01*
X149951033Y-60423333D02*
X149817700Y-60390000D01*
X149817700Y-60390000D02*
X149751033Y-60356667D01*
X149751033Y-60356667D02*
X149684366Y-60290000D01*
X149684366Y-60290000D02*
X149651033Y-60190000D01*
X149651033Y-60190000D02*
X149651033Y-60123333D01*
X149651033Y-60123333D02*
X149684366Y-60023333D01*
X149684366Y-60023333D02*
X149717700Y-59990000D01*
X149651033Y-59756667D02*
X149651033Y-59323333D01*
X149651033Y-59323333D02*
X149917700Y-59556667D01*
X149917700Y-59556667D02*
X149917700Y-59456667D01*
X149917700Y-59456667D02*
X149951033Y-59390000D01*
X149951033Y-59390000D02*
X149984366Y-59356667D01*
X149984366Y-59356667D02*
X150051033Y-59323333D01*
X150051033Y-59323333D02*
X150217700Y-59323333D01*
X150217700Y-59323333D02*
X150284366Y-59356667D01*
X150284366Y-59356667D02*
X150317700Y-59390000D01*
X150317700Y-59390000D02*
X150351033Y-59456667D01*
X150351033Y-59456667D02*
X150351033Y-59656667D01*
X150351033Y-59656667D02*
X150317700Y-59723333D01*
X150317700Y-59723333D02*
X150284366Y-59756667D01*
X149651033Y-58723333D02*
X149651033Y-58856666D01*
X149651033Y-58856666D02*
X149684366Y-58923333D01*
X149684366Y-58923333D02*
X149717700Y-58956666D01*
X149717700Y-58956666D02*
X149817700Y-59023333D01*
X149817700Y-59023333D02*
X149951033Y-59056666D01*
X149951033Y-59056666D02*
X150217700Y-59056666D01*
X150217700Y-59056666D02*
X150284366Y-59023333D01*
X150284366Y-59023333D02*
X150317700Y-58990000D01*
X150317700Y-58990000D02*
X150351033Y-58923333D01*
X150351033Y-58923333D02*
X150351033Y-58790000D01*
X150351033Y-58790000D02*
X150317700Y-58723333D01*
X150317700Y-58723333D02*
X150284366Y-58690000D01*
X150284366Y-58690000D02*
X150217700Y-58656666D01*
X150217700Y-58656666D02*
X150051033Y-58656666D01*
X150051033Y-58656666D02*
X149984366Y-58690000D01*
X149984366Y-58690000D02*
X149951033Y-58723333D01*
X149951033Y-58723333D02*
X149917700Y-58790000D01*
X149917700Y-58790000D02*
X149917700Y-58923333D01*
X149917700Y-58923333D02*
X149951033Y-58990000D01*
X149951033Y-58990000D02*
X149984366Y-59023333D01*
X149984366Y-59023333D02*
X150051033Y-59056666D01*
D12*
%TO.C,R15*%
X156072500Y-93042742D02*
X156072500Y-93517258D01*
X157117500Y-93042742D02*
X157117500Y-93517258D01*
%TO.C,X5*%
X154340000Y-134520000D02*
X193660000Y-134520000D01*
X154340000Y-145000000D02*
X154340000Y-134520000D01*
X164055000Y-133625662D02*
X164555000Y-133625662D01*
X164305000Y-134058675D02*
X164055000Y-133625662D01*
X164555000Y-133625662D02*
X164305000Y-134058675D01*
X193660000Y-134520000D02*
X193660000Y-145000000D01*
%TO.C,C43*%
X188795000Y-66994420D02*
X188795000Y-67275580D01*
X189815000Y-66994420D02*
X189815000Y-67275580D01*
%TO.C,R34*%
X142132500Y-56387258D02*
X142132500Y-55912742D01*
X143177500Y-56387258D02*
X143177500Y-55912742D01*
%TO.C,L5*%
X138952221Y-103760000D02*
X139277779Y-103760000D01*
X138952221Y-104780000D02*
X139277779Y-104780000D01*
%TO.C,DA2*%
X136290000Y-58745000D02*
X136290000Y-56795000D01*
X136290000Y-58745000D02*
X136290000Y-60695000D01*
X141410000Y-58745000D02*
X141410000Y-55295000D01*
X141410000Y-58745000D02*
X141410000Y-60695000D01*
%TO.C,SW2*%
D13*
X119155000Y-62640000D02*
X127155000Y-62640000D01*
X127155000Y-54640000D01*
X119155000Y-54640000D01*
X119155000Y-62640000D01*
D12*
X124625000Y-58650000D02*
G75*
G02*
X121625000Y-58650000I-1500000J0D01*
G01*
X121625000Y-58650000D02*
G75*
G02*
X124625000Y-58650000I1500000J0D01*
G01*
%TO.C,X4*%
X150745000Y-54320000D02*
X151995000Y-54320000D01*
X150745000Y-64320000D02*
X150745000Y-54320000D01*
X151995000Y-44820000D02*
X151995000Y-54320000D01*
X151995000Y-44820000D02*
X159495000Y-44820000D01*
X159495000Y-54320000D02*
X159495000Y-44820000D01*
X159495000Y-54320000D02*
X160745000Y-54320000D01*
X159495000Y-54320000D02*
X160745000Y-54320000D01*
X160745000Y-64320000D02*
X150745000Y-64320000D01*
X160745000Y-64320000D02*
X160745000Y-54320000D01*
%TO.C,C27*%
X132775000Y-62429420D02*
X132775000Y-62710580D01*
X133795000Y-62429420D02*
X133795000Y-62710580D01*
%TO.C,C30*%
X191144420Y-70260000D02*
X191425580Y-70260000D01*
X191144420Y-71280000D02*
X191425580Y-71280000D01*
%TO.C,R14*%
X159382500Y-93572742D02*
X159382500Y-94047258D01*
X160427500Y-93572742D02*
X160427500Y-94047258D01*
%TO.C,X2*%
X108415000Y-134650000D02*
X147735000Y-134650000D01*
X108415000Y-145130000D02*
X108415000Y-134650000D01*
X118130000Y-133755662D02*
X118630000Y-133755662D01*
X118380000Y-134188675D02*
X118130000Y-133755662D01*
X118630000Y-133755662D02*
X118380000Y-134188675D01*
X147735000Y-134650000D02*
X147735000Y-145130000D01*
%TO.C,C23*%
X150035000Y-85600000D02*
X150535000Y-85600000D01*
X150285000Y-85350000D02*
X150285000Y-85850000D01*
X150775000Y-85964437D02*
X150775000Y-86100000D01*
X150775000Y-85964437D02*
X151839437Y-84900000D01*
X150775000Y-88355563D02*
X150775000Y-88220000D01*
X150775000Y-88355563D02*
X151839437Y-89420000D01*
X151839437Y-84900000D02*
X155295000Y-84900000D01*
X151839437Y-89420000D02*
X155295000Y-89420000D01*
X155295000Y-84900000D02*
X155295000Y-86100000D01*
X155295000Y-89420000D02*
X155295000Y-88220000D01*
%TO.C,R17*%
X149232500Y-93032742D02*
X149232500Y-93507258D01*
X150277500Y-93032742D02*
X150277500Y-93507258D01*
%TO.C,DD6*%
X113140000Y-78355000D02*
X113140000Y-78600000D01*
X113140000Y-96475000D02*
X113140000Y-96230000D01*
X118000000Y-78355000D02*
X113140000Y-78355000D01*
X118000000Y-78355000D02*
X122860000Y-78355000D01*
X118000000Y-96475000D02*
X113140000Y-96475000D01*
X118000000Y-96475000D02*
X122860000Y-96475000D01*
X122860000Y-78355000D02*
X122860000Y-78600000D01*
X122860000Y-96230000D02*
X124675000Y-96230000D01*
X122860000Y-96475000D02*
X122860000Y-96230000D01*
%TO.C,X1*%
X107615000Y-48010000D02*
X116815000Y-48010000D01*
X107615000Y-56510000D02*
X107615000Y-48010000D01*
X107615000Y-62710000D02*
X107615000Y-60910000D01*
X109715000Y-62710000D02*
X107615000Y-62710000D01*
X115415000Y-63010000D02*
X117115000Y-63010000D01*
X116815000Y-48010000D02*
X116815000Y-62710000D01*
X116815000Y-62710000D02*
X114715000Y-62710000D01*
X117115000Y-63010000D02*
X117115000Y-61410000D01*
%TO.C,R2*%
X157302258Y-118227500D02*
X156827742Y-118227500D01*
X157302258Y-119272500D02*
X156827742Y-119272500D01*
%TO.C,C8*%
X139044420Y-102110000D02*
X139325580Y-102110000D01*
X139044420Y-103130000D02*
X139325580Y-103130000D01*
%TO.C,R37*%
X189582500Y-75022258D02*
X189582500Y-74547742D01*
X190627500Y-75022258D02*
X190627500Y-74547742D01*
%TO.C,C31*%
X191184420Y-79570000D02*
X191465580Y-79570000D01*
X191184420Y-80590000D02*
X191465580Y-80590000D01*
%TO.C,R18*%
X152412500Y-93042742D02*
X152412500Y-93517258D01*
X153457500Y-93042742D02*
X153457500Y-93517258D01*
%TO.C,L4*%
X112545000Y-67680000D02*
G75*
G02*
X105305000Y-67680000I-3620000J0D01*
G01*
X105305000Y-67680000D02*
G75*
G02*
X112545000Y-67680000I3620000J0D01*
G01*
%TO.C,SW1*%
D13*
X152925000Y-132740000D02*
X144925000Y-132740000D01*
X144925000Y-124740000D01*
X152925000Y-124740000D01*
X152925000Y-132740000D01*
D12*
X150435000Y-128770000D02*
G75*
G02*
X147435000Y-128770000I-1500000J0D01*
G01*
X147435000Y-128770000D02*
G75*
G02*
X150435000Y-128770000I1500000J0D01*
G01*
%TO.C,X6*%
X172085000Y-54250000D02*
X173335000Y-54250000D01*
X172085000Y-64250000D02*
X172085000Y-54250000D01*
X173335000Y-44750000D02*
X173335000Y-54250000D01*
X173335000Y-44750000D02*
X180835000Y-44750000D01*
X180835000Y-54250000D02*
X180835000Y-44750000D01*
X180835000Y-54250000D02*
X182085000Y-54250000D01*
X180835000Y-54250000D02*
X182085000Y-54250000D01*
X182085000Y-64250000D02*
X172085000Y-64250000D01*
X182085000Y-64250000D02*
X182085000Y-54250000D01*
%TO.C,C3*%
X112945000Y-66084437D02*
X112945000Y-73740000D01*
X112945000Y-73740000D02*
X115795000Y-73740000D01*
X114009437Y-65020000D02*
X112945000Y-66084437D01*
X114009437Y-65020000D02*
X115795000Y-65020000D01*
X119815000Y-63780000D02*
X119815000Y-64780000D01*
X120315000Y-64280000D02*
X119315000Y-64280000D01*
X120600563Y-65020000D02*
X118815000Y-65020000D01*
X120600563Y-65020000D02*
X121665000Y-66084437D01*
X121665000Y-66084437D02*
X121665000Y-73740000D01*
X121665000Y-73740000D02*
X118815000Y-73740000D01*
%TO.C,R13*%
X157752500Y-93552742D02*
X157752500Y-94027258D01*
X158797500Y-93552742D02*
X158797500Y-94027258D01*
%TO.C,L15*%
X187205000Y-66967221D02*
X187205000Y-67292779D01*
X188225000Y-66967221D02*
X188225000Y-67292779D01*
%TO.C,C41*%
X184335000Y-55640000D02*
X187085000Y-55640000D01*
X184335000Y-63095563D02*
X184335000Y-55640000D01*
X185399437Y-64160000D02*
X184335000Y-63095563D01*
X185399437Y-64160000D02*
X187085000Y-64160000D01*
X185585000Y-64900000D02*
X186585000Y-64900000D01*
X186085000Y-65400000D02*
X186085000Y-64400000D01*
X191790563Y-64160000D02*
X190105000Y-64160000D01*
X191790563Y-64160000D02*
X192855000Y-63095563D01*
X192855000Y-55640000D02*
X190105000Y-55640000D01*
X192855000Y-63095563D02*
X192855000Y-55640000D01*
%TO.C,D3*%
X191459000Y-131830000D02*
X191615000Y-131830000D01*
X193775000Y-131830000D02*
X193931000Y-131830000D01*
X191459484Y-131830000D02*
G75*
G02*
X191616392Y-128597665I1235516J1560000D01*
G01*
X191615000Y-131310961D02*
G75*
G02*
X191615163Y-129228870I1080000J1040961D01*
G01*
X193773608Y-128597665D02*
G75*
G02*
X193930516Y-131830000I-1078608J-1672335D01*
G01*
X193774837Y-129228870D02*
G75*
G02*
X193775000Y-131310961I-1079837J-1041130D01*
G01*
%TO.C,C28*%
X130715000Y-55360000D02*
X131915000Y-55360000D01*
X130715000Y-58815563D02*
X130715000Y-55360000D01*
X131165000Y-60370000D02*
X131665000Y-60370000D01*
X131415000Y-60620000D02*
X131415000Y-60120000D01*
X131779437Y-59880000D02*
X130715000Y-58815563D01*
X131779437Y-59880000D02*
X131915000Y-59880000D01*
X134170563Y-59880000D02*
X134035000Y-59880000D01*
X134170563Y-59880000D02*
X135235000Y-58815563D01*
X135235000Y-55360000D02*
X134035000Y-55360000D01*
X135235000Y-58815563D02*
X135235000Y-55360000D01*
%TO.C,R16*%
X150862500Y-93042742D02*
X150862500Y-93517258D01*
X151907500Y-93042742D02*
X151907500Y-93517258D01*
D14*
%TO.C,XP1*%
X109945000Y-107571000D02*
X109945000Y-116969000D01*
X109945000Y-116969000D02*
X191225000Y-116969000D01*
X111215000Y-111508000D02*
X111215000Y-113057000D01*
X111215000Y-113057000D02*
X189955000Y-113057000D01*
X114720000Y-111000000D02*
X115355000Y-111000000D01*
X114720000Y-111483000D02*
X114720000Y-111000000D01*
X114720000Y-113540000D02*
X114720000Y-113057000D01*
X115355000Y-111000000D02*
X115355000Y-111483000D01*
X115355000Y-113057000D02*
X115355000Y-113540000D01*
X115355000Y-113540000D02*
X114720000Y-113540000D01*
X117260000Y-111000000D02*
X117895000Y-111000000D01*
X117260000Y-111483000D02*
X117260000Y-111000000D01*
X117260000Y-113540000D02*
X117260000Y-113057000D01*
X117895000Y-111000000D02*
X117895000Y-111483000D01*
X117895000Y-113057000D02*
X117895000Y-113540000D01*
X117895000Y-113540000D02*
X117260000Y-113540000D01*
X119800000Y-111000000D02*
X120410000Y-111000000D01*
X119800000Y-111483000D02*
X119800000Y-111000000D01*
X119800000Y-113540000D02*
X119800000Y-113057000D01*
X120410000Y-111000000D02*
X120410000Y-111483000D01*
X120410000Y-113057000D02*
X120410000Y-113540000D01*
X120410000Y-113540000D02*
X119800000Y-113540000D01*
X122315000Y-111000000D02*
X122950000Y-111000000D01*
X122315000Y-111483000D02*
X122315000Y-111000000D01*
X122315000Y-113540000D02*
X122315000Y-113057000D01*
X122950000Y-111000000D02*
X122950000Y-111483000D01*
X122950000Y-113057000D02*
X122950000Y-113540000D01*
X122950000Y-113540000D02*
X122315000Y-113540000D01*
X124855000Y-111000000D02*
X125490000Y-111000000D01*
X124855000Y-111483000D02*
X124855000Y-111000000D01*
X124855000Y-113540000D02*
X124855000Y-113057000D01*
X125490000Y-111000000D02*
X125490000Y-111483000D01*
X125490000Y-113057000D02*
X125490000Y-113540000D01*
X125490000Y-113540000D02*
X124855000Y-113540000D01*
X127395000Y-111000000D02*
X128030000Y-111000000D01*
X127395000Y-111483000D02*
X127395000Y-111000000D01*
X127395000Y-113540000D02*
X127395000Y-113057000D01*
X128030000Y-111000000D02*
X128030000Y-111483000D01*
X128030000Y-113057000D02*
X128030000Y-113540000D01*
X128030000Y-113540000D02*
X127395000Y-113540000D01*
X129960000Y-111000000D02*
X130595000Y-111000000D01*
X129960000Y-111483000D02*
X129960000Y-111000000D01*
X129960000Y-113540000D02*
X129960000Y-113057000D01*
X130595000Y-111000000D02*
X130595000Y-111483000D01*
X130595000Y-113057000D02*
X130595000Y-113540000D01*
X130595000Y-113540000D02*
X129960000Y-113540000D01*
X132500000Y-111000000D02*
X133135000Y-111000000D01*
X132500000Y-111483000D02*
X132500000Y-111000000D01*
X132500000Y-113540000D02*
X132500000Y-113057000D01*
X133135000Y-111000000D02*
X133135000Y-111483000D01*
X133135000Y-113057000D02*
X133135000Y-113540000D01*
X133135000Y-113540000D02*
X132500000Y-113540000D01*
X135040000Y-111000000D02*
X135650000Y-111000000D01*
X135040000Y-111483000D02*
X135040000Y-111000000D01*
X135040000Y-113540000D02*
X135040000Y-113057000D01*
X135650000Y-111000000D02*
X135650000Y-111483000D01*
X135650000Y-113057000D02*
X135650000Y-113540000D01*
X135650000Y-113540000D02*
X135040000Y-113540000D01*
X137555000Y-111000000D02*
X138190000Y-111000000D01*
X137555000Y-111483000D02*
X137555000Y-111000000D01*
X137555000Y-113540000D02*
X137555000Y-113057000D01*
X138190000Y-111000000D02*
X138190000Y-111483000D01*
X138190000Y-113057000D02*
X138190000Y-113540000D01*
X138190000Y-113540000D02*
X137555000Y-113540000D01*
X140095000Y-111000000D02*
X140730000Y-111000000D01*
X140095000Y-111483000D02*
X140095000Y-111000000D01*
X140095000Y-113540000D02*
X140095000Y-113057000D01*
X140730000Y-111000000D02*
X140730000Y-111483000D01*
X140730000Y-113057000D02*
X140730000Y-113540000D01*
X140730000Y-113540000D02*
X140095000Y-113540000D01*
X142635000Y-111000000D02*
X143270000Y-111000000D01*
X142635000Y-111483000D02*
X142635000Y-111000000D01*
X142635000Y-113540000D02*
X142635000Y-113057000D01*
X143270000Y-111000000D02*
X143270000Y-111483000D01*
X143270000Y-113057000D02*
X143270000Y-113540000D01*
X143270000Y-113540000D02*
X142635000Y-113540000D01*
X145200000Y-111000000D02*
X145835000Y-111000000D01*
X145200000Y-111483000D02*
X145200000Y-111000000D01*
X145200000Y-113540000D02*
X145200000Y-113057000D01*
X145835000Y-111000000D02*
X145835000Y-111483000D01*
X145835000Y-113057000D02*
X145835000Y-113540000D01*
X145835000Y-113540000D02*
X145200000Y-113540000D01*
X147740000Y-111000000D02*
X148375000Y-111000000D01*
X147740000Y-111483000D02*
X147740000Y-111000000D01*
X147740000Y-113540000D02*
X147740000Y-113057000D01*
X148375000Y-111000000D02*
X148375000Y-111483000D01*
X148375000Y-113057000D02*
X148375000Y-113540000D01*
X148375000Y-113540000D02*
X147740000Y-113540000D01*
X150280000Y-111000000D02*
X150890000Y-111000000D01*
X150280000Y-111483000D02*
X150280000Y-111000000D01*
X150280000Y-113540000D02*
X150280000Y-113057000D01*
X150890000Y-111000000D02*
X150890000Y-111483000D01*
X150890000Y-113057000D02*
X150890000Y-113540000D01*
X150890000Y-113540000D02*
X150280000Y-113540000D01*
X152795000Y-111000000D02*
X153430000Y-111000000D01*
X152795000Y-111483000D02*
X152795000Y-111000000D01*
X152795000Y-113540000D02*
X152795000Y-113057000D01*
X153430000Y-111000000D02*
X153430000Y-111483000D01*
X153430000Y-113057000D02*
X153430000Y-113540000D01*
X153430000Y-113540000D02*
X152795000Y-113540000D01*
X155335000Y-111000000D02*
X155970000Y-111000000D01*
X155335000Y-111483000D02*
X155335000Y-111000000D01*
X155335000Y-113540000D02*
X155335000Y-113057000D01*
X155970000Y-111000000D02*
X155970000Y-111483000D01*
X155970000Y-113057000D02*
X155970000Y-113540000D01*
X155970000Y-113540000D02*
X155335000Y-113540000D01*
X157875000Y-111000000D02*
X158510000Y-111000000D01*
X157875000Y-111483000D02*
X157875000Y-111000000D01*
X157875000Y-113540000D02*
X157875000Y-113057000D01*
X158510000Y-111000000D02*
X158510000Y-111483000D01*
X158510000Y-113057000D02*
X158510000Y-113540000D01*
X158510000Y-113540000D02*
X157875000Y-113540000D01*
X160440000Y-111000000D02*
X161075000Y-111000000D01*
X160440000Y-111483000D02*
X160440000Y-111000000D01*
X160440000Y-113540000D02*
X160440000Y-113057000D01*
X161075000Y-111000000D02*
X161075000Y-111483000D01*
X161075000Y-113057000D02*
X161075000Y-113540000D01*
X161075000Y-113540000D02*
X160440000Y-113540000D01*
X162980000Y-111000000D02*
X163615000Y-111000000D01*
X162980000Y-111483000D02*
X162980000Y-111000000D01*
X162980000Y-113540000D02*
X162980000Y-113057000D01*
X163615000Y-111000000D02*
X163615000Y-111483000D01*
X163615000Y-113057000D02*
X163615000Y-113540000D01*
X163615000Y-113540000D02*
X162980000Y-113540000D01*
X165520000Y-111000000D02*
X166130000Y-111000000D01*
X165520000Y-111483000D02*
X165520000Y-111000000D01*
X165520000Y-113540000D02*
X165520000Y-113057000D01*
X166130000Y-111000000D02*
X166130000Y-111483000D01*
X166130000Y-113057000D02*
X166130000Y-113540000D01*
X166130000Y-113540000D02*
X165520000Y-113540000D01*
X168035000Y-111000000D02*
X168670000Y-111000000D01*
X168035000Y-111483000D02*
X168035000Y-111000000D01*
X168035000Y-113540000D02*
X168035000Y-113057000D01*
X168670000Y-111000000D02*
X168670000Y-111483000D01*
X168670000Y-113057000D02*
X168670000Y-113540000D01*
X168670000Y-113540000D02*
X168035000Y-113540000D01*
X170575000Y-111000000D02*
X171210000Y-111000000D01*
X170575000Y-111483000D02*
X170575000Y-111000000D01*
X170575000Y-113540000D02*
X170575000Y-113057000D01*
X171210000Y-111000000D02*
X171210000Y-111483000D01*
X171210000Y-113057000D02*
X171210000Y-113540000D01*
X171210000Y-113540000D02*
X170575000Y-113540000D01*
X173115000Y-110975000D02*
X173750000Y-110975000D01*
X173115000Y-111457000D02*
X173115000Y-110975000D01*
X173115000Y-113515000D02*
X173115000Y-113057000D01*
X173750000Y-110975000D02*
X173750000Y-111457000D01*
X173750000Y-113057000D02*
X173750000Y-113515000D01*
X173750000Y-113515000D02*
X173115000Y-113515000D01*
X175680000Y-111000000D02*
X176315000Y-111000000D01*
X175680000Y-111483000D02*
X175680000Y-111000000D01*
X175680000Y-113540000D02*
X175680000Y-113057000D01*
X176315000Y-111000000D02*
X176315000Y-111483000D01*
X176315000Y-113057000D02*
X176315000Y-113540000D01*
X176315000Y-113540000D02*
X175680000Y-113540000D01*
X178220000Y-111000000D02*
X178855000Y-111000000D01*
X178220000Y-111483000D02*
X178220000Y-111000000D01*
X178220000Y-113540000D02*
X178220000Y-113057000D01*
X178855000Y-111000000D02*
X178855000Y-111483000D01*
X178855000Y-113057000D02*
X178855000Y-113540000D01*
X178855000Y-113540000D02*
X178220000Y-113540000D01*
X180760000Y-111000000D02*
X181370000Y-111000000D01*
X180760000Y-111483000D02*
X180760000Y-111000000D01*
X180760000Y-113540000D02*
X180760000Y-113057000D01*
X181370000Y-111000000D02*
X181370000Y-111483000D01*
X181370000Y-113057000D02*
X181370000Y-113540000D01*
X181370000Y-113540000D02*
X180760000Y-113540000D01*
X183275000Y-111000000D02*
X183910000Y-111000000D01*
X183275000Y-111483000D02*
X183275000Y-111000000D01*
X183275000Y-113540000D02*
X183275000Y-113057000D01*
X183910000Y-111000000D02*
X183910000Y-111483000D01*
X183910000Y-113057000D02*
X183910000Y-113540000D01*
X183910000Y-113540000D02*
X183275000Y-113540000D01*
X185651000Y-111484000D02*
X111215000Y-111508000D01*
X185815000Y-111000000D02*
X186450000Y-111000000D01*
X185815000Y-111483000D02*
X185815000Y-111000000D01*
X185815000Y-113540000D02*
X185815000Y-113057000D01*
X186450000Y-111000000D02*
X186450000Y-111483000D01*
X186450000Y-113057000D02*
X186450000Y-113540000D01*
X186450000Y-113540000D02*
X185815000Y-113540000D01*
X189955000Y-111483000D02*
X185651000Y-111484000D01*
X189955000Y-113057000D02*
X189955000Y-111483000D01*
X191225000Y-107571000D02*
X109945000Y-107571000D01*
X191225000Y-116969000D02*
X191225000Y-107571000D01*
D12*
%TO.C,DD9*%
X180270000Y-74075000D02*
X180270000Y-72125000D01*
X180270000Y-74075000D02*
X180270000Y-77525000D01*
X189140000Y-74075000D02*
X189140000Y-72125000D01*
X189140000Y-74075000D02*
X189140000Y-76025000D01*
%TO.C,C9*%
X122365000Y-66154437D02*
X122365000Y-73810000D01*
X122365000Y-73810000D02*
X125215000Y-73810000D01*
X123429437Y-65090000D02*
X122365000Y-66154437D01*
X123429437Y-65090000D02*
X125215000Y-65090000D01*
X129235000Y-63850000D02*
X129235000Y-64850000D01*
X129735000Y-64350000D02*
X128735000Y-64350000D01*
X130020563Y-65090000D02*
X128235000Y-65090000D01*
X130020563Y-65090000D02*
X131085000Y-66154437D01*
X131085000Y-66154437D02*
X131085000Y-73810000D01*
X131085000Y-73810000D02*
X128235000Y-73810000D01*
%TO.C,C24*%
X143255000Y-88030000D02*
X143755000Y-88030000D01*
X143505000Y-87780000D02*
X143505000Y-88280000D01*
X143995000Y-88394437D02*
X143995000Y-88530000D01*
X143995000Y-88394437D02*
X145059437Y-87330000D01*
X143995000Y-90785563D02*
X143995000Y-90650000D01*
X143995000Y-90785563D02*
X145059437Y-91850000D01*
X145059437Y-87330000D02*
X148515000Y-87330000D01*
X145059437Y-91850000D02*
X148515000Y-91850000D01*
X148515000Y-87330000D02*
X148515000Y-88530000D01*
X148515000Y-91850000D02*
X148515000Y-90650000D01*
%TO.C,C37*%
X144025000Y-60450000D02*
X144525000Y-60450000D01*
X144275000Y-60200000D02*
X144275000Y-60700000D01*
X144765000Y-60814437D02*
X144765000Y-60950000D01*
X144765000Y-60814437D02*
X145829437Y-59750000D01*
X144765000Y-63205563D02*
X144765000Y-63070000D01*
X144765000Y-63205563D02*
X145829437Y-64270000D01*
X145829437Y-59750000D02*
X149285000Y-59750000D01*
X145829437Y-64270000D02*
X149285000Y-64270000D01*
X149285000Y-59750000D02*
X149285000Y-60950000D01*
X149285000Y-64270000D02*
X149285000Y-63070000D01*
%TO.C,X3*%
X161545000Y-54270000D02*
X162795000Y-54270000D01*
X161545000Y-64270000D02*
X161545000Y-54270000D01*
X162795000Y-44770000D02*
X162795000Y-54270000D01*
X162795000Y-44770000D02*
X170295000Y-44770000D01*
X170295000Y-54270000D02*
X170295000Y-44770000D01*
X170295000Y-54270000D02*
X171545000Y-54270000D01*
X170295000Y-54270000D02*
X171545000Y-54270000D01*
X171545000Y-64270000D02*
X161545000Y-64270000D01*
X171545000Y-64270000D02*
X171545000Y-54270000D01*
%TO.C,R35*%
X142302500Y-61527258D02*
X142302500Y-61052742D01*
X143347500Y-61527258D02*
X143347500Y-61052742D01*
%TO.C,R10*%
X144082500Y-100947258D02*
X144082500Y-100472742D01*
X145127500Y-100947258D02*
X145127500Y-100472742D01*
%TO.C,R9*%
X145682500Y-100947258D02*
X145682500Y-100472742D01*
X146727500Y-100947258D02*
X146727500Y-100472742D01*
%TO.C,C36*%
X143895000Y-55290000D02*
X144395000Y-55290000D01*
X144145000Y-55040000D02*
X144145000Y-55540000D01*
X144635000Y-55654437D02*
X144635000Y-55790000D01*
X144635000Y-55654437D02*
X145699437Y-54590000D01*
X144635000Y-58045563D02*
X144635000Y-57910000D01*
X144635000Y-58045563D02*
X145699437Y-59110000D01*
X145699437Y-54590000D02*
X149155000Y-54590000D01*
X145699437Y-59110000D02*
X149155000Y-59110000D01*
X149155000Y-54590000D02*
X149155000Y-55790000D01*
X149155000Y-59110000D02*
X149155000Y-57910000D01*
%TD*%
G36*
X153693039Y-135019685D02*
G01*
X153738794Y-135072489D01*
X153750000Y-135124000D01*
X153750000Y-139626000D01*
X153730315Y-139693039D01*
X153677511Y-139738794D01*
X153626000Y-139750000D01*
X148374000Y-139750000D01*
X148306961Y-139730315D01*
X148261206Y-139677511D01*
X148250000Y-139626000D01*
X148250000Y-137474265D01*
X149417466Y-137474265D01*
X149417466Y-137725734D01*
X149456801Y-137974090D01*
X149534508Y-138213244D01*
X149648668Y-138437293D01*
X149796463Y-138640717D01*
X149796467Y-138640722D01*
X149974277Y-138818532D01*
X149974282Y-138818536D01*
X150177706Y-138966331D01*
X150401755Y-139080491D01*
X150640909Y-139158198D01*
X150889266Y-139197534D01*
X151140734Y-139197534D01*
X151389090Y-139158198D01*
X151628244Y-139080491D01*
X151852293Y-138966331D01*
X152055717Y-138818536D01*
X152055722Y-138818532D01*
X152233532Y-138640722D01*
X152233536Y-138640717D01*
X152381331Y-138437293D01*
X152495491Y-138213244D01*
X152573197Y-137974090D01*
X152612534Y-137725725D01*
X152615000Y-137600000D01*
X152612534Y-137474274D01*
X152573197Y-137225909D01*
X152495491Y-136986755D01*
X152381331Y-136762706D01*
X152233536Y-136559282D01*
X152233532Y-136559277D01*
X152055722Y-136381467D01*
X152055717Y-136381463D01*
X151852293Y-136233668D01*
X151628244Y-136119508D01*
X151389090Y-136041801D01*
X151140734Y-136002466D01*
X150889266Y-136002466D01*
X150640909Y-136041801D01*
X150401755Y-136119508D01*
X150177706Y-136233668D01*
X149974282Y-136381463D01*
X149974277Y-136381467D01*
X149796467Y-136559277D01*
X149796463Y-136559282D01*
X149648668Y-136762706D01*
X149534508Y-136986755D01*
X149456801Y-137225909D01*
X149417466Y-137474265D01*
X148250000Y-137474265D01*
X148250000Y-135124000D01*
X148269685Y-135056961D01*
X148322489Y-135011206D01*
X148374000Y-135000000D01*
X153626000Y-135000000D01*
X153693039Y-135019685D01*
G37*
G36*
X112693039Y-73769685D02*
G01*
X112738794Y-73822489D01*
X112750000Y-73874000D01*
X112750000Y-78376000D01*
X112730315Y-78443039D01*
X112677511Y-78488794D01*
X112626000Y-78500000D01*
X107374000Y-78500000D01*
X107306961Y-78480315D01*
X107261206Y-78427511D01*
X107250000Y-78376000D01*
X107250000Y-76144265D01*
X108297466Y-76144265D01*
X108297466Y-76395734D01*
X108336801Y-76644090D01*
X108414508Y-76883244D01*
X108528668Y-77107293D01*
X108676463Y-77310717D01*
X108676467Y-77310722D01*
X108854277Y-77488532D01*
X108854282Y-77488536D01*
X109057706Y-77636331D01*
X109281755Y-77750491D01*
X109520909Y-77828198D01*
X109769266Y-77867534D01*
X110020734Y-77867534D01*
X110269090Y-77828198D01*
X110508244Y-77750491D01*
X110732293Y-77636331D01*
X110935717Y-77488536D01*
X110935722Y-77488532D01*
X111113532Y-77310722D01*
X111113536Y-77310717D01*
X111261331Y-77107293D01*
X111375491Y-76883244D01*
X111453197Y-76644090D01*
X111492534Y-76395725D01*
X111495000Y-76270000D01*
X111492534Y-76144274D01*
X111453197Y-75895909D01*
X111375491Y-75656755D01*
X111261331Y-75432706D01*
X111113536Y-75229282D01*
X111113532Y-75229277D01*
X110935722Y-75051467D01*
X110935717Y-75051463D01*
X110732293Y-74903668D01*
X110508244Y-74789508D01*
X110269090Y-74711801D01*
X110020734Y-74672466D01*
X109769266Y-74672466D01*
X109520909Y-74711801D01*
X109281755Y-74789508D01*
X109057706Y-74903668D01*
X108854282Y-75051463D01*
X108854277Y-75051467D01*
X108676467Y-75229277D01*
X108676463Y-75229282D01*
X108528668Y-75432706D01*
X108414508Y-75656755D01*
X108336801Y-75895909D01*
X108297466Y-76144265D01*
X107250000Y-76144265D01*
X107250000Y-73874000D01*
X107269685Y-73806961D01*
X107322489Y-73761206D01*
X107374000Y-73750000D01*
X112626000Y-73750000D01*
X112693039Y-73769685D01*
G37*
G36*
X192693039Y-81519685D02*
G01*
X192738794Y-81572489D01*
X192750000Y-81624000D01*
X192750000Y-86376000D01*
X192730315Y-86443039D01*
X192677511Y-86488794D01*
X192626000Y-86500000D01*
X187624000Y-86500000D01*
X187556961Y-86480315D01*
X187511206Y-86427511D01*
X187500000Y-86376000D01*
X187500000Y-83844265D01*
X188467466Y-83844265D01*
X188467466Y-84095734D01*
X188506801Y-84344090D01*
X188584508Y-84583244D01*
X188698668Y-84807293D01*
X188846463Y-85010717D01*
X188846467Y-85010722D01*
X189024277Y-85188532D01*
X189024282Y-85188536D01*
X189227706Y-85336331D01*
X189451755Y-85450491D01*
X189690909Y-85528198D01*
X189939266Y-85567534D01*
X190190734Y-85567534D01*
X190439090Y-85528198D01*
X190678244Y-85450491D01*
X190902293Y-85336331D01*
X191105717Y-85188536D01*
X191105722Y-85188532D01*
X191283532Y-85010722D01*
X191283536Y-85010717D01*
X191431331Y-84807293D01*
X191545491Y-84583244D01*
X191623197Y-84344090D01*
X191662534Y-84095725D01*
X191665000Y-83970000D01*
X191662534Y-83844274D01*
X191623197Y-83595909D01*
X191545491Y-83356755D01*
X191431331Y-83132706D01*
X191283536Y-82929282D01*
X191283532Y-82929277D01*
X191105722Y-82751467D01*
X191105717Y-82751463D01*
X190902293Y-82603668D01*
X190678244Y-82489508D01*
X190439090Y-82411801D01*
X190190734Y-82372466D01*
X189939266Y-82372466D01*
X189690909Y-82411801D01*
X189451755Y-82489508D01*
X189227706Y-82603668D01*
X189024282Y-82751463D01*
X189024277Y-82751467D01*
X188846467Y-82929277D01*
X188846463Y-82929282D01*
X188698668Y-83132706D01*
X188584508Y-83356755D01*
X188506801Y-83595909D01*
X188467466Y-83844265D01*
X187500000Y-83844265D01*
X187500000Y-81624000D01*
X187519685Y-81556961D01*
X187572489Y-81511206D01*
X187624000Y-81500000D01*
X192626000Y-81500000D01*
X192693039Y-81519685D01*
G37*
G36*
X114943039Y-129269685D02*
G01*
X114988794Y-129322489D01*
X115000000Y-129374000D01*
X115000000Y-133876000D01*
X114980315Y-133943039D01*
X114927511Y-133988794D01*
X114876000Y-134000000D01*
X109624000Y-134000000D01*
X109556961Y-133980315D01*
X109511206Y-133927511D01*
X109500000Y-133876000D01*
X109500000Y-131654265D01*
X110547466Y-131654265D01*
X110547466Y-131905734D01*
X110586801Y-132154090D01*
X110664508Y-132393244D01*
X110778668Y-132617293D01*
X110926463Y-132820717D01*
X110926467Y-132820722D01*
X111104277Y-132998532D01*
X111104282Y-132998536D01*
X111307706Y-133146331D01*
X111531755Y-133260491D01*
X111770909Y-133338198D01*
X112019266Y-133377534D01*
X112270734Y-133377534D01*
X112519090Y-133338198D01*
X112758244Y-133260491D01*
X112982293Y-133146331D01*
X113185717Y-132998536D01*
X113185722Y-132998532D01*
X113363532Y-132820722D01*
X113363536Y-132820717D01*
X113511331Y-132617293D01*
X113625491Y-132393244D01*
X113703197Y-132154090D01*
X113742534Y-131905725D01*
X113745000Y-131780000D01*
X113742534Y-131654274D01*
X113703197Y-131405909D01*
X113625491Y-131166755D01*
X113511331Y-130942706D01*
X113363536Y-130739282D01*
X113363532Y-130739277D01*
X113185722Y-130561467D01*
X113185717Y-130561463D01*
X112982293Y-130413668D01*
X112758244Y-130299508D01*
X112519090Y-130221801D01*
X112270734Y-130182466D01*
X112019266Y-130182466D01*
X111770909Y-130221801D01*
X111531755Y-130299508D01*
X111307706Y-130413668D01*
X111104282Y-130561463D01*
X111104277Y-130561467D01*
X110926467Y-130739277D01*
X110926463Y-130739282D01*
X110778668Y-130942706D01*
X110664508Y-131166755D01*
X110586801Y-131405909D01*
X110547466Y-131654265D01*
X109500000Y-131654265D01*
X109500000Y-129374000D01*
X109519685Y-129306961D01*
X109572489Y-129261206D01*
X109624000Y-129250000D01*
X114876000Y-129250000D01*
X114943039Y-129269685D01*
G37*
D15*
X191665000Y-83970000D02*
G75*
G02*
X188465000Y-83970000I-1600000J0D01*
G01*
X188465000Y-83970000D02*
G75*
G02*
X191665000Y-83970000I1600000J0D01*
G01*
X113745000Y-131780000D02*
G75*
G02*
X110545000Y-131780000I-1600000J0D01*
G01*
X110545000Y-131780000D02*
G75*
G02*
X113745000Y-131780000I1600000J0D01*
G01*
D16*
X195135000Y-54130000D02*
X195135000Y-144130000D01*
D15*
X111495000Y-76270000D02*
G75*
G02*
X108295000Y-76270000I-1600000J0D01*
G01*
X108295000Y-76270000D02*
G75*
G02*
X111495000Y-76270000I1600000J0D01*
G01*
D16*
X195135000Y-54130000D02*
X105135000Y-54130000D01*
D15*
X152615000Y-137600000D02*
G75*
G02*
X149415000Y-137600000I-1600000J0D01*
G01*
X149415000Y-137600000D02*
G75*
G02*
X152615000Y-137600000I1600000J0D01*
G01*
D16*
X105135000Y-144130000D02*
X105135000Y-54130000D01*
X195135000Y-144130000D02*
X105135000Y-144130000D01*
M02*
