%TF.GenerationSoftware,KiCad,Pcbnew,8.0.7-1.fc39*%
%TF.CreationDate,2025-01-27T15:10:01+03:00*%
%TF.ProjectId,rev.1_f,7265762e-315f-4662-9e6b-696361645f70,rev?*%
%TF.SameCoordinates,Original*%
%TF.FileFunction,Soldermask,Top*%
%TF.FilePolarity,Negative*%
%FSLAX46Y46*%
G04 Gerber Fmt 4.6, Leading zero omitted, Abs format (unit mm)*
G04 Created by KiCad (PCBNEW 8.0.7-1.fc39) date 2025-01-27 15:10:01*
%MOMM*%
%LPD*%
G01*
G04 APERTURE LIST*
G04 Aperture macros list*
%AMRoundRect*
0 Rectangle with rounded corners*
0 $1 Rounding radius*
0 $2 $3 $4 $5 $6 $7 $8 $9 X,Y pos of 4 corners*
0 Add a 4 corners polygon primitive as box body*
4,1,4,$2,$3,$4,$5,$6,$7,$8,$9,$2,$3,0*
0 Add four circle primitives for the rounded corners*
1,1,$1+$1,$2,$3*
1,1,$1+$1,$4,$5*
1,1,$1+$1,$6,$7*
1,1,$1+$1,$8,$9*
0 Add four rect primitives between the rounded corners*
20,1,$1+$1,$2,$3,$4,$5,0*
20,1,$1+$1,$4,$5,$6,$7,0*
20,1,$1+$1,$6,$7,$8,$9,0*
20,1,$1+$1,$8,$9,$2,$3,0*%
G04 Aperture macros list end*
%ADD10RoundRect,0.200000X-0.275000X0.200000X-0.275000X-0.200000X0.275000X-0.200000X0.275000X0.200000X0*%
%ADD11C,4.000000*%
%ADD12R,1.600000X1.600000*%
%ADD13C,1.600000*%
%ADD14RoundRect,0.225000X-0.250000X0.225000X-0.250000X-0.225000X0.250000X-0.225000X0.250000X0.225000X0*%
%ADD15RoundRect,0.200000X0.275000X-0.200000X0.275000X0.200000X-0.275000X0.200000X-0.275000X-0.200000X0*%
%ADD16RoundRect,0.218750X-0.218750X-0.256250X0.218750X-0.256250X0.218750X0.256250X-0.218750X0.256250X0*%
%ADD17RoundRect,0.150000X-0.150000X0.825000X-0.150000X-0.825000X0.150000X-0.825000X0.150000X0.825000X0*%
%ADD18C,1.500000*%
%ADD19R,3.000000X2.000000*%
%ADD20R,2.000000X3.000000*%
%ADD21RoundRect,0.225000X-0.225000X-0.250000X0.225000X-0.250000X0.225000X0.250000X-0.225000X0.250000X0*%
%ADD22RoundRect,0.250000X-1.050000X-0.550000X1.050000X-0.550000X1.050000X0.550000X-1.050000X0.550000X0*%
%ADD23RoundRect,0.150000X0.875000X0.150000X-0.875000X0.150000X-0.875000X-0.150000X0.875000X-0.150000X0*%
%ADD24R,4.400000X1.800000*%
%ADD25O,4.000000X1.800000*%
%ADD26O,1.800000X4.000000*%
%ADD27RoundRect,0.200000X0.200000X0.275000X-0.200000X0.275000X-0.200000X-0.275000X0.200000X-0.275000X0*%
%ADD28C,2.600000*%
%ADD29RoundRect,0.250000X-1.000000X1.950000X-1.000000X-1.950000X1.000000X-1.950000X1.000000X1.950000X0*%
%ADD30RoundRect,0.218750X-0.256250X0.218750X-0.256250X-0.218750X0.256250X-0.218750X0.256250X0.218750X0*%
%ADD31RoundRect,0.250000X1.000000X-1.750000X1.000000X1.750000X-1.000000X1.750000X-1.000000X-1.750000X0*%
%ADD32R,1.800000X1.800000*%
%ADD33C,1.800000*%
%ADD34RoundRect,0.250000X0.550000X-1.050000X0.550000X1.050000X-0.550000X1.050000X-0.550000X-1.050000X0*%
%ADD35RoundRect,0.150000X0.150000X-0.825000X0.150000X0.825000X-0.150000X0.825000X-0.150000X-0.825000X0*%
%ADD36O,1.600000X1.600000*%
%TA.AperFunction,Profile*%
%ADD37C,0.200000*%
%TD*%
%TA.AperFunction,Profile*%
%ADD38C,0.100000*%
%TD*%
G04 APERTURE END LIST*
D10*
%TO.C,R15*%
X156595000Y-92455000D03*
X156595000Y-94105000D03*
%TD*%
D11*
%TO.C,X5*%
X157350000Y-137580000D03*
X190650000Y-137580000D03*
D12*
X164305000Y-137280000D03*
D13*
X167075000Y-137280000D03*
X169845000Y-137280000D03*
X172615000Y-137280000D03*
X175385000Y-137280000D03*
X178155000Y-137280000D03*
X180925000Y-137280000D03*
X183695000Y-137280000D03*
X165690000Y-140120000D03*
X168460000Y-140120000D03*
X171230000Y-140120000D03*
X174000000Y-140120000D03*
X176770000Y-140120000D03*
X179540000Y-140120000D03*
X182310000Y-140120000D03*
%TD*%
D14*
%TO.C,C43*%
X189305000Y-66360000D03*
X189305000Y-67910000D03*
%TD*%
D15*
%TO.C,R34*%
X142655000Y-56975000D03*
X142655000Y-55325000D03*
%TD*%
D16*
%TO.C,L5*%
X138327500Y-104270000D03*
X139902500Y-104270000D03*
%TD*%
D17*
%TO.C,DA2*%
X140755000Y-56270000D03*
X139485000Y-56270000D03*
X138215000Y-56270000D03*
X136945000Y-56270000D03*
X136945000Y-61220000D03*
X138215000Y-61220000D03*
X139485000Y-61220000D03*
X140755000Y-61220000D03*
%TD*%
D18*
%TO.C,SW2*%
X120125000Y-61150000D03*
X120125000Y-58610000D03*
X120125000Y-56070000D03*
X126125000Y-61150000D03*
X126125000Y-58610000D03*
X126125000Y-56070000D03*
%TD*%
D13*
%TO.C,X4*%
X155745000Y-63320000D03*
D19*
X155745000Y-58820000D03*
D20*
X159495000Y-62320000D03*
X151995000Y-62320000D03*
%TD*%
D14*
%TO.C,C27*%
X133285000Y-61795000D03*
X133285000Y-63345000D03*
%TD*%
D21*
%TO.C,C30*%
X190510000Y-70770000D03*
X192060000Y-70770000D03*
%TD*%
D10*
%TO.C,R14*%
X159905000Y-92985000D03*
X159905000Y-94635000D03*
%TD*%
D11*
%TO.C,X2*%
X111425000Y-137710000D03*
X144725000Y-137710000D03*
D12*
X118380000Y-137410000D03*
D13*
X121150000Y-137410000D03*
X123920000Y-137410000D03*
X126690000Y-137410000D03*
X129460000Y-137410000D03*
X132230000Y-137410000D03*
X135000000Y-137410000D03*
X137770000Y-137410000D03*
X119765000Y-140250000D03*
X122535000Y-140250000D03*
X125305000Y-140250000D03*
X128075000Y-140250000D03*
X130845000Y-140250000D03*
X133615000Y-140250000D03*
X136385000Y-140250000D03*
%TD*%
D22*
%TO.C,C23*%
X151235000Y-87160000D03*
X154835000Y-87160000D03*
%TD*%
D10*
%TO.C,R17*%
X149755000Y-92445000D03*
X149755000Y-94095000D03*
%TD*%
D23*
%TO.C,DD6*%
X124350000Y-95670000D03*
X124350000Y-94400000D03*
X124350000Y-93130000D03*
X124350000Y-91860000D03*
X124350000Y-90590000D03*
X124350000Y-89320000D03*
X124350000Y-88050000D03*
X124350000Y-86780000D03*
X124350000Y-85510000D03*
X124350000Y-84240000D03*
X124350000Y-82970000D03*
X124350000Y-81700000D03*
X124350000Y-80430000D03*
X124350000Y-79160000D03*
X111650000Y-79160000D03*
X111650000Y-80430000D03*
X111650000Y-81700000D03*
X111650000Y-82970000D03*
X111650000Y-84240000D03*
X111650000Y-85510000D03*
X111650000Y-86780000D03*
X111650000Y-88050000D03*
X111650000Y-89320000D03*
X111650000Y-90590000D03*
X111650000Y-91860000D03*
X111650000Y-93130000D03*
X111650000Y-94400000D03*
X111650000Y-95670000D03*
%TD*%
D24*
%TO.C,X1*%
X112215000Y-61710000D03*
D25*
X112215000Y-55910000D03*
D26*
X107415000Y-58710000D03*
%TD*%
D27*
%TO.C,R2*%
X157890000Y-118750000D03*
X156240000Y-118750000D03*
%TD*%
D21*
%TO.C,C8*%
X138410000Y-102620000D03*
X139960000Y-102620000D03*
%TD*%
D15*
%TO.C,R37*%
X190105000Y-75610000D03*
X190105000Y-73960000D03*
%TD*%
D21*
%TO.C,C31*%
X190550000Y-80080000D03*
X192100000Y-80080000D03*
%TD*%
D10*
%TO.C,R18*%
X152935000Y-92455000D03*
X152935000Y-94105000D03*
%TD*%
D28*
%TO.C,L4*%
X108925000Y-69180000D03*
X108925000Y-66180000D03*
%TD*%
D18*
%TO.C,SW1*%
X151435000Y-131770000D03*
X148895000Y-131770000D03*
X146355000Y-131770000D03*
X151435000Y-125770000D03*
X148895000Y-125770000D03*
X146355000Y-125770000D03*
%TD*%
D13*
%TO.C,X6*%
X177085000Y-63250000D03*
D19*
X177085000Y-58750000D03*
D20*
X180835000Y-62250000D03*
X173335000Y-62250000D03*
%TD*%
D29*
%TO.C,C3*%
X117305000Y-65680000D03*
X117305000Y-73080000D03*
%TD*%
D10*
%TO.C,R13*%
X158275000Y-92965000D03*
X158275000Y-94615000D03*
%TD*%
D30*
%TO.C,L15*%
X187715000Y-66342500D03*
X187715000Y-67917500D03*
%TD*%
D31*
%TO.C,C41*%
X188595000Y-62950000D03*
X188595000Y-56850000D03*
%TD*%
D32*
%TO.C,D3*%
X192695000Y-131540000D03*
D33*
X192695000Y-129000000D03*
%TD*%
D34*
%TO.C,C28*%
X132975000Y-59420000D03*
X132975000Y-55820000D03*
%TD*%
D10*
%TO.C,R16*%
X151385000Y-92455000D03*
X151385000Y-94105000D03*
%TD*%
D12*
%TO.C,XP1*%
X187415000Y-109730000D03*
D13*
X184875000Y-109730000D03*
X182335000Y-109730000D03*
X179795000Y-109730000D03*
X177255000Y-109730000D03*
X174715000Y-109730000D03*
X172175000Y-109730000D03*
X169635000Y-109730000D03*
X167095000Y-109730000D03*
X164555000Y-109730000D03*
X162015000Y-109730000D03*
X159475000Y-109730000D03*
X156935000Y-109730000D03*
X154395000Y-109730000D03*
X151855000Y-109730000D03*
X149315000Y-109730000D03*
X146775000Y-109730000D03*
X144235000Y-109730000D03*
X141695000Y-109730000D03*
X139155000Y-109730000D03*
X136615000Y-109730000D03*
X134075000Y-109730000D03*
X131535000Y-109730000D03*
X128995000Y-109730000D03*
X126455000Y-109730000D03*
X123915000Y-109730000D03*
X121375000Y-109730000D03*
X118835000Y-109730000D03*
X116295000Y-109730000D03*
X113755000Y-109730000D03*
X187415000Y-114810000D03*
X184875000Y-114810000D03*
X182335000Y-114810000D03*
X179795000Y-114810000D03*
X177255000Y-114810000D03*
X174715000Y-114810000D03*
X172175000Y-114810000D03*
X169635000Y-114810000D03*
X167095000Y-114810000D03*
X164555000Y-114810000D03*
X162015000Y-114810000D03*
X159475000Y-114810000D03*
X156935000Y-114810000D03*
X154395000Y-114810000D03*
X151855000Y-114810000D03*
X149315000Y-114810000D03*
X146775000Y-114810000D03*
X144235000Y-114810000D03*
X141695000Y-114810000D03*
X139155000Y-114810000D03*
X136615000Y-114810000D03*
X134075000Y-114810000D03*
X131535000Y-114810000D03*
X128995000Y-114810000D03*
X126455000Y-114810000D03*
X123915000Y-114810000D03*
X121375000Y-114810000D03*
X118835000Y-114810000D03*
X116295000Y-114810000D03*
X113755000Y-114810000D03*
%TD*%
D35*
%TO.C,DD9*%
X180895000Y-76550000D03*
X182165000Y-76550000D03*
X183435000Y-76550000D03*
X184705000Y-76550000D03*
X185975000Y-76550000D03*
X187245000Y-76550000D03*
X188515000Y-76550000D03*
X188515000Y-71600000D03*
X187245000Y-71600000D03*
X185975000Y-71600000D03*
X184705000Y-71600000D03*
X183435000Y-71600000D03*
X182165000Y-71600000D03*
X180895000Y-71600000D03*
%TD*%
D29*
%TO.C,C9*%
X126725000Y-65750000D03*
X126725000Y-73150000D03*
%TD*%
D22*
%TO.C,C24*%
X144455000Y-89590000D03*
X148055000Y-89590000D03*
%TD*%
%TO.C,C37*%
X145225000Y-62010000D03*
X148825000Y-62010000D03*
%TD*%
D13*
%TO.C,X3*%
X166545000Y-63270000D03*
D19*
X166545000Y-58770000D03*
D20*
X170295000Y-62270000D03*
X162795000Y-62270000D03*
%TD*%
D15*
%TO.C,R35*%
X142825000Y-62115000D03*
X142825000Y-60465000D03*
%TD*%
%TO.C,R10*%
X144605000Y-101535000D03*
X144605000Y-99885000D03*
%TD*%
%TO.C,R9*%
X146205000Y-101535000D03*
X146205000Y-99885000D03*
%TD*%
D22*
%TO.C,C36*%
X145095000Y-56850000D03*
X148695000Y-56850000D03*
%TD*%
D18*
%TO.C,Z1*%
X190900000Y-72450000D03*
X190900000Y-77330000D03*
%TD*%
D12*
%TO.C,DD2*%
X181770000Y-82865000D03*
D36*
X179230000Y-82865000D03*
X176690000Y-82865000D03*
X174150000Y-82865000D03*
X171610000Y-82865000D03*
X169070000Y-82865000D03*
X166530000Y-82865000D03*
X163990000Y-82865000D03*
X161450000Y-82865000D03*
X158910000Y-82865000D03*
X156370000Y-82865000D03*
X153830000Y-82865000D03*
X151290000Y-82865000D03*
X148750000Y-82865000D03*
X146210000Y-82865000D03*
X143670000Y-82865000D03*
X141130000Y-82865000D03*
X138590000Y-82865000D03*
X136050000Y-82865000D03*
X133510000Y-82865000D03*
X133510000Y-67625000D03*
X136050000Y-67625000D03*
X138590000Y-67625000D03*
X141130000Y-67625000D03*
X143670000Y-67625000D03*
X146210000Y-67625000D03*
X148750000Y-67625000D03*
X151290000Y-67625000D03*
X153830000Y-67625000D03*
X156370000Y-67625000D03*
X158910000Y-67625000D03*
X161450000Y-67625000D03*
X163990000Y-67625000D03*
X166530000Y-67625000D03*
X169070000Y-67625000D03*
X171610000Y-67625000D03*
X174150000Y-67625000D03*
X176690000Y-67625000D03*
X179230000Y-67625000D03*
X181770000Y-67625000D03*
%TD*%
D12*
%TO.C,DD1*%
X143410000Y-105785000D03*
D36*
X145950000Y-105785000D03*
X148490000Y-105785000D03*
X151030000Y-105785000D03*
X153570000Y-105785000D03*
X156110000Y-105785000D03*
X158650000Y-105785000D03*
X161190000Y-105785000D03*
X163730000Y-105785000D03*
X166270000Y-105785000D03*
X168810000Y-105785000D03*
X171350000Y-105785000D03*
X173890000Y-105785000D03*
X176430000Y-105785000D03*
X178970000Y-105785000D03*
X181510000Y-105785000D03*
X184050000Y-105785000D03*
X186590000Y-105785000D03*
X189130000Y-105785000D03*
X191670000Y-105785000D03*
X191670000Y-121025000D03*
X189130000Y-121025000D03*
X186590000Y-121025000D03*
X184050000Y-121025000D03*
X181510000Y-121025000D03*
X178970000Y-121025000D03*
X176430000Y-121025000D03*
X173890000Y-121025000D03*
X171350000Y-121025000D03*
X168810000Y-121025000D03*
X166270000Y-121025000D03*
X163730000Y-121025000D03*
X161190000Y-121025000D03*
X158650000Y-121025000D03*
X156110000Y-121025000D03*
X153570000Y-121025000D03*
X151030000Y-121025000D03*
X148490000Y-121025000D03*
X145950000Y-121025000D03*
X143410000Y-121025000D03*
%TD*%
D37*
X191665000Y-83970000D02*
G75*
G02*
X188465000Y-83970000I-1600000J0D01*
G01*
X188465000Y-83970000D02*
G75*
G02*
X191665000Y-83970000I1600000J0D01*
G01*
X113745000Y-131780000D02*
G75*
G02*
X110545000Y-131780000I-1600000J0D01*
G01*
X110545000Y-131780000D02*
G75*
G02*
X113745000Y-131780000I1600000J0D01*
G01*
D38*
X195135000Y-54130000D02*
X195135000Y-144130000D01*
D37*
X111495000Y-76270000D02*
G75*
G02*
X108295000Y-76270000I-1600000J0D01*
G01*
X108295000Y-76270000D02*
G75*
G02*
X111495000Y-76270000I1600000J0D01*
G01*
D38*
X195135000Y-54130000D02*
X105135000Y-54130000D01*
D37*
X152615000Y-137600000D02*
G75*
G02*
X149415000Y-137600000I-1600000J0D01*
G01*
X149415000Y-137600000D02*
G75*
G02*
X152615000Y-137600000I1600000J0D01*
G01*
D38*
X105135000Y-144130000D02*
X105135000Y-54130000D01*
X195135000Y-144130000D02*
X105135000Y-144130000D01*
M02*
