M48
; DRILL file {KiCad 8.0.7-1.fc39} date 2025-01-27T15:10:25+0300
; FORMAT={-:-/ absolute / metric / decimal}
; #@! TF.CreationDate,2025-01-27T15:10:25+03:00
; #@! TF.GenerationSoftware,Kicad,Pcbnew,8.0.7-1.fc39
; #@! TF.FileFunction,Plated,1,2,PTH
FMAT,2
METRIC
; #@! TA.AperFunction,Plated,PTH,ViaDrill
T1C0.500
; #@! TA.AperFunction,Plated,PTH,ComponentDrill
T2C0.800
; #@! TA.AperFunction,Plated,PTH,ComponentDrill
T3C0.900
; #@! TA.AperFunction,Plated,PTH,ComponentDrill
T4C1.000
; #@! TA.AperFunction,Plated,PTH,ComponentDrill
T5C1.100
; #@! TA.AperFunction,Plated,PTH,ComponentDrill
T6C1.300
; #@! TA.AperFunction,Plated,PTH,ComponentDrill
T7C1.500
; #@! TA.AperFunction,Plated,PTH,ComponentDrill
T8C3.200
%
G90
G05
T1
X107.245Y-121.75
X108.205Y-79.07
X108.205Y-85.796
X110.5Y-72.0
X111.555Y-96.75
X112.425Y-67.7
X113.025Y-96.78
X113.135Y-82.75
X113.475Y-89.38
X113.75Y-122.0
X114.525Y-90.53
X114.865Y-86.72
X115.225Y-85.18
X115.345Y-103.31
X116.635Y-121.9
X116.807Y-107.786
X116.84Y-127.0
X116.84Y-129.54
X117.486Y-100.188
X117.535Y-140.27
X117.75Y-63.5
X117.765Y-103.61
X118.5Y-83.9
X118.875Y-112.83
X118.915Y-104.61
X119.043Y-86.209
X119.215Y-102.59
X119.38Y-127.0
X119.38Y-129.54
X120.371Y-83.671
X120.459Y-100.312
X120.5Y-93.0
X120.785Y-120.89
X121.327Y-122.53
X121.4Y-96.525
X121.92Y-127.0
X121.92Y-129.54
X122.25Y-105.622
X122.515Y-69.92
X122.555Y-79.17
X122.6Y-95.67
X122.785Y-111.185
X123.529Y-97.958
X125.245Y-108.34
X126.016Y-78.69
X126.49Y-99.95
X127.0Y-121.92
X127.0Y-124.46
X127.0Y-127.0
X127.725Y-62.56
X128.026Y-104.403
X128.105Y-138.37
X128.2Y-97.916
X128.3Y-82.2
X128.561Y-93.22
X128.775Y-94.657
X128.935Y-107.71
X129.245Y-84.6
X129.486Y-60.62
X129.54Y-121.92
X129.54Y-124.46
X129.54Y-127.0
X129.705Y-105.9
X130.446Y-60.065
X131.175Y-55.38
X131.535Y-107.63
X132.055Y-97.03
X132.065Y-95.87
X132.08Y-121.92
X132.08Y-124.46
X132.08Y-127.0
X132.405Y-98.51
X132.545Y-106.22
X133.145Y-132.48
X133.595Y-136.18
X134.135Y-119.67
X134.229Y-84.351
X134.295Y-123.42
X134.485Y-56.405
X134.62Y-127.0
X134.965Y-61.47
X135.222Y-58.976
X136.214Y-108.012
X136.725Y-118.76
X136.765Y-121.57
X137.555Y-126.83
X137.595Y-123.71
X137.9Y-78.6
X137.965Y-140.35
X138.025Y-99.27
X138.033Y-97.979
X138.4Y-69.5
X138.669Y-87.769
X138.815Y-57.829
X139.255Y-128.28
X139.355Y-124.12
X139.365Y-138.65
X139.715Y-88.14
X139.755Y-84.75
X140.055Y-136.81
X140.061Y-118.095
X140.068Y-54.771
X140.115Y-105.62
X140.645Y-134.45
X140.965Y-128.33
X140.995Y-84.69
X141.065Y-132.47
X141.462Y-93.945
X141.611Y-87.997
X141.655Y-103.84
X141.715Y-137.51
X141.755Y-54.85
X142.215Y-89.33
X142.247Y-94.73
X142.415Y-85.28
X142.484Y-123.38
X142.515Y-58.23
X142.535Y-101.72
X142.557Y-59.339
X142.815Y-99.23
X142.965Y-129.54
X143.358Y-125.996
X143.382Y-102.939
X143.405Y-131.17
X143.6Y-76.2
X143.805Y-107.98
X143.92Y-99.136
X144.165Y-118.095
X144.185Y-96.387
X144.324Y-91.73
X144.475Y-98.175
X144.525Y-103.4
X144.935Y-104.57
X144.947Y-124.102
X145.965Y-85.9
X146.025Y-103.4
X146.165Y-80.36
X146.326Y-95.931
X146.355Y-128.08
X146.508Y-98.773
X148.011Y-101.911
X148.524Y-123.345
X148.544Y-94.276
X148.945Y-137.46
X149.255Y-111.48
X149.53Y-97.231
X149.53Y-100.182
X149.795Y-103.95
X150.15Y-95.873
X150.379Y-112.861
X150.538Y-115.696
X151.045Y-123.345
X151.252Y-95.739
X151.4Y-77.3
X151.679Y-73.5
X151.88Y-100.087
X152.995Y-135.26
X153.568Y-123.345
X153.595Y-118.02
X153.625Y-98.37
X154.545Y-137.3
X155.557Y-134.665
X156.795Y-128.73
X158.021Y-130.842
X158.691Y-128.494
X159.365Y-140.51
X159.589Y-125.594
X159.664Y-134.145
X159.8Y-88.0
X160.013Y-129.512
X160.375Y-135.01
X160.641Y-126.725
X161.985Y-96.8
X162.104Y-134.613
X162.19Y-85.17
X162.215Y-128.147
X162.85Y-123.701
X162.991Y-128.943
X163.095Y-88.47
X163.415Y-97.5
X163.93Y-129.535
X164.452Y-138.912
X164.64Y-141.204
X164.795Y-130.24
X165.72Y-132.875
X166.528Y-130.547
X166.549Y-128.78
X167.335Y-123.86
X167.638Y-130.44
X168.46Y-137.882
X168.765Y-134.65
X168.958Y-85.025
X169.041Y-123.301
X169.365Y-129.16
X169.845Y-139.519
X169.955Y-126.737
X170.911Y-135.067
X171.283Y-133.749
X172.0Y-98.0
X172.085Y-96.03
X172.634Y-129.613
X173.463Y-128.875
X173.667Y-136.196
X174.363Y-123.197
X175.045Y-129.98
X175.234Y-133.545
X175.725Y-64.71
X175.91Y-96.054
X176.085Y-92.09
X176.335Y-133.681
X177.1Y-96.7
X177.6Y-101.4
X177.874Y-132.884
X178.445Y-90.045
X178.525Y-92.23
X179.214Y-134.183
X179.345Y-101.497
X179.705Y-90.16
X179.8Y-85.0
X179.886Y-130.464
X180.395Y-134.29
X181.145Y-101.497
X181.235Y-128.49
X182.095Y-103.64
X182.4Y-86.4
X183.125Y-134.09
X183.165Y-63.14
X183.325Y-99.55
X183.4Y-111.1
X184.075Y-94.02
X184.173Y-65.055
X184.605Y-126.393
X184.745Y-73.13
X185.215Y-56.8
X185.785Y-133.48
X185.87Y-124.334
X186.013Y-65.005
X186.88Y-99.9
X186.954Y-125.704
X187.065Y-60.65
X187.838Y-65.66
X188.321Y-139.086
X188.565Y-78.57
X188.615Y-94.49
X188.985Y-109.85
X189.715Y-112.37
X190.255Y-128.46
X191.215Y-112.3
X191.4Y-90.96
X191.705Y-107.6
X191.975Y-101.085
X192.0Y-117.2
X193.915Y-55.11
T2
X133.51Y-67.625
X133.51Y-82.865
X136.05Y-67.625
X136.05Y-82.865
X138.59Y-67.625
X138.59Y-82.865
X141.13Y-67.625
X141.13Y-82.865
X143.41Y-105.785
X143.41Y-121.025
X143.67Y-67.625
X143.67Y-82.865
X145.95Y-105.785
X145.95Y-121.025
X146.21Y-67.625
X146.21Y-82.865
X148.49Y-105.785
X148.49Y-121.025
X148.75Y-67.625
X148.75Y-82.865
X151.03Y-105.785
X151.03Y-121.025
X151.29Y-67.625
X151.29Y-82.865
X153.57Y-105.785
X153.57Y-121.025
X153.83Y-67.625
X153.83Y-82.865
X156.11Y-105.785
X156.11Y-121.025
X156.37Y-67.625
X156.37Y-82.865
X158.65Y-105.785
X158.65Y-121.025
X158.91Y-67.625
X158.91Y-82.865
X161.19Y-105.785
X161.19Y-121.025
X161.45Y-67.625
X161.45Y-82.865
X163.73Y-105.785
X163.73Y-121.025
X163.99Y-67.625
X163.99Y-82.865
X166.27Y-105.785
X166.27Y-121.025
X166.53Y-67.625
X166.53Y-82.865
X168.81Y-105.785
X168.81Y-121.025
X169.07Y-67.625
X169.07Y-82.865
X171.35Y-105.785
X171.35Y-121.025
X171.61Y-67.625
X171.61Y-82.865
X173.89Y-105.785
X173.89Y-121.025
X174.15Y-67.625
X174.15Y-82.865
X176.43Y-105.785
X176.43Y-121.025
X176.69Y-67.625
X176.69Y-82.865
X178.97Y-105.785
X178.97Y-121.025
X179.23Y-67.625
X179.23Y-82.865
X181.51Y-105.785
X181.51Y-121.025
X181.77Y-67.625
X181.77Y-82.865
X184.05Y-105.785
X184.05Y-121.025
X186.59Y-105.785
X186.59Y-121.025
X189.13Y-105.785
X189.13Y-121.025
X190.9Y-72.45
X190.9Y-77.33
X191.67Y-105.785
X191.67Y-121.025
T3
X192.695Y-129.0
X192.695Y-131.54
T4
X118.38Y-137.41
X119.765Y-140.25
X120.125Y-56.07
X120.125Y-58.61
X120.125Y-61.15
X121.15Y-137.41
X122.535Y-140.25
X123.92Y-137.41
X125.305Y-140.25
X126.125Y-56.07
X126.125Y-58.61
X126.125Y-61.15
X126.69Y-137.41
X128.075Y-140.25
X129.46Y-137.41
X130.845Y-140.25
X132.23Y-137.41
X133.615Y-140.25
X135.0Y-137.41
X136.385Y-140.25
X137.77Y-137.41
X146.355Y-125.77
X146.355Y-131.77
X148.895Y-125.77
X148.895Y-131.77
X151.435Y-125.77
X151.435Y-131.77
X164.305Y-137.28
X165.69Y-140.12
X167.075Y-137.28
X168.46Y-140.12
X169.845Y-137.28
X171.23Y-140.12
X172.615Y-137.28
X174.0Y-140.12
X175.385Y-137.28
X176.77Y-140.12
X178.155Y-137.28
X179.54Y-140.12
X180.925Y-137.28
X182.31Y-140.12
X183.695Y-137.28
T5
X113.755Y-109.73
X113.755Y-114.81
X116.295Y-109.73
X116.295Y-114.81
X118.835Y-109.73
X118.835Y-114.81
X121.375Y-109.73
X121.375Y-114.81
X123.915Y-109.73
X123.915Y-114.81
X126.455Y-109.73
X126.455Y-114.81
X128.995Y-109.73
X128.995Y-114.81
X131.535Y-109.73
X131.535Y-114.81
X134.075Y-109.73
X134.075Y-114.81
X136.615Y-109.73
X136.615Y-114.81
X139.155Y-109.73
X139.155Y-114.81
X141.695Y-109.73
X141.695Y-114.81
X144.235Y-109.73
X144.235Y-114.81
X146.775Y-109.73
X146.775Y-114.81
X149.315Y-109.73
X149.315Y-114.81
X151.855Y-109.73
X151.855Y-114.81
X154.395Y-109.73
X154.395Y-114.81
X156.935Y-109.73
X156.935Y-114.81
X159.475Y-109.73
X159.475Y-114.81
X162.015Y-109.73
X162.015Y-114.81
X164.555Y-109.73
X164.555Y-114.81
X167.095Y-109.73
X167.095Y-114.81
X169.635Y-109.73
X169.635Y-114.81
X172.175Y-109.73
X172.175Y-114.81
X174.715Y-109.73
X174.715Y-114.81
X177.255Y-109.73
X177.255Y-114.81
X179.795Y-109.73
X179.795Y-114.81
X182.335Y-109.73
X182.335Y-114.81
X184.875Y-109.73
X184.875Y-114.81
X187.415Y-109.73
X187.415Y-114.81
T6
X108.925Y-66.18
X108.925Y-69.18
T8
X111.425Y-137.71
X144.725Y-137.71
X157.35Y-137.58
X190.65Y-137.58
T2
G00X107.415Y-57.61
M15
G01X107.415Y-59.81
M16
G05
G00X113.315Y-55.91
M15
G01X111.115Y-55.91
M16
G05
G00X113.515Y-61.71
M15
G01X110.915Y-61.71
M16
G05
T4
G00X151.995Y-63.07
M15
G01X151.995Y-61.57
M16
G05
G00X159.495Y-63.07
M15
G01X159.495Y-61.57
M16
G05
G00X162.795Y-63.02
M15
G01X162.795Y-61.52
M16
G05
G00X170.295Y-63.02
M15
G01X170.295Y-61.52
M16
G05
G00X173.335Y-63.0
M15
G01X173.335Y-61.5
M16
G05
G00X180.835Y-63.0
M15
G01X180.835Y-61.5
M16
G05
T7
G00X155.245Y-58.82
M15
G01X156.245Y-58.82
M16
G05
G00X166.045Y-58.77
M15
G01X167.045Y-58.77
M16
G05
G00X176.585Y-58.75
M15
G01X177.585Y-58.75
M16
G05
M30
