%TF.GenerationSoftware,KiCad,Pcbnew,7.0.11-2.fc39*%
%TF.CreationDate,2024-06-25T10:32:52+03:00*%
%TF.ProjectId,rev.1,7265762e-312e-46b6-9963-61645f706362,rev?*%
%TF.SameCoordinates,Original*%
%TF.FileFunction,Paste,Top*%
%TF.FilePolarity,Positive*%
%FSLAX46Y46*%
G04 Gerber Fmt 4.6, Leading zero omitted, Abs format (unit mm)*
G04 Created by KiCad (PCBNEW 7.0.11-2.fc39) date 2024-06-25 10:32:52*
%MOMM*%
%LPD*%
G01*
G04 APERTURE LIST*
G04 Aperture macros list*
%AMRoundRect*
0 Rectangle with rounded corners*
0 $1 Rounding radius*
0 $2 $3 $4 $5 $6 $7 $8 $9 X,Y pos of 4 corners*
0 Add a 4 corners polygon primitive as box body*
4,1,4,$2,$3,$4,$5,$6,$7,$8,$9,$2,$3,0*
0 Add four circle primitives for the rounded corners*
1,1,$1+$1,$2,$3*
1,1,$1+$1,$4,$5*
1,1,$1+$1,$6,$7*
1,1,$1+$1,$8,$9*
0 Add four rect primitives between the rounded corners*
20,1,$1+$1,$2,$3,$4,$5,0*
20,1,$1+$1,$4,$5,$6,$7,0*
20,1,$1+$1,$6,$7,$8,$9,0*
20,1,$1+$1,$8,$9,$2,$3,0*%
G04 Aperture macros list end*
%ADD10RoundRect,0.200000X-0.275000X0.200000X-0.275000X-0.200000X0.275000X-0.200000X0.275000X0.200000X0*%
%ADD11RoundRect,0.225000X-0.250000X0.225000X-0.250000X-0.225000X0.250000X-0.225000X0.250000X0.225000X0*%
%ADD12RoundRect,0.200000X0.275000X-0.200000X0.275000X0.200000X-0.275000X0.200000X-0.275000X-0.200000X0*%
%ADD13RoundRect,0.218750X-0.218750X-0.256250X0.218750X-0.256250X0.218750X0.256250X-0.218750X0.256250X0*%
%ADD14RoundRect,0.150000X-0.150000X0.825000X-0.150000X-0.825000X0.150000X-0.825000X0.150000X0.825000X0*%
%ADD15RoundRect,0.225000X-0.225000X-0.250000X0.225000X-0.250000X0.225000X0.250000X-0.225000X0.250000X0*%
%ADD16RoundRect,0.250000X-1.050000X-0.550000X1.050000X-0.550000X1.050000X0.550000X-1.050000X0.550000X0*%
%ADD17RoundRect,0.150000X0.875000X0.150000X-0.875000X0.150000X-0.875000X-0.150000X0.875000X-0.150000X0*%
%ADD18RoundRect,0.200000X0.200000X0.275000X-0.200000X0.275000X-0.200000X-0.275000X0.200000X-0.275000X0*%
%ADD19RoundRect,0.250000X-1.000000X1.950000X-1.000000X-1.950000X1.000000X-1.950000X1.000000X1.950000X0*%
%ADD20RoundRect,0.218750X-0.256250X0.218750X-0.256250X-0.218750X0.256250X-0.218750X0.256250X0.218750X0*%
%ADD21RoundRect,0.250000X1.000000X-1.750000X1.000000X1.750000X-1.000000X1.750000X-1.000000X-1.750000X0*%
%ADD22RoundRect,0.250000X0.550000X-1.050000X0.550000X1.050000X-0.550000X1.050000X-0.550000X-1.050000X0*%
%ADD23RoundRect,0.150000X0.150000X-0.825000X0.150000X0.825000X-0.150000X0.825000X-0.150000X-0.825000X0*%
G04 APERTURE END LIST*
D10*
%TO.C,R15*%
X156595000Y-92455000D03*
X156595000Y-94105000D03*
%TD*%
D11*
%TO.C,C43*%
X189305000Y-66360000D03*
X189305000Y-67910000D03*
%TD*%
D12*
%TO.C,R34*%
X142655000Y-56975000D03*
X142655000Y-55325000D03*
%TD*%
D13*
%TO.C,L5*%
X138327500Y-104270000D03*
X139902500Y-104270000D03*
%TD*%
D14*
%TO.C,DA2*%
X140755000Y-56270000D03*
X139485000Y-56270000D03*
X138215000Y-56270000D03*
X136945000Y-56270000D03*
X136945000Y-61220000D03*
X138215000Y-61220000D03*
X139485000Y-61220000D03*
X140755000Y-61220000D03*
%TD*%
D11*
%TO.C,C27*%
X133285000Y-61795000D03*
X133285000Y-63345000D03*
%TD*%
D15*
%TO.C,C30*%
X190510000Y-70770000D03*
X192060000Y-70770000D03*
%TD*%
D10*
%TO.C,R14*%
X159905000Y-92985000D03*
X159905000Y-94635000D03*
%TD*%
D16*
%TO.C,C23*%
X151235000Y-87160000D03*
X154835000Y-87160000D03*
%TD*%
D10*
%TO.C,R17*%
X149755000Y-92445000D03*
X149755000Y-94095000D03*
%TD*%
D17*
%TO.C,DD6*%
X120745000Y-95645000D03*
X120745000Y-94375000D03*
X120745000Y-93105000D03*
X120745000Y-91835000D03*
X120745000Y-90565000D03*
X120745000Y-89295000D03*
X120745000Y-88025000D03*
X120745000Y-86755000D03*
X120745000Y-85485000D03*
X120745000Y-84215000D03*
X120745000Y-82945000D03*
X120745000Y-81675000D03*
X120745000Y-80405000D03*
X120745000Y-79135000D03*
X111445000Y-79135000D03*
X111445000Y-80405000D03*
X111445000Y-81675000D03*
X111445000Y-82945000D03*
X111445000Y-84215000D03*
X111445000Y-85485000D03*
X111445000Y-86755000D03*
X111445000Y-88025000D03*
X111445000Y-89295000D03*
X111445000Y-90565000D03*
X111445000Y-91835000D03*
X111445000Y-93105000D03*
X111445000Y-94375000D03*
X111445000Y-95645000D03*
%TD*%
D18*
%TO.C,R2*%
X157890000Y-118750000D03*
X156240000Y-118750000D03*
%TD*%
D15*
%TO.C,C8*%
X138410000Y-102620000D03*
X139960000Y-102620000D03*
%TD*%
D12*
%TO.C,R37*%
X190105000Y-75610000D03*
X190105000Y-73960000D03*
%TD*%
D15*
%TO.C,C31*%
X190550000Y-80080000D03*
X192100000Y-80080000D03*
%TD*%
D10*
%TO.C,R18*%
X152935000Y-92455000D03*
X152935000Y-94105000D03*
%TD*%
D19*
%TO.C,C3*%
X117305000Y-65680000D03*
X117305000Y-73080000D03*
%TD*%
D10*
%TO.C,R13*%
X158275000Y-92965000D03*
X158275000Y-94615000D03*
%TD*%
D20*
%TO.C,L15*%
X187715000Y-66342500D03*
X187715000Y-67917500D03*
%TD*%
D21*
%TO.C,C41*%
X188595000Y-62950000D03*
X188595000Y-56850000D03*
%TD*%
D22*
%TO.C,C28*%
X132975000Y-59420000D03*
X132975000Y-55820000D03*
%TD*%
D10*
%TO.C,R16*%
X151385000Y-92455000D03*
X151385000Y-94105000D03*
%TD*%
D23*
%TO.C,DD9*%
X180895000Y-76550000D03*
X182165000Y-76550000D03*
X183435000Y-76550000D03*
X184705000Y-76550000D03*
X185975000Y-76550000D03*
X187245000Y-76550000D03*
X188515000Y-76550000D03*
X188515000Y-71600000D03*
X187245000Y-71600000D03*
X185975000Y-71600000D03*
X184705000Y-71600000D03*
X183435000Y-71600000D03*
X182165000Y-71600000D03*
X180895000Y-71600000D03*
%TD*%
D19*
%TO.C,C9*%
X126725000Y-65750000D03*
X126725000Y-73150000D03*
%TD*%
D16*
%TO.C,C24*%
X144455000Y-89590000D03*
X148055000Y-89590000D03*
%TD*%
%TO.C,C37*%
X145225000Y-62010000D03*
X148825000Y-62010000D03*
%TD*%
D12*
%TO.C,R35*%
X142825000Y-62115000D03*
X142825000Y-60465000D03*
%TD*%
%TO.C,R10*%
X144605000Y-101535000D03*
X144605000Y-99885000D03*
%TD*%
%TO.C,R9*%
X146205000Y-101535000D03*
X146205000Y-99885000D03*
%TD*%
D16*
%TO.C,C36*%
X145095000Y-56850000D03*
X148695000Y-56850000D03*
%TD*%
M02*
