M48
METRIC
T1C0.500
T2C0.800
T3C0.900
T4C1.000
T5C1.100
T6C1.300
T7C1.500
T8C3.200
T9C1.600
%
G90
G05
T1
X108.205Y-79.07
X108.205Y-85.796
X108.675Y-62.95
X110.545Y-74.15
X111.555Y-96.75
X112.425Y-67.7
X112.565Y-101.3
X113.025Y-96.78
X113.135Y-82.75
X113.475Y-89.38
X113.755Y-103.26
X113.985Y-129.37
X114.525Y-90.53
X114.715Y-122.75
X114.865Y-86.72
X115.225Y-85.18
X115.345Y-103.31
X116.635Y-121.9
X116.807Y-107.786
X117.486Y-100.188
X117.535Y-140.27
X117.765Y-103.61
X118.26Y-83.515
X118.805Y-63.04
X118.875Y-112.83
X118.915Y-104.61
X119.043Y-86.209
X119.215Y-102.59
X120.459Y-100.312
X120.673Y-96.432
X120.785Y-120.89
X121.327Y-122.53
X121.785Y-97.34
X122.25Y-105.622
X122.515Y-69.92
X122.555Y-79.17
X122.785Y-111.185
X123.355Y-92.84
X123.405Y-80.82
X125.245Y-108.34
X125.349Y-92.48
X125.407Y-85.34
X125.905Y-98.75
X125.975Y-78.69
X126.715Y-83.325
X127.725Y-62.56
X128.026Y-104.403
X128.105Y-138.37
X128.2Y-97.916
X128.561Y-93.22
X128.775Y-94.657
X128.935Y-107.71
X129.486Y-60.62
X129.705Y-105.9
X130.446Y-60.065
X130.895Y-83.77
X131.175Y-55.38
X131.535Y-107.63
X132.055Y-97.03
X132.065Y-95.87
X132.405Y-98.51
X132.545Y-106.22
X133.145Y-132.48
X133.595Y-136.18
X133.825Y-69.96
X134.135Y-119.67
X134.229Y-84.351
X134.295Y-123.42
X134.485Y-56.405
X134.965Y-61.47
X135.222Y-58.976
X136.165Y-69.49
X136.214Y-108.012
X136.725Y-118.76
X136.765Y-121.57
X137.555Y-126.83
X137.595Y-123.71
X137.738Y-71.273
X137.965Y-140.35
X138.025Y-99.27
X138.033Y-97.979
X138.669Y-87.769
X138.815Y-57.829
X139.255Y-128.28
X139.355Y-124.12
X139.365Y-138.65
X139.715Y-88.14
X139.755Y-84.52
X140.055Y-136.81
X140.061Y-118.095
X140.068Y-54.771
X140.115Y-105.62
X140.645Y-134.45
X140.965Y-128.33
X140.995Y-84.69
X141.065Y-132.47
X141.462Y-93.945
X141.611Y-87.997
X141.655Y-103.84
X141.715Y-137.51
X141.755Y-54.85
X142.215Y-89.33
X142.247Y-94.73
X142.415Y-85.28
X142.484Y-123.38
X142.515Y-58.23
X142.535Y-101.72
X142.557Y-59.339
X142.815Y-99.23
X142.965Y-129.54
X143.358Y-125.996
X143.382Y-102.939
X143.405Y-131.17
X143.805Y-107.98
X143.92Y-99.136
X144.165Y-118.095
X144.185Y-96.387
X144.324Y-91.73
X144.475Y-98.175
X144.525Y-103.4
X144.935Y-104.57
X144.947Y-124.102
X145.965Y-85.9
X146.025Y-103.4
X146.165Y-80.36
X146.326Y-95.931
X146.355Y-128.08
X146.508Y-98.773
X146.795Y-117.23
X148.011Y-101.911
X148.524Y-123.345
X148.544Y-94.276
X148.695Y-104.43
X148.805Y-81.11
X148.945Y-137.46
X149.255Y-111.48
X149.53Y-97.231
X149.53Y-100.182
X149.795Y-103.95
X150.15Y-95.873
X150.379Y-112.861
X150.538Y-115.696
X151.045Y-123.345
X151.252Y-95.739
X151.679Y-73.5
X151.88Y-100.087
X152.995Y-135.26
X153.13Y-108.465
X153.568Y-123.345
X153.595Y-118.02
X153.625Y-98.37
X154.148Y-118.983
X154.545Y-137.3
X155.557Y-134.665
X156.595Y-116.945
X156.795Y-128.73
X156.855Y-112.72
X157.415Y-71.29
X158.021Y-130.842
X158.691Y-128.494
X159.145Y-118.78
X159.355Y-112.7
X159.365Y-140.51
X159.589Y-125.594
X159.664Y-134.145
X160.013Y-129.512
X160.375Y-135.01
X160.641Y-126.725
X161.945Y-112.64
X161.985Y-96.8
X162.104Y-134.613
X162.215Y-128.147
X162.355Y-85.112
X162.85Y-123.701
X162.991Y-128.943
X163.095Y-88.47
X163.415Y-96.91
X163.93Y-129.535
X164.595Y-112.61
X164.64Y-141.204
X164.795Y-130.24
X165.72Y-132.875
X165.815Y-136.404
X166.528Y-130.547
X166.549Y-128.78
X166.555Y-138.697
X166.692Y-122.955
X167.055Y-112.64
X167.335Y-123.86
X167.455Y-120.03
X167.638Y-130.44
X168.46Y-137.882
X168.765Y-134.65
X169.041Y-123.301
X169.075Y-85.85
X169.365Y-129.16
X169.605Y-112.66
X169.845Y-139.519
X169.955Y-126.737
X170.911Y-135.067
X171.283Y-133.749
X171.742Y-123.205
X171.795Y-138.87
X172.085Y-96.03
X172.175Y-112.64
X172.634Y-129.613
X173.463Y-128.875
X173.667Y-136.196
X174.206Y-138.701
X174.363Y-123.197
X174.745Y-112.64
X175.045Y-129.98
X175.234Y-133.545
X175.258Y-139.154
X175.415Y-99.115
X175.725Y-64.71
X176.085Y-92.09
X176.323Y-138.882
X176.335Y-133.681
X176.93Y-69.925
X177.071Y-100.921
X177.078Y-99.136
X177.874Y-132.884
X178.445Y-90.045
X178.525Y-92.23
X179.214Y-134.183
X179.247Y-100.279
X179.385Y-138.19
X179.705Y-90.16
X179.715Y-86.11
X179.886Y-130.464
X180.395Y-134.29
X180.985Y-86.14
X180.985Y-139.03
X181.135Y-100.203
X181.235Y-128.49
X181.545Y-84.58
X181.585Y-122.6
X182.005Y-112.09
X182.095Y-103.64
X183.125Y-134.09
X183.165Y-63.14
X183.325Y-99.55
X183.703Y-100.854
X184.075Y-94.02
X184.173Y-65.055
X184.605Y-126.393
X184.745Y-73.13
X185.215Y-56.8
X185.785Y-133.48
X185.87Y-124.334
X185.98Y-115.915
X186.013Y-65.005
X186.615Y-107.42
X187.065Y-60.65
X187.838Y-65.66
X187.955Y-126.02
X188.321Y-139.086
X188.565Y-78.57
X188.615Y-94.49
X188.985Y-109.85
X189.155Y-69.4
X189.375Y-80.01
X189.715Y-112.37
X190.255Y-128.46
X191.215Y-112.3
X191.705Y-107.6
X191.975Y-101.085
X192.795Y-90.96
X192.815Y-117.14
X193.915Y-55.11
T2
X133.51Y-67.625
X133.51Y-82.865
X136.05Y-67.625
X136.05Y-82.865
X138.59Y-67.625
X138.59Y-82.865
X141.13Y-67.625
X141.13Y-82.865
X143.41Y-105.785
X143.41Y-121.025
X143.67Y-67.625
X143.67Y-82.865
X145.95Y-105.785
X145.95Y-121.025
X146.21Y-67.625
X146.21Y-82.865
X148.49Y-105.785
X148.49Y-121.025
X148.75Y-67.625
X148.75Y-82.865
X151.03Y-105.785
X151.03Y-121.025
X151.29Y-67.625
X151.29Y-82.865
X153.57Y-105.785
X153.57Y-121.025
X153.83Y-67.625
X153.83Y-82.865
X156.11Y-105.785
X156.11Y-121.025
X156.37Y-67.625
X156.37Y-82.865
X158.65Y-105.785
X158.65Y-121.025
X158.91Y-67.625
X158.91Y-82.865
X161.19Y-105.785
X161.19Y-121.025
X161.45Y-67.625
X161.45Y-82.865
X163.73Y-105.785
X163.73Y-121.025
X163.99Y-67.625
X163.99Y-82.865
X166.27Y-105.785
X166.27Y-121.025
X166.53Y-67.625
X166.53Y-82.865
X168.81Y-105.785
X168.81Y-121.025
X169.07Y-67.625
X169.07Y-82.865
X171.35Y-105.785
X171.35Y-121.025
X171.61Y-67.625
X171.61Y-82.865
X173.89Y-105.785
X173.89Y-121.025
X174.15Y-67.625
X174.15Y-82.865
X176.43Y-105.785
X176.43Y-121.025
X176.69Y-67.625
X176.69Y-82.865
X178.97Y-105.785
X178.97Y-121.025
X179.23Y-67.625
X179.23Y-82.865
X181.51Y-105.785
X181.51Y-121.025
X181.77Y-67.625
X181.77Y-82.865
X184.05Y-105.785
X184.05Y-121.025
X186.59Y-105.785
X186.59Y-121.025
X189.13Y-105.785
X189.13Y-121.025
X191.67Y-105.785
X191.67Y-121.025
T3
X192.695Y-129.0
X192.695Y-131.54
T4
X118.38Y-137.41
X119.765Y-140.25
X120.125Y-56.07
X120.125Y-58.61
X120.125Y-61.15
X121.15Y-137.41
X122.535Y-140.25
X123.92Y-137.41
X125.305Y-140.25
X126.125Y-56.07
X126.125Y-58.61
X126.125Y-61.15
X126.69Y-137.41
X128.075Y-140.25
X129.46Y-137.41
X130.845Y-140.25
X132.23Y-137.41
X133.615Y-140.25
X135.0Y-137.41
X136.385Y-140.25
X137.77Y-137.41
X146.355Y-125.77
X146.355Y-131.77
X148.895Y-125.77
X148.895Y-131.77
X151.435Y-125.77
X151.435Y-131.77
X164.305Y-137.28
X165.69Y-140.12
X167.075Y-137.28
X168.46Y-140.12
X169.845Y-137.28
X171.23Y-140.12
X172.615Y-137.28
X174.0Y-140.12
X175.385Y-137.28
X176.77Y-140.12
X178.155Y-137.28
X179.54Y-140.12
X180.925Y-137.28
X182.31Y-140.12
X183.695Y-137.28
T5
X113.755Y-109.73
X113.755Y-114.81
X116.295Y-109.73
X116.295Y-114.81
X118.835Y-109.73
X118.835Y-114.81
X121.375Y-109.73
X121.375Y-114.81
X123.915Y-109.73
X123.915Y-114.81
X126.455Y-109.73
X126.455Y-114.81
X128.995Y-109.73
X128.995Y-114.81
X131.535Y-109.73
X131.535Y-114.81
X134.075Y-109.73
X134.075Y-114.81
X136.615Y-109.73
X136.615Y-114.81
X139.155Y-109.73
X139.155Y-114.81
X141.695Y-109.73
X141.695Y-114.81
X144.235Y-109.73
X144.235Y-114.81
X146.775Y-109.73
X146.775Y-114.81
X149.315Y-109.73
X149.315Y-114.81
X151.855Y-109.73
X151.855Y-114.81
X154.395Y-109.73
X154.395Y-114.81
X156.935Y-109.73
X156.935Y-114.81
X159.475Y-109.73
X159.475Y-114.81
X162.015Y-109.73
X162.015Y-114.81
X164.555Y-109.73
X164.555Y-114.81
X167.095Y-109.73
X167.095Y-114.81
X169.635Y-109.73
X169.635Y-114.81
X172.175Y-109.73
X172.175Y-114.81
X174.715Y-109.73
X174.715Y-114.81
X177.255Y-109.73
X177.255Y-114.81
X179.795Y-109.73
X179.795Y-114.81
X182.335Y-109.73
X182.335Y-114.81
X184.875Y-109.73
X184.875Y-114.81
X187.415Y-109.73
X187.415Y-114.81
T6
X108.925Y-66.18
X108.925Y-69.18
T8
X111.425Y-137.71
X144.725Y-137.71
X157.35Y-137.58
X190.65Y-137.58
T9
X155.745Y-63.32
X166.545Y-63.27
X177.085Y-63.25
T2
X107.415Y-57.61G85X107.415Y-59.81
G05
X113.315Y-55.91G85X111.115Y-55.91
G05
X113.515Y-61.71G85X110.915Y-61.71
G05
T4
X151.995Y-63.07G85X151.995Y-61.57
G05
X159.495Y-63.07G85X159.495Y-61.57
G05
X162.795Y-63.02G85X162.795Y-61.52
G05
X170.295Y-63.02G85X170.295Y-61.52
G05
X173.335Y-63.0G85X173.335Y-61.5
G05
X180.835Y-63.0G85X180.835Y-61.5
G05
T7
X155.245Y-58.82G85X156.245Y-58.82
G05
X166.045Y-58.77G85X167.045Y-58.77
G05
X176.585Y-58.75G85X177.585Y-58.75
G05
M30
